<svg width="35" height="61" viewBox="0 0 35 61" fill="none" xmlns="http://www.w3.org/2000/svg">
<path d="M22.4976 33.1554V7.95824C22.4976 3.61097 18.9735 0.0869141 14.6262 0.0869141C10.279 0.0869141 6.75492 3.61097 6.75492 7.95824V33.1443C-0.0485795 37.485 -2.04522 46.5192 2.29548 53.3227C4.97422 57.5212 9.60681 60.0664 14.5871 60.0757L14.6654 60.0869C22.7358 60.0718 29.2657 53.5173 29.2506 45.4471C29.2412 40.4668 26.696 35.8342 22.4976 33.1554ZM8.47799 56.1974C2.5538 52.7771 0.524148 45.2019 3.94443 39.2778C5.03156 37.3949 6.59506 35.8314 8.47799 34.7443C8.82555 34.5436 9.03897 34.1721 9.03743 33.7708V7.95824C9.03743 4.84691 11.5597 2.32468 14.671 2.32468C17.7823 2.32468 20.3046 4.84691 20.3046 7.95824V33.7708C20.303 34.1721 20.5165 34.5436 20.864 34.7443C26.7882 38.1645 28.8179 45.7398 25.3976 51.6638C21.9773 57.588 14.402 59.6178 8.47799 56.1974Z" fill="#345995"/>
<path d="M15.7843 37.4302V20.4568C15.7843 19.8389 15.2834 19.3379 14.6655 19.3379C14.0476 19.3379 13.5466 19.8389 13.5466 20.4568V37.4302C9.31986 38.0364 6.38475 41.9541 6.99091 46.1808C7.53804 49.9959 10.8113 52.8254 14.6655 52.8148C18.9354 52.8266 22.4064 49.3747 22.4183 45.1047C22.429 41.2506 19.5994 37.9773 15.7843 37.4302ZM14.6655 50.5659C11.6313 50.5659 9.17175 48.1063 9.17175 45.0722C9.1779 42.0407 11.6338 39.5846 14.6655 39.5784C17.6996 39.5784 20.1592 42.038 20.1592 45.0722C20.1592 48.1063 17.6994 50.5659 14.6655 50.5659Z" fill="#345995"/>
<path d="M33.4067 7.7793H26.4137C25.7958 7.7793 25.2948 8.28028 25.2948 8.89818C25.2948 9.51608 25.7958 10.0171 26.4137 10.0171H33.4067C34.0246 10.0171 34.5256 9.51608 34.5256 8.89818C34.5256 8.28028 34.0246 7.7793 33.4067 7.7793Z" fill="#345995"/>
<path d="M31.9185 13.374H27.8122C27.1943 13.374 26.6934 13.875 26.6934 14.4929C26.6934 15.1108 27.1943 15.6118 27.8122 15.6118H31.9185C32.5364 15.6118 33.0374 15.1108 33.0374 14.4929C33.0374 13.875 32.5364 13.374 31.9185 13.374Z" fill="#345995"/>
<path d="M33.4067 18.9678H26.4137C25.7958 18.9678 25.2948 19.4688 25.2948 20.0867C25.2948 20.7046 25.7958 21.2055 26.4137 21.2055H33.4067C34.0246 21.2055 34.5256 20.7046 34.5256 20.0867C34.5256 19.4688 34.0246 18.9678 33.4067 18.9678Z" fill="#345995"/>
<path d="M31.9185 24.5625H27.8122C27.1943 24.5625 26.6934 25.0635 26.6934 25.6814C26.6934 26.2993 27.1943 26.8003 27.8122 26.8003H31.9185C32.5364 26.8003 33.0374 26.2993 33.0374 25.6814C33.0374 25.0635 32.5364 24.5625 31.9185 24.5625Z" fill="#345995"/>
<path d="M33.4067 30.1572H26.4137C25.7958 30.1572 25.2948 30.6582 25.2948 31.2761C25.2948 31.894 25.7958 32.395 26.4137 32.395H33.4067C34.0246 32.395 34.5256 31.894 34.5256 31.2761C34.5256 30.6582 34.0246 30.1572 33.4067 30.1572Z" fill="#345995"/>
</svg>
