<svg width="60" height="52" viewBox="0 0 60 52" fill="none" xmlns="http://www.w3.org/2000/svg">
<path d="M33.5156 9.68066C34.1628 9.68066 34.6875 9.156 34.6875 8.50879C34.6875 7.86158 34.1628 7.33691 33.5156 7.33691C32.8684 7.33691 32.3438 7.86158 32.3438 8.50879C32.3438 9.156 32.8684 9.68066 33.5156 9.68066Z" fill="#345995"/>
<path d="M26.4844 9.68066C27.1316 9.68066 27.6562 9.156 27.6562 8.50879C27.6562 7.86158 27.1316 7.33691 26.4844 7.33691C25.8372 7.33691 25.3125 7.86158 25.3125 8.50879C25.3125 9.156 25.8372 9.68066 26.4844 9.68066Z" fill="#345995"/>
<path d="M35.9766 30.5401C36.4943 30.1518 36.5992 29.4172 36.2109 28.8994C35.8227 28.3817 35.0882 28.2768 34.5703 28.6651C32.5968 30.1453 31.4648 32.4091 31.4648 34.876C31.4648 37.3429 32.5968 39.6067 34.5703 41.0869C35.9481 42.1203 36.7383 43.7007 36.7383 45.4229C36.7383 47.1451 35.9481 48.7255 34.5703 49.7588C34.0526 50.1471 33.9477 50.8817 34.3359 51.3994C34.7223 51.9146 35.4564 52.0239 35.9766 51.6338C37.9501 50.1536 39.082 47.8898 39.082 45.4229C39.082 42.956 37.9501 40.6921 35.9766 39.2119C34.5988 38.1786 33.8086 36.5982 33.8086 34.876C33.8086 33.1538 34.5988 31.5734 35.9766 30.5401Z" fill="#345995"/>
<path d="M46.5234 30.5401C47.0412 30.1518 47.1461 29.4172 46.7578 28.8994C46.3695 28.3817 45.635 28.2768 45.1172 28.6651C43.1436 30.1453 42.0117 32.4091 42.0117 34.876C42.0117 37.3429 43.1436 39.6067 45.1172 41.0869C46.495 42.1203 47.2852 43.7007 47.2852 45.4229C47.2852 47.1451 46.495 48.7255 45.1172 49.7588C44.5995 50.1471 44.4946 50.8817 44.8828 51.3994C45.2692 51.9146 46.0032 52.0239 46.5234 51.6338C48.497 50.1536 49.6289 47.8898 49.6289 45.4229C49.6289 42.956 48.497 40.6921 46.5234 39.2119C45.1457 38.1786 44.3555 36.5982 44.3555 34.876C44.3555 33.1538 45.1457 31.5734 46.5234 30.5401Z" fill="#345995"/>
<path d="M25.4297 30.5401C25.9474 30.1519 26.0523 29.4172 25.6641 28.8995C25.2758 28.3818 24.5413 28.2768 24.0234 28.6651C22.0499 30.1453 20.918 32.4091 20.918 34.8761C20.918 37.343 22.0499 39.6068 24.0234 41.087C25.4012 42.1203 26.1914 43.7007 26.1914 45.4229C26.1914 47.1451 25.4012 48.7255 24.0234 49.7589C23.5057 50.1471 23.4008 50.8818 23.7891 51.3995C24.1754 51.9146 24.9095 52.024 25.4297 51.6339C27.4032 50.1537 28.5352 47.8898 28.5352 45.4229C28.5352 42.956 27.4032 40.6922 25.4297 39.212C24.0519 38.1786 23.2617 36.5982 23.2617 34.8761C23.2617 33.1539 24.0519 31.5735 25.4297 30.5401Z" fill="#345995"/>
<path d="M14.8828 30.5401C15.4005 30.1519 15.5054 29.4172 15.1172 28.8995C14.7288 28.3818 13.9944 28.2768 13.4766 28.6651C11.503 30.1453 10.3711 32.4091 10.3711 34.8761C10.3711 37.343 11.503 39.6068 13.4766 41.087C14.8543 42.1203 15.6445 43.7007 15.6445 45.4229C15.6445 47.1451 14.8543 48.7255 13.4766 49.7589C12.9588 50.1471 12.8539 50.8818 13.2422 51.3995C13.6286 51.9146 14.3626 52.024 14.8828 51.6339C16.8564 50.1537 17.9883 47.8898 17.9883 45.4229C17.9883 42.956 16.8564 40.6922 14.8828 39.212C13.505 38.1786 12.7148 36.5982 12.7148 34.8761C12.7148 33.1539 13.505 31.5735 14.8828 30.5401Z" fill="#345995"/>
<path d="M30 23.7432C30.6472 23.7432 31.1719 23.2185 31.1719 22.5713C31.1719 21.9241 30.6472 21.3994 30 21.3994C29.3528 21.3994 28.8281 21.9241 28.8281 22.5713C28.8281 23.2185 29.3528 23.7432 30 23.7432Z" fill="#345995"/>
<path d="M55.3125 0.305664H4.6875C2.10281 0.305664 0 2.40848 0 4.99316V22.5713C0 23.2185 0.524648 23.7432 1.17188 23.7432H24.7266C25.3738 23.7432 25.8984 23.2185 25.8984 22.5713C25.8984 21.9241 25.3738 21.3994 24.7266 21.3994H9.375V16.7119H50.625V21.3994H35.2734C34.6263 21.3994 34.1016 21.9241 34.1016 22.5713C34.1016 23.2185 34.6263 23.7432 35.2734 23.7432H58.8281C59.4752 23.7432 60 23.2185 60 22.5713V4.99316C60 2.40848 57.8972 0.305664 55.3125 0.305664ZM57.6562 21.3994H52.9688V15.54C52.9688 14.8928 52.444 14.3682 51.7969 14.3682H8.20312C7.5559 14.3682 7.03125 14.8928 7.03125 15.54V21.3994H2.34375V4.99316C2.34375 3.70082 3.39516 2.64941 4.6875 2.64941H55.3125C56.6048 2.64941 57.6562 3.70082 57.6562 4.99316V21.3994Z" fill="#345995"/>
</svg>
