<svg width="60" height="61" viewBox="0 0 60 61" fill="none" xmlns="http://www.w3.org/2000/svg">
<g clip-path="url(#clip0)">
<path d="M46.1364 24.1021C43.1818 20.996 39.2424 18.799 34.8485 17.8899V15.1627C34.8485 14.5566 34.6212 13.9506 34.1667 13.5718C33.7121 13.193 33.1818 12.8899 32.5757 12.8899H31.3636L31.2879 1.22328C31.2879 0.54146 30.7576 0.0869141 30.1515 0.0869141C29.4697 0.0869141 29.0151 0.617217 29.0151 1.22328L29.0909 12.8899H27.8788C27.2727 12.8899 26.6667 13.1172 26.2879 13.5718C25.9091 14.0263 25.6061 14.5566 25.6061 15.1627V17.8142C20.9848 18.799 16.9697 20.996 13.8636 24.1021C9.69696 28.2687 7.19696 33.9506 7.19696 40.3142C7.19696 40.996 7.72726 41.4506 8.33332 41.4506H20.4545C20.7576 43.6475 21.6667 45.6172 23.1818 47.1324C24.9242 48.8748 27.3485 49.9354 30 49.9354C32.6515 49.9354 35.0757 48.8748 36.8182 47.1324C38.3333 45.6172 39.2424 43.6475 39.5454 41.4506H51.6667C52.3485 41.4506 52.803 40.9202 52.803 40.3142C52.803 34.0263 50.2273 28.2687 46.1364 24.1021ZM27.803 15.2384H32.5V17.5112C32.4242 17.5112 32.4242 17.5112 32.3485 17.5112C32.197 17.5112 32.1212 17.5112 31.9697 17.5112C31.3636 17.4354 30.6818 17.4354 30.0757 17.4354C29.4697 17.3596 28.8636 17.4354 28.2576 17.4354C28.1061 17.4354 27.9545 17.4354 27.803 17.5112V15.2384ZM35.2273 45.4657C33.8636 46.8293 32.0454 47.5869 30.0757 47.5869C28.0303 47.5869 26.2121 46.7536 24.9242 45.4657C23.8636 44.4051 23.1061 43.0415 22.8788 41.4506H30.0757H37.3485C37.0454 42.9657 36.3636 44.4051 35.2273 45.4657ZM38.5606 39.1021H30.0757H21.5909H9.54545C9.84848 33.8748 12.0454 29.1778 15.5303 25.7687C18.7121 22.5869 22.8788 20.4657 27.5757 19.9354C27.7273 19.9354 27.9545 19.8596 28.1061 19.8596C28.7121 19.7839 29.3939 19.7839 30 19.7839C30.6818 19.7839 31.2879 19.7839 31.9697 19.8596C32.1212 19.8596 32.3485 19.9354 32.5 19.9354C37.197 20.4657 41.3636 22.5869 44.5454 25.7687C48.0303 29.2536 50.2273 33.8748 50.5303 39.1021H38.5606Z" fill="#345995"/>
<path d="M30.0758 51.5264C29.3939 51.5264 28.9394 52.0567 28.9394 52.6627V58.9506C28.9394 59.6324 29.4697 60.087 30.0758 60.087C30.7576 60.087 31.2121 59.5567 31.2121 58.9506V52.6627C31.2121 51.9809 30.7576 51.5264 30.0758 51.5264Z" fill="#345995"/>
<path d="M40.4545 55.8446L37.2727 50.3901C36.9696 49.8598 36.2121 49.6325 35.6818 49.9355C35.1515 50.2386 34.9242 50.9961 35.2272 51.5264L38.409 56.981C38.7121 57.5113 39.4696 57.7385 39.9999 57.4355C40.5303 57.1325 40.7575 56.3749 40.4545 55.8446Z" fill="#345995"/>
<path d="M46.8182 48.6478L41.3636 45.466C40.8333 45.1629 40.0758 45.3145 39.7727 45.9205C39.4697 46.4508 39.6212 47.2084 40.2273 47.5114L45.6818 50.6932C46.2121 50.9963 46.9697 50.8447 47.2727 50.2387C47.5758 49.7084 47.4242 48.9508 46.8182 48.6478Z" fill="#345995"/>
<path d="M20.3788 45.9203C20.0758 45.39 19.3182 45.1628 18.7879 45.4658L13.3334 48.6476C12.8031 48.9506 12.5758 49.7082 12.8788 50.2385C13.1819 50.7688 13.9394 50.9961 14.4697 50.6931L19.9243 47.5113C20.4546 47.1325 20.6819 46.4507 20.3788 45.9203Z" fill="#345995"/>
<path d="M24.4697 49.9355C23.9394 49.6325 23.1818 49.8598 22.8788 50.3901L19.697 55.8446C19.394 56.3749 19.5455 57.1325 20.1515 57.4355C20.6818 57.7386 21.4394 57.587 21.7424 56.981L24.9243 51.5264C25.2273 50.9961 25.0758 50.2386 24.4697 49.9355Z" fill="#345995"/>
</g>
<defs>
<clipPath id="clip0">
<rect width="60" height="60" fill="white" transform="translate(0 0.0869141)"/>
</clipPath>
</defs>
</svg>
