<svg width="60" height="61" viewBox="0 0 60 61" fill="none" xmlns="http://www.w3.org/2000/svg">
<path d="M42.5806 15.5711C44.1812 15.5711 45.4838 14.2685 45.4838 12.6679C45.4838 11.0672 44.1812 9.76465 42.5806 9.76465C40.9799 9.76465 39.6774 11.0672 39.6774 12.6679C39.6774 14.2685 40.9799 15.5711 42.5806 15.5711ZM42.5806 11.7001C43.1138 11.7001 43.5483 12.1337 43.5483 12.6679C43.5483 13.2021 43.1138 13.6356 42.5806 13.6356C42.0474 13.6356 41.6129 13.2021 41.6129 12.6679C41.6129 12.1337 42.0474 11.7001 42.5806 11.7001Z" fill="#345995"/>
<path d="M0 0.0869141V6.51078C0 6.86014 0.0619355 7.20466 0.184839 7.53079L5.3971 21.4295C5.81226 22.5356 6.87484 23.2818 8.05258 23.3079L11.6129 32.2082V32.9901C11.6129 35.125 13.349 36.8611 15.4839 36.8611H44.5161C46.651 36.8611 48.3871 35.125 48.3871 32.9901V32.2082L51.9474 23.3069C53.1252 23.2808 54.1868 22.5347 54.6029 21.4285L59.8152 7.52982C59.9381 7.20369 60 6.86014 60 6.51078V0.0869141H0ZM58.0645 2.0224V5.89337H1.93548V2.0224H58.0645ZM37.7419 7.82885H47.4194V12.6676C47.4194 15.3356 45.2487 17.5063 42.5806 17.5063C39.9126 17.5063 37.7419 15.3356 37.7419 12.6676V7.82885ZM10.139 23.3127H17.7319L20.8287 31.0547H13.2358L10.139 23.3127ZM30.9677 31.0547V23.3127H40.1835L37.0868 31.0547H30.9677ZM29.0323 31.0547H22.9132L19.8165 23.3127H29.0323V31.0547ZM44.5161 34.9256H15.4839C14.4165 34.9256 13.5484 34.0576 13.5484 32.9901H46.4516C46.4516 34.0576 45.5835 34.9256 44.5161 34.9256ZM46.7642 31.0547H39.1713L42.2681 23.3127H49.861L46.7642 31.0547ZM52.7903 20.7492C52.649 21.1247 52.2852 21.3772 51.8845 21.3772H8.11548C7.71387 21.3772 7.35 21.1247 7.20871 20.7492L2.36419 7.82885H35.8064V12.6676C35.8064 16.4021 38.8452 19.4418 42.5806 19.4418C46.3161 19.4418 49.3548 16.4021 49.3548 12.6676V7.82885H57.6358L52.7903 20.7492Z" fill="#345995"/>
<path d="M30 58.1508C22.588 58.1508 15.6174 55.1624 10.3732 49.7363L8.98157 51.0824C14.5945 56.8879 22.0587 60.0863 30 60.0863C37.9412 60.0863 45.4054 56.8879 51.0183 51.0815L49.6267 49.7354C44.3825 55.1624 37.4119 58.1508 30 58.1508Z" fill="#345995"/>
<path d="M12.8661 47.2248C17.5896 51.9212 23.7948 54.268 30 54.268C36.2051 54.268 42.4103 51.9203 47.1338 47.2248L45.7693 45.8525C37.0742 54.4964 22.9267 54.4964 14.2306 45.8525L12.8661 47.2248Z" fill="#345995"/>
<path d="M43.2397 43.3757L41.9226 41.958C35.3488 48.0616 24.6523 48.0616 18.0784 41.958L16.7614 43.3757C20.4117 46.7657 25.2059 48.4603 30.001 48.4603C34.7962 48.4603 39.5894 46.7657 43.2397 43.3757Z" fill="#345995"/>
</svg>
