<svg width="60" height="61" viewBox="0 0 60 61" fill="none" xmlns="http://www.w3.org/2000/svg">
<g clip-path="url(#clip0)">
<path d="M11.4803 36.742C12.7712 37.7876 14.5353 38.3178 16.7236 38.3178C18.912 38.3178 20.676 37.7876 21.9669 36.742C23.5385 35.4689 24.3353 33.4988 24.3353 30.8863C24.3353 27.9898 22.4902 24.782 20.9424 22.6011C19.9565 21.2119 19.0368 20.1613 18.5762 19.6587C17.283 18.2471 17.0362 18.2471 16.7236 18.2471C16.4111 18.2471 16.1643 18.2471 14.871 19.6587C14.4105 20.1613 13.4908 21.2119 12.5049 22.6011C10.9571 24.782 9.11206 27.9898 9.11206 30.8863C9.11206 33.4988 9.90882 35.4689 11.4803 36.742ZM16.7236 20.2599C18.1964 21.7199 22.5775 26.9392 22.5775 30.8864C22.5775 32.9427 21.9999 34.4533 20.8606 35.3761C19.8907 36.1618 18.4989 36.5602 16.7237 36.5602C14.9486 36.5602 13.5567 36.1619 12.5869 35.3761C11.4476 34.4533 10.87 32.9427 10.87 30.8864C10.8699 26.9392 15.2508 21.7199 16.7236 20.2599Z" fill="#345995"/>
<path d="M45.2764 41.8552C45.7619 41.8552 46.1553 41.4618 46.1553 40.9763V37.4139C47.8369 37.1337 49.3759 36.0534 50.557 34.2968C51.869 32.3453 52.5916 29.767 52.5916 27.0371C52.5916 24.3073 51.869 21.729 50.557 19.7775C49.1727 17.7187 47.2976 16.585 45.2764 16.585C43.2551 16.585 41.38 17.7187 39.9958 19.7775C38.6838 21.729 37.9612 24.3073 37.9612 27.0371C37.9612 29.767 38.6838 32.3453 39.9958 34.2968C41.1768 36.0534 42.7158 37.1337 44.3975 37.4139V40.9763C44.3975 41.4618 44.791 41.8552 45.2764 41.8552ZM41.4547 33.3162C40.3354 31.6514 39.719 29.4214 39.719 27.0371C39.719 24.6529 40.3354 22.4229 41.4547 20.7581C42.502 19.2006 43.8592 18.3428 45.2764 18.3428C46.6935 18.3428 48.0509 19.2006 49.0981 20.7581C50.2174 22.4229 50.8338 24.6529 50.8338 27.0371C50.8338 29.4214 50.2174 31.6514 49.0981 33.3162C48.2699 34.5479 47.2475 35.3399 46.1553 35.6182V32.2325L48.9231 30.1164C49.3087 29.8215 49.3823 29.2699 49.0874 28.8843C48.7926 28.4988 48.2413 28.4248 47.8553 28.72L46.1552 30.0198V27.3001L48.9229 25.1842C49.3086 24.8893 49.3822 24.3377 49.0873 23.9522C48.7927 23.5665 48.2411 23.4926 47.8553 23.7878L46.155 25.0876V23.0918C46.155 22.6063 45.7616 22.2129 45.2761 22.2129C44.7906 22.2129 44.3972 22.6063 44.3972 23.0918V25.0876L42.6968 23.7878C42.3113 23.4927 41.7596 23.5664 41.4649 23.9522C41.17 24.3377 41.2436 24.8893 41.6293 25.1842L44.3971 27.3001V30.0199L42.6967 28.72C42.3112 28.4249 41.7595 28.4986 41.4647 28.8844C41.1699 29.2699 41.2435 29.8215 41.6291 30.1164L44.397 32.2324V35.6182C43.3052 35.3399 42.2828 34.5479 41.4547 33.3162Z" fill="#345995"/>
<path d="M60.1211 58.3447H47.9131V55.2979H50.1464C51.3705 55.2979 52.3662 54.3021 52.3662 53.0781V50.6104H55.3545C56.7438 50.6104 57.874 49.4801 57.874 48.0908V13.6602C57.874 13.1747 57.4806 12.7813 56.9951 12.7813C56.5096 12.7813 56.1162 13.1747 56.1162 13.6602V48.0908C56.1162 48.5108 55.7745 48.8525 55.3545 48.8525H35.1982C34.7782 48.8525 34.4365 48.5108 34.4365 48.0908V6.60645C34.4365 6.18645 34.7782 5.84473 35.1982 5.84473H55.3545C55.7745 5.84473 56.1162 6.18645 56.1162 6.60645V9.52559C56.1162 10.0111 56.5096 10.4045 56.9951 10.4045C57.4806 10.4045 57.874 10.0111 57.874 9.52559V6.60645C57.874 5.21719 56.7438 4.08691 55.3545 4.08691H35.1982C33.809 4.08691 32.6787 5.21719 32.6787 6.60645V48.0908C32.6787 49.4801 33.809 50.6104 35.1982 50.6104H38.1865V53.0781C38.1865 54.3021 39.1823 55.2979 40.4063 55.2979H42.6396V58.3447H36.9405C36.455 58.3447 36.0616 58.7381 36.0616 59.2236C36.0616 59.7091 36.455 60.1025 36.9405 60.1025H59.2422V62.3291H2.75781V60.1025H32.7398C33.2253 60.1025 33.6187 59.7091 33.6187 59.2236C33.6187 58.7381 33.2253 58.3447 32.7398 58.3447H19.3604V55.2979H21.5937C22.8177 55.2979 23.8135 54.3021 23.8135 53.0781V50.6104H26.8018C28.191 50.6104 29.3213 49.4801 29.3213 48.0908V6.60645C29.3213 5.21719 28.191 4.08691 26.8018 4.08691H14.6028C14.1174 4.08691 13.7239 4.48031 13.7239 4.96582C13.7239 5.45133 14.1174 5.84473 14.6028 5.84473H26.8018C27.2218 5.84473 27.5635 6.18645 27.5635 6.60645V48.0908C27.5635 48.5108 27.2218 48.8525 26.8018 48.8525H6.64551C6.22551 48.8525 5.88379 48.5108 5.88379 48.0908V6.60645C5.88379 6.18645 6.22551 5.84473 6.64551 5.84473H10.5193C11.0046 5.84473 11.3982 5.45133 11.3982 4.96582C11.3982 4.48031 11.0046 4.08691 10.5193 4.08691H6.64551C5.25625 4.08691 4.12598 5.21719 4.12598 6.60645V48.0908C4.12598 49.4801 5.25625 50.6104 6.64551 50.6104H9.63379V53.0781C9.63379 54.3021 10.6296 55.2979 11.8536 55.2979H14.0869V58.3447H1.87891C1.39352 58.3447 1 58.7381 1 59.2236V63.208C1 63.6935 1.39352 64.0869 1.87891 64.0869H60.1211C60.6066 64.0869 61 63.6935 61 63.208V59.2236C61 58.7381 60.6066 58.3447 60.1211 58.3447ZM39.9443 53.0781V50.6104H50.6084V53.0781C50.6084 53.3329 50.4011 53.54 50.1464 53.54H40.4064C40.1516 53.54 39.9443 53.3327 39.9443 53.0781ZM44.3975 58.3447V55.2979H46.1553V58.3447H44.3975ZM11.3916 53.0781V50.6104H22.0557V53.0781C22.0557 53.3329 21.8484 53.54 21.5937 53.54H11.8536C11.5988 53.54 11.3916 53.3327 11.3916 53.0781ZM15.8447 55.2979H17.6025V58.3447H15.8447V55.2979Z" fill="#345995"/>
</g>
<defs>
<clipPath id="clip0">
<rect width="60" height="60" fill="white" transform="translate(0 0.0869141)"/>
</clipPath>
</defs>
</svg>
