<svg width="61" height="52" viewBox="0 0 61 52" fill="none" xmlns="http://www.w3.org/2000/svg">
<path d="M59.7878 22.3873L23.2247 1.27866C22.1749 0.674599 20.9284 0.511393 19.7584 0.824819C18.5885 1.13824 17.5905 1.90273 16.9832 2.95072L12.7738 10.2413L9.97155 15.0943C9.36713 16.1445 9.20388 17.3916 9.51759 18.562C9.8313 19.7324 10.5964 20.7306 11.645 21.3377L24.181 28.5749L22.2314 31.8993C21.9721 32.3393 21.6027 32.7042 21.1595 32.9581C20.7163 33.212 20.2146 33.3461 19.7039 33.3473H12.3847V27.7691C12.3847 27.5515 12.2983 27.3429 12.1444 27.189C11.9906 27.0352 11.7819 26.9487 11.5644 26.9487H7.11119V25.8903C7.11007 24.9271 6.72697 24.0037 6.04591 23.3227C5.36486 22.6416 4.44148 22.2585 3.47832 22.2574H1.01735C0.909603 22.2574 0.802903 22.2785 0.703349 22.3197C0.603795 22.3609 0.513338 22.4214 0.437152 22.4976C0.360965 22.5737 0.300543 22.6642 0.25934 22.7637C0.218136 22.8633 0.19696 22.97 0.197022 23.0777V50.883C0.19696 50.9908 0.218136 51.0975 0.25934 51.197C0.300543 51.2966 0.360965 51.387 0.437152 51.4632C0.513338 51.5394 0.603795 51.5998 0.703349 51.641C0.802903 51.6822 0.909603 51.7034 1.01735 51.7033H3.47832C4.44148 51.7022 5.36486 51.3191 6.04591 50.6381C6.72697 49.957 7.11007 49.0336 7.11119 48.0705V45.4646H11.5644C11.7819 45.4646 11.9906 45.3782 12.1444 45.2244C12.2983 45.0705 12.3847 44.8619 12.3847 44.6443V40.613H19.7039C21.481 40.6092 23.2264 40.1428 24.7685 39.2597C26.3106 38.3765 27.5962 37.1071 28.4987 35.5762L30.4736 32.2087L37.3451 36.1758C38.0369 36.5772 38.8224 36.789 39.6223 36.7898C40.0244 36.7897 40.4247 36.7367 40.813 36.6323C41.5591 36.4339 42.2424 36.0484 42.7981 35.5125C43.6969 35.9295 44.6757 36.146 45.6665 36.1472C46.2737 36.1468 46.8782 36.0667 47.4646 35.909C48.9603 35.5115 50.2773 34.6193 51.2011 33.3778L52.8811 34.3476C52.9744 34.4016 53.0774 34.4366 53.1843 34.4507C53.2911 34.4648 53.3997 34.4577 53.5038 34.4298C53.6079 34.4018 53.7055 34.3537 53.791 34.288C53.8764 34.2224 53.9481 34.1405 54.0019 34.0471L60.0864 23.509C60.1404 23.4157 60.1756 23.3127 60.1898 23.2059C60.2041 23.0991 60.1971 22.9905 60.1694 22.8863C60.1417 22.7821 60.0937 22.6844 60.0282 22.5988C59.9627 22.5132 59.881 22.4413 59.7878 22.3873ZM5.47054 48.0705C5.47004 48.5987 5.25999 49.1051 4.88648 49.4786C4.51298 49.8521 4.00654 50.0622 3.47832 50.0627H1.83767V23.8981H3.47832C4.00654 23.8986 4.51298 24.1086 4.88648 24.4821C5.25999 24.8556 5.47004 25.3621 5.47054 25.8903V48.0705ZM10.7441 43.824H7.11119V28.5894H10.7441V43.824ZM27.0831 34.7461C26.3259 36.0307 25.2474 37.096 23.9535 37.8371C22.6596 38.5782 21.195 38.9697 19.7039 38.9728H12.3847V34.9884H19.7039C20.5006 34.9867 21.2831 34.7775 21.9744 34.3815C22.6658 33.9855 23.2421 33.4163 23.6466 32.7299L25.6037 29.3961L29.0547 31.3883L27.0831 34.7461ZM38.1664 34.755L12.4653 19.9169C11.793 19.5278 11.3025 18.8879 11.1014 18.1376C10.9004 17.3873 11.0052 16.5878 11.3928 15.9147L13.7835 11.7723L37.3371 25.3709L44.5583 29.54L42.1672 33.6843L42.1639 33.6895C42.1015 33.7953 42.0325 33.8971 41.9572 33.9942V33.9974C41.5246 34.5619 40.9016 34.9499 40.2043 35.0893C39.5069 35.2286 38.7826 35.1098 38.1664 34.755ZM47.0432 34.3242C45.9687 34.6147 44.8295 34.5548 43.7914 34.1531L45.9819 30.3594L49.7756 32.5495C49.0768 33.4171 48.1192 34.0389 47.0423 34.3242H47.0432ZM52.9941 32.5148L47.6892 29.4519L46.0884 28.528L27.977 18.0719L14.6047 10.3515L18.404 3.77105C18.7933 3.09889 19.4333 2.60858 20.1836 2.40769C20.9339 2.2068 21.7332 2.31173 22.4063 2.69947L58.2568 23.3984L52.9941 32.5148Z" fill="#345995"/>
<path d="M49.4887 28.0555C49.9664 28.333 50.509 28.4794 51.0614 28.4798C51.3387 28.4795 51.6148 28.443 51.8827 28.371C52.5877 28.1822 53.2054 27.7548 53.6306 27.1615C54.0558 26.5683 54.2621 25.846 54.2145 25.1177C54.1668 24.3894 53.8681 23.7002 53.3693 23.1674C52.8704 22.6347 52.2022 22.2913 51.4786 22.196C50.755 22.1006 50.0208 22.2591 49.4009 22.6445C48.7811 23.0298 48.314 23.6181 48.0793 24.3092C47.8446 25.0003 47.8568 25.7514 48.1138 26.4345C48.3708 27.1176 48.8567 27.6905 49.4887 28.0555ZM49.7554 24.5666C49.8547 24.3945 49.987 24.2438 50.1448 24.1231C50.3025 24.0025 50.4826 23.9142 50.6747 23.8634C50.8031 23.8291 50.9355 23.8116 51.0684 23.8114C51.402 23.8115 51.7263 23.9216 51.991 24.1247C52.2556 24.3278 52.4458 24.6126 52.5321 24.9349C52.6184 25.2571 52.596 25.5989 52.4683 25.9071C52.3406 26.2153 52.1147 26.4727 51.8258 26.6395C51.5368 26.8062 51.2009 26.873 50.8702 26.8294C50.5394 26.7858 50.2323 26.6343 49.9964 26.3983C49.7606 26.1624 49.6092 25.8552 49.5657 25.5245C49.5222 25.1937 49.589 24.8578 49.7559 24.5689L49.7554 24.5666Z" fill="#345995"/>
<path d="M21.5254 19.7483L14.8034 15.8665C14.7101 15.8118 14.6069 15.7761 14.4997 15.7615C14.3925 15.7468 14.2835 15.7535 14.1789 15.7812C14.0743 15.8088 13.9762 15.8569 13.8903 15.9226C13.8043 15.9883 13.7322 16.0704 13.6781 16.1641C13.6241 16.2577 13.589 16.3612 13.5751 16.4685C13.5611 16.5758 13.5685 16.6848 13.5969 16.7892C13.6252 16.8936 13.674 16.9913 13.7402 17.0768C13.8065 17.1623 13.8891 17.2339 13.9831 17.2874L20.707 21.1687C20.8946 21.2668 21.1129 21.2885 21.3162 21.2294C21.5195 21.1702 21.6921 21.0347 21.7978 20.8513C21.9035 20.6678 21.9342 20.4506 21.8834 20.245C21.8327 20.0394 21.7044 19.8615 21.5254 19.7483Z" fill="#345995"/>
</svg>
