<svg width="22" height="13" viewBox="0 0 22 13" fill="none" xmlns="http://www.w3.org/2000/svg">
<path d="M21.0378 11.1108C21.0122 11.0559 20.9883 11.0103 20.9662 10.9739C20.5992 10.3166 19.898 9.50995 18.8629 8.55356L18.841 8.53166L18.8301 8.52092L18.819 8.50991H18.8079C18.3381 8.06457 18.0406 7.76512 17.916 7.61182C17.6881 7.31978 17.637 7.02417 17.7616 6.72466C17.8496 6.49836 18.1802 6.02045 18.7527 5.29028C19.0538 4.90331 19.2923 4.59317 19.4684 4.35951C20.7385 2.6803 21.2892 1.60727 21.1203 1.13999L21.0546 1.03079C21.0106 0.965049 20.8968 0.904907 20.7135 0.850059C20.5297 0.795326 20.2949 0.786274 20.0085 0.82275L16.8371 0.844536C16.7858 0.826432 16.7124 0.828119 16.6168 0.850059C16.5214 0.871998 16.4736 0.883006 16.4736 0.883006L16.4184 0.91043L16.3746 0.943378C16.3379 0.965163 16.2975 1.00348 16.2534 1.05825C16.2096 1.11283 16.1729 1.17689 16.1436 1.24988C15.7983 2.13324 15.4057 2.95455 14.9652 3.71375C14.6935 4.16646 14.444 4.5588 14.2162 4.891C13.9887 5.22308 13.7978 5.46775 13.6438 5.62458C13.4895 5.78157 13.3503 5.90734 13.2252 6.00235C13.1004 6.09739 13.0051 6.13755 12.9391 6.12286C12.8729 6.10817 12.8106 6.09359 12.7517 6.07902C12.6489 6.01328 12.5663 5.92387 12.504 5.81072C12.4415 5.69757 12.3994 5.55516 12.3773 5.3836C12.3554 5.21192 12.3425 5.06425 12.3388 4.94009C12.3353 4.81609 12.3369 4.64069 12.3444 4.41439C12.352 4.18798 12.3554 4.03479 12.3554 3.95447C12.3554 3.67701 12.3609 3.37588 12.3718 3.05101C12.3829 2.72614 12.3919 2.46874 12.3994 2.27911C12.4069 2.08928 12.4104 1.88846 12.4104 1.67673C12.4104 1.46501 12.3974 1.29897 12.3718 1.17846C12.3465 1.0581 12.3076 0.941268 12.2565 0.828004C12.205 0.714856 12.1296 0.627329 12.0307 0.565193C11.9316 0.503134 11.8084 0.453885 11.6618 0.417294C11.2727 0.329729 10.7772 0.28236 10.1751 0.274996C8.80968 0.260421 7.93234 0.348101 7.54325 0.537922C7.38909 0.618123 7.24958 0.727705 7.12485 0.866321C6.99267 1.02699 6.97423 1.11467 7.06966 1.1291C7.5102 1.19472 7.82207 1.35171 8.00562 1.59991L8.07177 1.73143C8.12322 1.82632 8.1746 1.99432 8.22601 2.23519C8.27735 2.47606 8.31048 2.74252 8.32506 3.0344C8.3617 3.56743 8.3617 4.0237 8.32506 4.40327C8.2883 4.78299 8.25359 5.07859 8.22046 5.29032C8.18733 5.50204 8.1378 5.6736 8.07177 5.80497C8.00562 5.93638 7.96162 6.01669 7.93955 6.04584C7.91753 6.07499 7.89917 6.09336 7.88459 6.10057C7.78917 6.13694 7.68993 6.15546 7.58722 6.15546C7.48436 6.15546 7.35962 6.1043 7.21283 6.00204C7.06607 5.89978 6.91376 5.75933 6.75589 5.58044C6.59803 5.40151 6.41999 5.15147 6.2217 4.83028C6.02357 4.50909 5.81799 4.12949 5.60509 3.69147L5.42894 3.37381C5.31883 3.16945 5.1684 2.87189 4.97752 2.48139C4.78653 2.09074 4.61771 1.71286 4.47095 1.34784C4.41229 1.19453 4.32415 1.07781 4.20671 0.997497L4.15159 0.96455C4.11495 0.9354 4.05613 0.904447 3.97545 0.871461C3.89464 0.838514 3.81033 0.814887 3.72216 0.80035L0.704898 0.822136C0.396573 0.822136 0.187371 0.891598 0.0772164 1.03033L0.0331313 1.09596C0.0111081 1.13251 0 1.19089 0 1.27124C0 1.35156 0.0220232 1.45013 0.0661083 1.56685C0.506573 2.59631 0.985569 3.58914 1.5031 4.54549C2.02062 5.50185 2.47035 6.27222 2.85199 6.85591C3.23371 7.44002 3.6228 7.99131 4.01926 8.50949C4.41572 9.02786 4.67815 9.36006 4.80654 9.506C4.9351 9.65221 5.03607 9.76153 5.10947 9.83452L5.38482 10.0973C5.56101 10.2725 5.81973 10.4824 6.16111 10.7269C6.50257 10.9716 6.88059 11.2125 7.29536 11.4499C7.71022 11.687 8.19284 11.8805 8.7435 12.0301C9.29408 12.1799 9.82997 12.24 10.3512 12.211H11.6176C11.8745 12.1889 12.069 12.1086 12.2013 11.97L12.2451 11.9151C12.2746 11.8715 12.3022 11.8038 12.3276 11.7127C12.3534 11.6215 12.3662 11.521 12.3662 11.4116C12.3587 11.0978 12.3827 10.8149 12.4376 10.563C12.4925 10.3113 12.5551 10.1215 12.625 9.99361C12.695 9.86589 12.7739 9.75811 12.8617 9.67074C12.9497 9.58317 13.0124 9.53013 13.0492 9.51187C13.0858 9.4935 13.115 9.48103 13.137 9.47355C13.3132 9.41518 13.5205 9.47171 13.7594 9.64343C13.998 9.81499 14.2218 10.0268 14.4312 10.2786C14.6404 10.5306 14.8918 10.8133 15.1854 11.1272C15.4792 11.4411 15.7361 11.6745 15.9562 11.8281L16.1764 11.9595C16.3234 12.0472 16.5143 12.1275 16.7492 12.2005C16.9838 12.2734 17.1893 12.2917 17.3657 12.2552L20.1847 12.2115C20.4635 12.2115 20.6804 12.1656 20.8343 12.0745C20.9885 11.9832 21.0801 11.8827 21.1097 11.7733C21.1392 11.6639 21.1407 11.5397 21.1153 11.4008C21.0892 11.2623 21.0634 11.1655 21.0378 11.1108Z" fill="white"/>
</svg>
