<svg width="22" height="16" viewBox="0 0 22 16" fill="none" xmlns="http://www.w3.org/2000/svg">
<path d="M21.155 2.62056C20.906 1.7028 20.1764 0.979372 19.2513 0.732238C17.561 0.273438 10.7998 0.273438 10.7998 0.273438C10.7998 0.273438 4.03878 0.273438 2.34848 0.714749C1.44113 0.961719 0.693784 1.70296 0.44478 2.62056C0 4.29689 0 7.77344 0 7.77344C0 7.77344 0 11.2675 0.44478 12.9263C0.693949 13.8439 1.42333 14.5675 2.34865 14.8146C4.05657 15.2734 10.8 15.2734 10.8 15.2734C10.8 15.2734 17.561 15.2734 19.2513 14.8321C20.1766 14.5852 20.906 13.8616 21.1551 12.944C21.5999 11.2675 21.5999 7.79109 21.5999 7.79109C21.5999 7.79109 21.6177 4.29689 21.155 2.62056Z" fill="white"/>
<path d="M9 11.0742L14.4 7.77344L9 4.47266V11.0742Z" fill="#3D3D3D"/>
</svg>
