<svg width="16" height="17" viewBox="0 0 16 17" fill="none" xmlns="http://www.w3.org/2000/svg">
<path d="M4.44444 0.273438C1.99022 0.273438 0 2.26366 0 4.71788V11.829C0 14.2832 1.99022 16.2734 4.44444 16.2734H11.5556C14.0098 16.2734 16 14.2832 16 11.829V4.71788C16 2.26366 14.0098 0.273438 11.5556 0.273438H4.44444ZM13.3333 2.05122C13.824 2.05122 14.2222 2.44944 14.2222 2.9401C14.2222 3.43077 13.824 3.82899 13.3333 3.82899C12.8427 3.82899 12.4444 3.43077 12.4444 2.9401C12.4444 2.44944 12.8427 2.05122 13.3333 2.05122ZM8 3.82899C10.4542 3.82899 12.4444 5.81922 12.4444 8.27344C12.4444 10.7277 10.4542 12.7179 8 12.7179C5.54578 12.7179 3.55556 10.7277 3.55556 8.27344C3.55556 5.81922 5.54578 3.82899 8 3.82899ZM8 5.60677C7.29276 5.60677 6.61448 5.88772 6.11438 6.38782C5.61428 6.88792 5.33333 7.56619 5.33333 8.27344C5.33333 8.98068 5.61428 9.65896 6.11438 10.1591C6.61448 10.6592 7.29276 10.9401 8 10.9401C8.70724 10.9401 9.38552 10.6592 9.88562 10.1591C10.3857 9.65896 10.6667 8.98068 10.6667 8.27344C10.6667 7.56619 10.3857 6.88792 9.88562 6.38782C9.38552 5.88772 8.70724 5.60677 8 5.60677Z" fill="white"/>
</svg>
