<svg width="46" height="43" viewBox="0 0 46 43" fill="none" xmlns="http://www.w3.org/2000/svg">
<path d="M44.5449 16.0817C44.2215 15.8346 43.8173 15.6698 43.413 15.5051C40.8261 6.77442 32.8225 0.761719 23.9297 0.761719C12.6924 0.761719 3.55713 10.069 3.55713 21.5178C3.55713 22.3414 3.638 23.1651 3.71881 23.9888C2.03426 25.6062 0.805943 27.654 0.161681 29.9191L0 30.4133L0.485043 30.2486C0.808406 30.1662 1.13177 30.0015 1.4552 29.9191C2.58704 29.5073 3.79968 29.0955 4.85064 28.766C7.84185 36.8378 15.4411 42.2739 23.9297 42.2739C35.167 42.2739 44.3023 32.9667 44.3023 21.5178C44.3023 20.9412 44.3023 20.2823 44.2214 19.7058C45.1107 19.3763 45.6766 19.0469 45.8383 18.5526L45.9191 18.4702V18.3879C45.9191 18.3055 46 18.2232 46 18.0585C46.0001 17.3996 45.515 16.6583 44.5449 16.0817ZM15.9262 11.2221L15.8453 10.4808L15.7644 10.2337L15.5219 9.65714L15.3602 9.49241L14.8752 8.83352L14.7135 8.66879L14.2284 8.00989L14.0667 7.76277C14.0667 7.76277 13.9051 7.51565 13.9051 7.35092C14.3093 6.28017 17.6239 5.786 21.7469 5.786C24.4148 5.786 27.3252 5.95073 30.0738 6.36257C32.7417 6.77442 35.1669 7.2686 36.7838 7.92749C37.9157 8.42167 38.5624 8.91591 38.5624 9.49241C38.3198 10.069 37.9157 10.4808 37.5922 10.8926C37.0263 11.5515 36.5413 12.2105 36.2179 13.1988C29.9121 11.9634 22.6362 11.4692 16.0071 11.7163H15.9262C15.9433 11.6042 15.9703 11.4939 16.0071 11.3869L15.9262 11.2221ZM18.2707 18.4703C18.4324 18.1409 18.594 17.9761 18.8366 17.729C19.3003 17.2566 19.8911 16.9349 20.5342 16.8046C21.1774 16.6742 21.844 16.7411 22.4498 16.9968C23.0557 17.2525 23.5735 17.6854 23.9378 18.2409C24.3021 18.7964 24.4965 19.4495 24.4965 20.1176C24.4965 20.7857 24.3021 21.4388 23.9378 21.9943C23.5735 22.5498 23.0557 22.9828 22.4498 23.2384C21.844 23.4941 21.1774 23.561 20.5342 23.4307C19.8911 23.3003 19.3003 22.9786 18.8366 22.5062C18.109 21.7649 17.7048 20.6118 17.9473 19.541L18.0282 19.2116C18.084 18.9567 18.1652 18.7083 18.2707 18.4703ZM15.4411 16.8229C15.1986 17.3171 15.0369 18.0584 14.9561 18.635C13.9051 18.3878 12.8542 18.2231 11.9649 17.9761C8.65033 17.07 6.5484 16.164 6.46753 15.3404C8.56945 14.8462 12.2075 14.5991 16.573 14.6815C16.0879 15.2581 15.6837 16.0817 15.4411 16.8229ZM15.2795 23.9064C12.0457 23.9064 9.37786 24.5653 7.11425 25.5537C4.85064 26.5421 2.99121 27.9424 1.13184 29.4249C0.970157 29.5073 0.808475 29.5073 0.7276 29.5896C1.48503 27.1463 2.9856 25.0117 5.01233 23.4946C7.35681 21.6825 10.6714 20.2823 15.1178 19.3763H15.3603V18.7174C15.6837 18.7174 16.0879 18.7174 16.4113 18.7998C16.7347 18.8822 17.058 18.9646 17.3815 19.2117C17.1389 20.5295 17.4623 21.8473 18.4324 22.8358C19.8876 24.3184 22.3938 24.3184 23.8489 22.8358C25.304 21.3532 25.3041 18.7998 23.8489 17.3173C22.3937 15.8348 20.0492 15.8347 18.5132 17.2349C18.109 17.0702 17.6239 16.9055 17.2197 16.7407C16.8155 16.6583 16.4113 16.6583 16.0071 16.6583C16.3304 15.917 16.6538 15.2581 17.058 14.6816C20.0492 14.764 23.3638 14.9287 26.6784 15.1757C27.0827 15.1757 27.4868 15.2581 27.8103 15.2581C27.4869 16.7407 27.1636 18.1409 26.6784 19.5411C26.1934 20.859 25.7083 22.0945 25.1424 23.0828C24.8191 23.6594 24.4148 24.1536 24.0106 24.7301C23.6064 25.2243 23.2022 25.8009 22.7171 26.295C20.5343 28.2718 17.8664 28.6011 15.1986 28.1071C15.1177 28.0247 15.0369 27.86 14.956 27.7776L14.7135 27.2835V27.1187H14.5518C14.5079 27.1243 14.4633 27.1198 14.4214 27.1055C14.3794 27.0912 14.3411 27.0676 14.3092 27.0363H14.0667C13.905 27.0363 13.7433 26.9539 13.5816 26.9539H10.9947C10.8027 26.9461 10.611 26.974 10.4288 27.0363H10.1863C10.0246 27.0363 9.78203 27.1187 9.62034 27.1187H9.37779C9.21611 27.1187 8.97355 27.2011 8.81187 27.2011L8.56931 27.2835C8.45611 27.2799 8.34416 27.3085 8.24595 27.3659H8.08427L7.84171 27.4483C7.68003 27.4483 7.51835 27.5307 7.35667 27.5307H7.11411C6.95243 27.5307 6.79075 27.6131 6.70987 27.6131L6.46732 27.6955C6.30563 27.6955 6.22476 27.7779 6.06308 27.7779L5.73993 27.9424C5.59002 27.9455 5.44634 28.004 5.33569 28.1071L5.09313 28.1895C4.28473 28.4366 3.55713 28.6837 2.74865 28.9308C4.20385 27.86 5.65905 26.8716 7.43761 26.048C9.62041 25.0596 12.2074 24.4007 15.3603 24.4007C15.522 24.4007 15.6028 24.3183 15.6028 24.1536C15.5219 23.9888 15.4411 23.9064 15.2795 23.9064ZM28.6995 18.635C28.8612 18.7174 28.942 18.635 29.0228 18.5526C29.2654 18.1407 29.3462 17.7289 29.5079 17.1524C29.5887 16.6582 29.6696 16.0816 29.7505 15.4227C30.0738 15.4227 30.3164 15.5051 30.6397 15.5051C29.993 20.2823 29.1845 25.2242 25.7891 29.0954C24.8998 30.1662 23.8488 30.9075 22.717 31.4841C21.2618 32.143 19.079 32.4725 17.4622 32.143C16.8155 31.9782 16.4112 31.6488 16.1687 31.3193C16.0039 31.0474 15.9197 30.7328 15.9261 30.4133C16.65 30.689 17.4169 30.8285 18.1897 30.8252C18.9173 30.7428 19.564 30.578 20.5342 30.1663C20.6959 30.0839 20.6959 30.0015 20.6959 29.8368C20.615 29.6721 20.5342 29.6721 20.3725 29.6721C19.4832 30.0015 18.8365 30.2487 18.1897 30.2487C17.5429 30.2487 16.8154 30.1663 15.8452 29.8368C15.5219 29.6721 15.2793 29.425 15.1985 29.1779C15.1177 28.966 15.1177 28.7309 15.1985 28.519C18.4323 29.1779 21.1001 28.519 23.202 26.6246C23.3637 26.5422 23.4446 26.3774 23.6063 26.2951C24.4601 25.4101 25.1942 24.4129 25.7891 23.3299V23.0828V22.8357L25.87 22.7533L25.9508 22.5886L26.0317 22.5062C26.1126 22.4238 26.1126 22.3414 26.1934 22.1767C26.5168 21.4354 26.921 20.5294 27.1636 19.6234C27.6096 18.2712 27.9874 16.8967 28.2954 15.5051L28.3763 15.258C28.6996 15.258 28.9422 15.3404 29.2655 15.3404C29.1847 15.9993 29.1039 16.5759 29.023 16.9877C28.9421 17.4819 28.7804 17.8937 28.6187 18.3056C28.5378 18.3879 28.5378 18.5526 28.6995 18.635ZM32.0141 34.0373L32.1757 36.1788L23.1212 41.6973H23.0404L23.283 41.4502C25.0616 39.3087 26.9209 37.2496 28.5378 34.9433C29.2654 33.8726 29.993 32.8842 30.7206 31.7311L30.8015 31.6487V31.4016L30.8824 31.3192L30.9632 31.2368C31.5293 30.3308 32.0952 29.3424 32.6609 28.2716C32.8226 28.0245 32.9843 27.7774 33.0652 27.448L33.4694 28.6834L33.6311 29.3424L34.9246 33.6253L32.1759 33.7077H31.9333L32.0141 34.0373ZM16.6538 37.4144L16.4921 36.3436L18.3515 34.9434L17.7856 38.5675L17.4622 40.5443C17.3813 40.5443 17.3005 40.4619 17.1388 40.4619L16.6538 37.4144ZM16.6538 40.2971C16.0071 40.05 15.4411 39.7206 14.7944 39.4735L16.2495 38.0733L16.6538 40.2971ZM18.2707 38.7322L18.6749 38.4028L18.9175 38.8969L18.4324 40.8737C18.2707 40.7914 18.1091 40.7914 17.9474 40.709L18.2707 38.7322ZM18.3515 38.0733L18.6749 36.1789C18.7558 36.2612 18.8366 36.426 18.9175 36.5083C19.0791 36.7555 19.3217 36.9202 19.5642 37.1672L18.3515 38.0733ZM20.4535 39.1441L20.9385 38.2378L23.6064 40.2146C23.283 40.5441 23.0404 40.8735 22.7171 41.203C22.5554 41.3678 22.4745 41.5325 22.3128 41.6149C21.7469 41.5326 21.2619 41.5326 20.696 41.4502L20.4535 39.1441ZM20.6152 37.332C21.4236 37.2497 22.1512 37.0849 22.8788 36.9202C24.8999 36.3436 26.5976 35.4376 28.0528 34.1198C28.4769 33.7577 28.8817 33.3728 29.2654 32.9666C28.8612 33.5432 28.5378 34.1198 28.1336 34.614C27.7293 35.1081 27.3252 35.6847 26.9209 36.1789C26.0316 37.332 25.0615 38.4851 24.0914 39.6383H23.8488L20.6152 37.332ZM32.9033 21.1884C32.6608 22.918 32.6608 24.5653 32.9033 26.7892C32.0141 28.4365 31.1248 30.0015 30.0738 31.3193C29.2654 32.3078 28.4569 33.2138 27.4868 34.0374C26.1125 35.1081 24.5764 36.0142 22.7979 36.5083C21.8987 36.7596 20.9785 36.9251 20.0492 37.0025L19.3216 36.2612C19.1083 36.0348 18.9186 35.7863 18.7557 35.5199C18.7557 35.3552 18.8366 35.2728 18.8366 35.1081C18.9983 34.3668 19.0791 33.6255 18.9983 32.8842H19.8875C20.1301 32.8842 20.2918 32.8842 20.4535 32.8018H20.696C20.8577 32.8018 21.1003 32.7194 21.2619 32.7194L21.5045 32.637C21.6662 32.5546 21.9087 32.5546 22.0704 32.4723L22.313 32.3899L22.798 32.1427L23.0406 32.0603L23.5256 31.8132L23.7682 31.6485C23.9299 31.5661 24.0915 31.4014 24.2532 31.319L24.4958 31.1543C24.6575 31.0719 24.7383 30.9072 24.9 30.8249L25.1426 30.5778C25.3043 30.4954 25.3851 30.3306 25.5468 30.2483L25.7894 30.0012C25.951 29.8365 26.0319 29.7541 26.1127 29.5893L26.3553 29.2599C26.517 29.0952 26.5978 28.9304 26.7595 28.7657L27.0021 28.4363C28.6998 26.0476 29.9933 22.6707 30.7209 18.5524C30.8826 17.6464 31.0442 16.7404 31.1251 15.752C32.1761 15.8344 33.227 15.9991 34.1972 16.1639C33.6308 17.8937 33.1459 19.541 32.9033 21.1884ZM24.0914 41.6973L32.5798 36.5083L32.7415 36.4259V36.2612L32.5798 34.2844L35.3286 34.202H35.6519L35.571 33.7902L34.4394 30.0839L39.4517 34.0374C35.8946 38.6498 30.3164 41.615 24.0914 41.6973ZM39.5329 20.1176C37.8352 20.2823 35.8141 20.3647 33.5505 20.3647C33.793 19.0469 34.2781 17.6467 34.7631 15.9994C39.3712 16.6583 43.2517 17.482 45.2727 18.4703C44.8682 19.2116 42.7663 19.7882 39.5329 20.1176ZM35.0056 15.5052L34.7631 15.4228C32.2569 14.9286 29.4274 14.7639 26.8404 14.5992C18.5943 13.9403 10.3483 13.8579 6.54861 14.7639C6.95285 13.6931 9.05477 13.0342 11.8034 12.6224C12.9353 12.4577 14.1479 12.3753 15.3605 12.2929H15.5222C22.879 11.9635 32.6611 12.6224 40.5029 14.8463C42.0389 15.3405 43.3324 15.8347 44.2217 16.4112C44.9493 16.9054 45.4344 17.3996 45.4344 17.8938C43.413 16.9877 39.5332 16.1642 35.0056 15.5052Z" fill="white"/>
<path d="M20.6912 20.3235C21.0408 20.3235 21.2156 20.2083 21.2738 19.978C21.5068 20.0356 21.9147 20.0356 22.0895 20.1508C21.9147 20.4963 20.866 20.6115 20.5164 20.6115C20.3998 20.6115 20.3416 20.6691 20.3416 20.7843C20.3416 20.8995 20.3999 20.9571 20.5164 20.957C20.9825 20.957 22.4391 20.7842 22.4391 20.1507V20.0932C22.4391 19.69 22.2061 19.402 21.9147 19.1717C21.5651 18.9413 21.099 18.8261 20.5747 18.7109C20.4581 18.7109 20.3999 18.7685 20.3999 18.8837C20.3999 18.9989 20.4581 19.0565 20.5747 19.0565C21.0408 19.1141 21.4486 19.2293 21.7399 19.4021C21.8564 19.5173 21.973 19.6324 22.0313 19.7476C21.9147 19.7476 21.8564 19.69 21.7399 19.69C21.3182 19.5975 20.8895 19.5398 20.4581 19.5172C20.0503 19.5173 20.1086 20.3235 20.6912 20.3235Z" fill="white"/>
</svg>
