<svg width="104" height="74" viewBox="0 0 104 74" fill="none" xmlns="http://www.w3.org/2000/svg">
<path d="M101.721 54.5679C101.721 56.8669 101.279 59.166 100.394 61.4651C99.5102 63.7641 98.1838 65.8864 96.4153 67.8318C94.6468 69.6003 92.4362 71.1035 89.7834 72.3415C87.3074 73.4026 84.4778 73.9331 81.2945 73.9331C77.7574 73.9331 74.3088 73.3142 70.9486 72.0762C67.7653 70.6614 65.0241 68.716 62.725 66.2401C60.7797 63.941 59.2764 61.1998 58.2153 58.0165C57.1542 54.8331 56.6236 51.4729 56.6236 47.9359C56.6236 41.2155 57.7732 35.0257 60.0723 29.3665C62.5482 23.7072 65.9968 18.6669 70.4181 14.2456C72.3635 12.3003 74.5741 10.5317 77.05 8.94006C79.526 7.17155 81.825 5.75673 83.9473 4.69563C86.2463 3.45766 88.1917 2.48497 89.7834 1.77758C91.375 1.07017 92.3477 0.628032 92.7014 0.451172L103.313 16.1026C101.367 16.81 99.1565 17.7827 96.6806 19.0206C94.3815 20.0817 92.1709 21.4966 90.0487 23.2651C87.9264 24.8567 86.1579 26.8021 84.7431 29.1012C83.3283 31.4003 82.5324 34.053 82.3556 37.0595C87.4843 37.0595 91.994 38.5628 95.8848 41.5692C99.7755 44.5757 101.721 48.9086 101.721 54.5679ZM45.7473 54.5679C45.7473 56.8669 45.3051 59.166 44.4209 61.4651C43.5366 63.7641 42.2102 65.8864 40.4417 67.8318C38.6732 69.6003 36.4625 71.1035 33.8098 72.3415C31.3338 73.4026 28.5042 73.9331 25.3209 73.9331C21.7838 73.9331 18.3352 73.3142 14.975 72.0762C11.7917 70.6614 9.05049 68.716 6.75142 66.2401C4.80605 63.941 3.3028 61.1998 2.24169 58.0165C1.18058 54.8331 0.650024 51.4729 0.650024 47.9359C0.650024 41.2155 1.79956 35.0257 4.09864 29.3665C6.57456 23.7072 10.0232 18.6669 14.4445 14.2456C16.3898 12.3003 18.6005 10.5317 21.0764 8.94006C23.5523 7.17155 25.8514 5.75673 27.9736 4.69563C30.2727 3.45766 32.2181 2.48497 33.8098 1.77758C35.4014 1.07017 36.3741 0.628032 36.7278 0.451172L47.3389 16.1026C45.3935 16.81 43.1829 17.7827 40.707 19.0206C38.4079 20.0817 36.1973 21.4966 34.075 23.2651C31.9528 24.8567 30.1843 26.8021 28.7695 29.1012C27.3547 31.4003 26.5588 34.053 26.382 37.0595C31.5107 37.0595 36.0204 38.5628 39.9111 41.5692C43.8019 44.5757 45.7473 48.9086 45.7473 54.5679Z" fill="#345995" fill-opacity="0.1"/>
</svg>
