<svg width="60" height="61" viewBox="0 0 60 61" fill="none" xmlns="http://www.w3.org/2000/svg">
<path d="M15.3414 14.4235L15.3411 14.4238C15.1496 14.6155 14.8396 14.6194 14.6427 14.4321L8.65035 8.43972C8.46305 8.24285 8.46694 7.93285 8.65861 7.74137L8.65897 7.74101C8.85045 7.54934 9.16045 7.54544 9.35732 7.73274L15.3497 13.7251C15.537 13.922 15.5331 14.232 15.3414 14.4235Z" fill="#345995" stroke="#345995"/>
<path d="M9.00012 29.583C9.27606 29.583 9.50013 29.8069 9.50013 30.083C9.50013 30.3591 9.27606 30.583 9.00012 30.583H1.00001C0.723805 30.583 0.5 30.3592 0.5 30.083C0.5 29.8068 0.723805 29.583 1.00001 29.583H9.00012Z" fill="#345995" stroke="#345995"/>
<path d="M8.64032 51.7361L8.64038 51.7362L8.64661 51.73L14.6426 45.7336C14.8393 45.5465 15.1494 45.5503 15.3412 45.742C15.5332 45.934 15.5368 46.2438 15.3496 46.4405L9.35356 52.437L9.35351 52.4369L9.34768 52.4429C9.22195 52.573 9.03597 52.625 8.86144 52.5792L8.86043 52.5789C8.68621 52.5335 8.54981 52.3974 8.50412 52.2226L8.50399 52.2221C8.45821 52.0478 8.51045 51.8615 8.64032 51.7361Z" fill="#345995" stroke="#345995"/>
<path d="M55.7248 35.8727L55.7214 35.8749C53.815 37.107 51.5781 37.7279 49.3092 37.6545C42.4722 37.5615 36.9983 31.9535 37.0709 25.1151C37.0709 25.115 37.0709 25.1149 37.0709 25.1147L37.5709 25.1201C37.6146 20.0536 40.7194 15.5176 45.4257 13.6422L55.7248 35.8727ZM55.7248 35.8727C55.9035 35.7551 56.1375 35.7642 56.3065 35.8953L55.7248 35.8727ZM29.5001 13.2109V12.6476L28.9408 12.7144C20.1423 13.7655 13.5136 21.221 13.4999 30.0822L13.4999 30.0838C13.5136 38.945 20.1423 46.4005 28.9408 47.4516L29.5001 47.5184V46.9551V13.2109ZM30.5001 44.6105V44.8875L39.6069 47.0828L39.6039 47.5828C39.6043 47.5828 39.6047 47.5828 39.6051 47.5828C45.8372 47.619 51.5661 44.1656 54.4435 38.6374L55.0225 37.5251L53.837 37.9339C52.3878 38.4336 50.862 38.6764 49.3286 38.6519L49.3264 38.6519C41.9337 38.5672 36.0039 32.5144 36.0708 25.1217C36.1216 20.484 38.45 16.167 42.2981 13.5777L43.4871 12.7777L42.0585 12.6644C41.2215 12.5981 40.3835 12.5828 39.6069 12.5828H39.6067C36.4692 12.584 33.3949 13.4666 30.7349 15.1312L30.5001 15.2781V15.5551V44.6105Z" fill="#345995" stroke="#345995"/>
<path d="M59.4739 21.5093L59.4744 21.5109C59.5346 21.6885 59.49 21.8858 59.3579 22.021L59.3577 22.0212L56.7101 24.7341L56.5337 24.9148L56.5744 25.1639L57.2014 29.0025C57.2251 29.1481 57.1838 29.2953 57.0894 29.4058L57.0881 29.4072C56.9933 29.5191 56.8546 29.5834 56.7077 29.5834L56.7066 29.5834C56.6241 29.5836 56.5416 29.5623 56.4677 29.5213L56.4668 29.5208L53.2417 27.7383L52.9995 27.6045L52.7575 27.7386L49.533 29.5254C49.5329 29.5255 49.5328 29.5255 49.5327 29.5256C49.3659 29.6176 49.1608 29.6065 49.0039 29.4965C48.8475 29.3859 48.7678 29.1959 48.7984 29.0073C48.7984 29.0073 48.7984 29.0073 48.7984 29.0072L49.4253 25.1638L49.4659 24.9148L49.2898 24.7342L46.6386 22.0158C46.6386 22.0158 46.6386 22.0158 46.6386 22.0158C46.5082 21.8821 46.4635 21.6862 46.523 21.5093L46.523 21.5091C46.5827 21.3313 46.7365 21.2019 46.9215 21.1736L46.9215 21.1736L50.5396 20.6197L50.8032 20.5793L50.9165 20.3379L52.5442 16.8711L52.5443 16.8711C52.6265 16.6958 52.8026 16.584 52.9967 16.584C53.1908 16.584 53.3669 16.6958 53.4492 16.8711L53.4492 16.8711L55.077 20.3379L55.1903 20.5793L55.4539 20.6197L59.0719 21.1736L59.0738 21.1739C59.2598 21.2016 59.4141 21.331 59.4739 21.5093ZM55.6417 24.3927L55.6419 24.3925L57.2825 22.7101L57.9615 22.0138L57.0001 21.8668L54.7786 21.5269L54.778 21.5268C54.6132 21.5018 54.4723 21.3965 54.4019 21.2462L54.4017 21.2457L53.4524 19.2246L52.9999 18.261L52.5473 19.2246L51.5981 21.2457L51.5981 21.2457C51.5271 21.3968 51.3862 21.5019 51.2217 21.5268L51.2211 21.5269L48.9996 21.8668L48.0383 22.0138L48.7172 22.7101L50.3579 24.3925L50.358 24.3927C50.4688 24.5062 50.5188 24.6653 50.4932 24.8208L50.4931 24.8215L50.1161 27.1317L49.9503 28.1478L50.8514 27.6499L52.7587 26.5961C52.9091 26.5131 53.0907 26.5131 53.2411 26.5961L55.1483 27.6499L56.0494 28.1478L55.8836 27.1317L55.5066 24.8215L55.5065 24.8208C55.4809 24.6653 55.5309 24.5062 55.6417 24.3927ZM49.6829 22.268L51.2967 22.0212L51.1664 26.9046L51.1031 27.2928L50.6096 27.2122L50.3678 26.7746L50.712 26.5844L50.9866 24.9021C51.0381 24.5892 50.9373 24.2704 50.7159 24.0435L49.5044 22.8012L49.1508 22.8553L49.0752 22.361L49.4332 22.0119L49.6829 22.268Z" fill="#345995" stroke="#345995"/>
</svg>
