<svg width="60" height="61" viewBox="0 0 60 61" fill="none" xmlns="http://www.w3.org/2000/svg">
<path d="M28.1992 52.2125C28.1992 51.2198 29.004 50.415 29.9967 50.415C30.9894 50.415 31.7941 51.2196 31.7941 52.2125V58.0338C31.7941 59.0265 30.9896 59.8312 29.9967 59.8312C29.004 59.8312 28.1992 59.0264 28.1992 58.0338V52.2125Z" fill="#345995" stroke="white" stroke-width="0.5"/>
<path d="M31.7941 7.9523C31.7941 8.94499 30.9896 9.74975 29.9967 9.74975C29.004 9.74975 28.1992 8.94496 28.1992 7.9523V2.13045C28.1992 1.13779 29.004 0.333008 29.9967 0.333008C30.9896 0.333008 31.7941 1.13777 31.7941 2.13045V7.9523Z" fill="#345995" stroke="white" stroke-width="0.5"/>
<path d="M8.96299 48.5743L8.96298 48.5743C8.2608 49.276 8.26056 50.4141 8.96222 51.116C9.31342 51.4672 9.77317 51.6428 10.2337 51.6428C10.6939 51.6428 11.1532 51.4675 11.5044 51.1167L15.6222 47.0012L15.6222 47.0011C16.3244 46.2994 16.3246 45.1613 15.6229 44.4594C15.6229 44.4594 15.6229 44.4594 15.6229 44.4594M8.96299 48.5743L15.6229 44.4594M8.96299 48.5743L13.0808 44.4586M8.96299 48.5743L13.0808 44.4586M15.6229 44.4594C14.9206 43.7571 13.7827 43.7572 13.0808 44.4586M15.6229 44.4594L13.0808 44.4586" fill="#345995" stroke="white" stroke-width="0.5"/>
<path d="M48.4933 9.04607L48.4932 9.04611L44.376 13.1617C43.674 13.8635 43.6738 15.0016 44.3755 15.7036L44.3756 15.7036C44.7264 16.0549 45.186 16.2303 45.6466 16.2303C46.1069 16.2303 46.5664 16.055 46.9176 15.704L46.9176 15.704M48.4933 9.04607L47.0943 15.8808L46.9176 15.704M48.4933 9.04607C49.1955 8.34387 50.3333 8.34409 51.0353 9.04629L48.4933 9.04607ZM46.9176 15.704L51.0348 11.5884M46.9176 15.704L51.0348 11.5884M51.0348 11.5884C51.0348 11.5884 51.0348 11.5884 51.0349 11.5884M51.0348 11.5884L51.0349 11.5884M51.0349 11.5884C51.7368 10.8864 51.737 9.74853 51.0353 9.04632L51.0349 11.5884Z" fill="#345995" stroke="white" stroke-width="0.5"/>
<path d="M7.86874 28.2852C8.86141 28.2852 9.66619 29.0899 9.66619 30.0826C9.66619 31.0753 8.86141 31.88 7.86874 31.88H2.04745C1.05478 31.88 0.25 31.0753 0.25 30.0826C0.25 29.0899 1.05478 28.2852 2.04745 28.2852H7.86874Z" fill="#345995" stroke="white" stroke-width="0.5"/>
<path d="M52.1285 28.2852H57.9525C58.9454 28.2852 59.75 29.0902 59.75 30.0826C59.75 31.0753 58.9455 31.88 57.9525 31.88H52.1285C51.1356 31.88 50.3311 31.0753 50.3311 30.0826C50.3311 29.0899 51.1356 28.2852 52.1285 28.2852Z" fill="#345995" stroke="white" stroke-width="0.5"/>
<path d="M8.96471 9.046L8.96474 9.04597C9.6664 8.34407 10.8045 8.34402 11.5065 9.046L15.6222 13.1616C16.3241 13.8636 16.3241 15.0018 15.6222 15.7037C15.2713 16.0546 14.8116 16.23 14.3513 16.23C13.8909 16.23 13.4312 16.0546 13.0804 15.7037C13.0803 15.7037 13.0803 15.7037 13.0803 15.7037L8.96471 11.5878L8.96468 11.5878C8.26277 10.8861 8.26272 9.74799 8.96471 9.046Z" fill="#345995" stroke="white" stroke-width="0.5"/>
<path d="M44.3779 44.459L44.3779 44.459C45.0798 43.757 46.218 43.7572 46.92 44.4592C46.92 44.4592 46.92 44.4592 46.92 44.4592L51.0351 48.5749L51.0351 48.5749C51.737 49.2766 51.7371 50.4147 51.0348 51.1166L51.0348 51.1167C50.684 51.4675 50.2242 51.6429 49.7639 51.6429C49.3034 51.6429 48.8439 51.4676 48.4927 51.1164C48.4927 51.1164 48.4927 51.1164 48.4927 51.1164L44.3776 47.0008L44.3776 47.0007C43.6757 46.2991 43.6757 45.161 44.3779 44.459Z" fill="#345995" stroke="white" stroke-width="0.5"/>
<path d="M14.3135 30.083C14.3135 21.4337 21.3502 14.3965 29.9989 14.3965C38.6482 14.3965 45.6857 21.4337 45.6857 30.083C45.6857 38.732 38.6485 45.7689 29.9989 45.7689C21.3501 45.7689 14.3135 38.732 14.3135 30.083ZM17.9084 30.083C17.9084 36.7502 23.3319 42.1741 29.9989 42.1741C36.6667 42.1741 42.0908 36.7502 42.0908 30.083C42.0908 23.4155 36.6667 17.9914 29.9989 17.9914C23.3319 17.9914 17.9084 23.4155 17.9084 30.083Z" fill="#345995" stroke="white" stroke-width="0.5"/>
</svg>
