<svg width="193" height="193" viewBox="0 0 193 193" fill="none" xmlns="http://www.w3.org/2000/svg">
<path d="M0 186.684V171.36C0 169.215 1.16739 167.239 3.04662 166.205L13.6231 160.384C15.388 159.412 17.5272 159.411 19.2929 160.381L29.898 166.206C31.7798 167.24 32.9492 169.216 32.9492 171.363V186.684C32.9492 189.934 30.3149 192.568 27.0654 192.568H5.88379C2.63426 192.568 0 189.934 0 186.684Z" fill="#345995"/>
<path d="M22.5141 180.815C23.1468 181.212 23.3445 182.056 22.855 182.621C22.1712 183.409 21.3505 184.074 20.429 184.579C19.1105 185.302 17.6292 185.677 16.1254 185.668C14.6215 185.659 13.145 185.266 11.8356 184.526C10.9204 184.009 10.108 183.335 9.43396 182.538C8.95153 181.967 9.15964 181.126 9.79718 180.736C10.4347 180.346 11.2585 180.561 11.7784 181.098C12.1856 181.518 12.6526 181.88 13.1663 182.17C14.0746 182.683 15.0989 182.956 16.1421 182.962C17.1853 182.969 18.2129 182.709 19.1275 182.207C19.6448 181.923 20.1162 181.567 20.5286 181.152C21.0551 180.622 21.8815 180.417 22.5141 180.815Z" fill="white"/>
<path fill-rule="evenodd" clip-rule="evenodd" d="M23.0061 182.752C22.3068 183.559 21.4675 184.238 20.5251 184.755C19.1768 185.495 17.662 185.878 16.1241 185.868C14.5862 185.859 13.0762 185.457 11.7371 184.7C10.8012 184.172 9.97044 183.482 9.28117 182.667C8.70594 181.987 8.96951 181.008 9.69281 180.566C10.4314 180.114 11.356 180.375 11.922 180.959C12.3159 181.366 12.7677 181.715 13.2646 181.996C14.1433 182.492 15.1342 182.756 16.1433 182.762C17.1525 182.769 18.1465 182.517 19.0313 182.032C19.5316 181.757 19.9877 181.413 20.3866 181.011C20.9598 180.434 21.8876 180.185 22.6205 180.646C23.3383 181.097 23.5897 182.079 23.0061 182.752ZM22.855 182.621C23.3444 182.056 23.1467 181.213 22.5141 180.815C21.8814 180.417 21.055 180.622 20.5285 181.152C20.1161 181.568 19.6447 181.923 19.1275 182.207C18.2128 182.709 17.1853 182.969 16.1421 182.962C15.0989 182.956 14.0746 182.683 13.1662 182.17C12.6526 181.88 12.1856 181.519 11.7783 181.098C11.2585 180.561 10.4347 180.347 9.79712 180.736C9.15959 181.126 8.95147 181.967 9.4339 182.538C10.1079 183.335 10.9203 184.009 11.8355 184.526C13.1449 185.266 14.6215 185.659 16.1253 185.668C17.6292 185.678 19.1105 185.303 20.429 184.58C21.3505 184.074 22.1711 183.41 22.855 182.621Z" fill="white"/>
<path d="M0 106.857V91.5325C0 89.3874 1.16739 87.4123 3.04662 86.3779L13.6231 80.5564C15.388 79.585 17.5272 79.584 19.2929 80.5539L29.898 86.3789C31.7798 87.4125 32.9492 89.389 32.9492 91.536V106.857C32.9492 110.107 30.3149 112.741 27.0654 112.741H5.88379C2.63426 112.741 0 110.107 0 106.857Z" fill="#345995"/>
<path d="M22.5141 100.987C23.1468 101.385 23.3445 102.229 22.855 102.793C22.1712 103.582 21.3505 104.246 20.429 104.752C19.1105 105.475 17.6292 105.85 16.1254 105.841C14.6215 105.831 13.145 105.438 11.8356 104.699C10.9204 104.182 10.108 103.508 9.43396 102.71C8.95153 102.14 9.15964 101.299 9.79718 100.909C10.4347 100.519 11.2585 100.734 11.7784 101.271C12.1856 101.691 12.6526 102.053 13.1663 102.343C14.0746 102.856 15.0989 103.128 16.1421 103.135C17.1853 103.141 18.2129 102.881 19.1275 102.38C19.6448 102.096 20.1162 101.74 20.5286 101.325C21.0551 100.794 21.8815 100.59 22.5141 100.987Z" fill="white"/>
<path fill-rule="evenodd" clip-rule="evenodd" d="M23.0061 102.925C22.3068 103.732 21.4675 104.411 20.5251 104.928C19.1768 105.667 17.662 106.051 16.1241 106.041C14.5862 106.032 13.0762 105.63 11.7371 104.873C10.8012 104.345 9.97044 103.655 9.28117 102.84C8.70594 102.16 8.96951 101.181 9.69281 100.739C10.4314 100.287 11.356 100.548 11.922 101.132C12.3159 101.539 12.7677 101.888 13.2646 102.169C14.1433 102.665 15.1342 102.929 16.1433 102.935C17.1525 102.942 18.1465 102.69 19.0313 102.205C19.5316 101.93 19.9877 101.586 20.3866 101.184C20.9598 100.607 21.8876 100.358 22.6205 100.819C23.3383 101.27 23.5897 102.252 23.0061 102.925ZM22.855 102.794C23.3444 102.229 23.1467 101.385 22.5141 100.988C21.8814 100.59 21.055 100.795 20.5285 101.325C20.1161 101.74 19.6447 102.096 19.1275 102.38C18.2128 102.882 17.1853 103.142 16.1421 103.135C15.0989 103.129 14.0746 102.856 13.1662 102.343C12.6526 102.053 12.1856 101.691 11.7783 101.271C11.2585 100.734 10.4347 100.519 9.79712 100.909C9.15959 101.299 8.95147 102.14 9.4339 102.711C10.1079 103.508 10.9203 104.182 11.8355 104.699C13.1449 105.439 14.6215 105.832 16.1253 105.841C17.6292 105.85 19.1105 105.476 20.429 104.752C21.3505 104.247 22.1711 103.583 22.855 102.794Z" fill="white"/>
<path d="M0 146.771V131.446C0 129.301 1.16739 127.326 3.04662 126.291L13.6231 120.47C15.388 119.499 17.5272 119.498 19.2929 120.467L29.898 126.292C31.7798 127.326 32.9492 129.303 32.9492 131.45V146.771C32.9492 150.02 30.3149 152.654 27.0654 152.654H5.88379C2.63426 152.654 0 150.02 0 146.771Z" fill="#345995"/>
<path d="M22.5141 140.901C23.1468 141.299 23.3445 142.142 22.855 142.707C22.1712 143.496 21.3505 144.16 20.429 144.666C19.1105 145.389 17.6292 145.764 16.1254 145.754C14.6215 145.745 13.145 145.352 11.8356 144.612C10.9204 144.095 10.108 143.421 9.43396 142.624C8.95153 142.053 9.15964 141.212 9.79718 140.822C10.4347 140.433 11.2585 140.647 11.7784 141.184C12.1856 141.605 12.6526 141.966 13.1663 142.256C14.0746 142.769 15.0989 143.042 16.1421 143.048C17.1853 143.055 18.2129 142.795 19.1275 142.293C19.6448 142.009 20.1162 141.654 20.5286 141.238C21.0551 140.708 21.8815 140.503 22.5141 140.901Z" fill="white"/>
<path fill-rule="evenodd" clip-rule="evenodd" d="M23.0061 142.838C22.3068 143.645 21.4675 144.324 20.5251 144.841C19.1768 145.581 17.662 145.964 16.1241 145.955C14.5862 145.945 13.0762 145.543 11.7371 144.787C10.8012 144.258 9.97044 143.569 9.28117 142.753C8.70594 142.073 8.96951 141.094 9.69281 140.652C10.4314 140.201 11.356 140.461 11.922 141.045C12.3159 141.452 12.7677 141.802 13.2646 142.083C14.1433 142.579 15.1342 142.843 16.1433 142.849C17.1525 142.855 18.1465 142.604 19.0313 142.118C19.5316 141.844 19.9877 141.5 20.3866 141.098C20.9598 140.521 21.8876 140.272 22.6205 140.732C23.3383 141.183 23.5897 142.165 23.0061 142.838ZM22.855 142.707C23.3444 142.143 23.1467 141.299 22.5141 140.901C21.8814 140.504 21.055 140.708 20.5285 141.239C20.1161 141.654 19.6447 142.01 19.1275 142.294C18.2128 142.795 17.1853 143.055 16.1421 143.049C15.0989 143.042 14.0746 142.77 13.1662 142.257C12.6526 141.967 12.1856 141.605 11.7783 141.185C11.2585 140.648 10.4347 140.433 9.79712 140.823C9.15959 141.212 8.95147 142.054 9.4339 142.624C10.1079 143.422 10.9203 144.096 11.8355 144.613C13.1449 145.352 14.6215 145.745 16.1253 145.755C17.6292 145.764 19.1105 145.389 20.429 144.666C21.3505 144.16 22.1711 143.496 22.855 142.707Z" fill="white"/>
<path d="M0 66.9434V51.6189C0 49.4738 1.16739 47.4987 3.04662 46.4643L13.6231 40.6428C15.388 39.6714 17.5272 39.6704 19.2929 40.6403L29.898 46.4653C31.7798 47.4989 32.9492 49.4754 32.9492 51.6224V66.9434C32.9492 70.193 30.3149 72.8272 27.0654 72.8272H5.88379C2.63426 72.8272 0 70.1929 0 66.9434Z" fill="#345995"/>
<path d="M22.5141 61.0739C23.1468 61.4715 23.3445 62.3153 22.855 62.8799C22.1712 63.6687 21.3505 64.3328 20.429 64.8384C19.1105 65.5617 17.6292 65.9365 16.1254 65.9272C14.6215 65.9179 13.145 65.5248 11.8356 64.7852C10.9204 64.2683 10.108 63.594 9.43396 62.7968C8.95153 62.2262 9.15964 61.3849 9.79718 60.9952C10.4347 60.6055 11.2585 60.8203 11.7784 61.357C12.1856 61.7774 12.6526 62.139 13.1663 62.4292C14.0746 62.9422 15.0989 63.2149 16.1421 63.2213C17.1853 63.2278 18.2129 62.9678 19.1275 62.466C19.6448 62.1823 20.1162 61.8265 20.5286 61.4112C21.0551 60.8809 21.8815 60.6763 22.5141 61.0739Z" fill="white"/>
<path fill-rule="evenodd" clip-rule="evenodd" d="M23.0061 63.0113C22.3068 63.818 21.4675 64.4971 20.5251 65.0141C19.1768 65.7538 17.662 66.1371 16.1241 66.1276C14.5862 66.1181 13.0762 65.7161 11.7371 64.9598C10.8012 64.4311 9.97044 63.7416 9.28117 62.9263C8.70594 62.246 8.96951 61.2671 9.69281 60.825C10.4314 60.3735 11.356 60.6339 11.922 61.2183C12.3159 61.625 12.7677 61.9747 13.2646 62.2554C14.1433 62.7517 15.1342 63.0155 16.1433 63.0217C17.1525 63.028 18.1465 62.7765 19.0313 62.2911C19.5316 62.0166 19.9877 61.6724 20.3866 61.2706C20.9598 60.6934 21.8876 60.4444 22.6205 60.905C23.3383 61.3561 23.5897 62.3381 23.0061 63.0113ZM22.855 62.8803C23.3444 62.3157 23.1467 61.4719 22.5141 61.0743C21.8814 60.6767 21.055 60.8813 20.5285 61.4116C20.1161 61.8269 19.6447 62.1827 19.1275 62.4664C18.2128 62.9682 17.1853 63.2282 16.1421 63.2217C15.0989 63.2153 14.0746 62.9426 13.1662 62.4296C12.6526 62.1394 12.1856 61.7778 11.7783 61.3574C11.2585 60.8207 10.4347 60.6059 9.79712 60.9956C9.15959 61.3853 8.95147 62.2266 9.4339 62.7972C10.1079 63.5944 10.9203 64.2687 11.8355 64.7856C13.1449 65.5252 14.6215 65.9183 16.1253 65.9276C17.6292 65.9369 19.1105 65.5621 20.429 64.8388C21.3505 64.3332 22.1711 63.6691 22.855 62.8803Z" fill="white"/>
<path d="M0 27.0299V11.7053C0 9.56022 1.16739 7.58512 3.04662 6.55075L13.6231 0.729235C15.388 -0.242184 17.5272 -0.243133 19.2929 0.726721L29.898 6.55176C31.7798 7.58536 32.9492 9.56187 32.9492 11.7088V27.0299C32.9492 30.2794 30.3149 32.9136 27.0654 32.9136H5.88379C2.63426 32.9136 0 30.2794 0 27.0299Z" fill="#345995"/>
<path d="M22.5141 21.1603C23.1468 21.5579 23.3445 22.4017 22.855 22.9663C22.1712 23.7551 21.3505 24.4193 20.429 24.9248C19.1105 25.6482 17.6292 26.0229 16.1254 26.0136C14.6215 26.0043 13.145 25.6112 11.8356 24.8716C10.9204 24.3547 10.108 23.6805 9.43396 22.8832C8.95153 22.3126 9.15964 21.4714 9.79718 21.0817C10.4347 20.6919 11.2585 20.9067 11.7784 21.4434C12.1856 21.8638 12.6526 22.2254 13.1663 22.5156C14.0746 23.0286 15.0989 23.3013 16.1421 23.3078C17.1853 23.3142 18.2129 23.0542 19.1275 22.5525C19.6448 22.2687 20.1162 21.9129 20.5286 21.4976C21.0551 20.9673 21.8815 20.7628 22.5141 21.1603Z" fill="white"/>
<path fill-rule="evenodd" clip-rule="evenodd" d="M23.0061 23.0977C22.3068 23.9044 21.4675 24.5836 20.5251 25.1006C19.1768 25.8403 17.662 26.2235 16.1241 26.214C14.5862 26.2045 13.0762 25.8025 11.7371 25.0462C10.8012 24.5176 9.97044 23.828 9.28117 23.0128C8.70594 22.3324 8.96951 21.3536 9.69281 20.9114C10.4314 20.4599 11.356 20.7204 11.922 21.3047C12.3159 21.7114 12.7677 22.0612 13.2646 22.3418C14.1433 22.8381 15.1342 23.1019 16.1433 23.1082C17.1525 23.1144 18.1465 22.8629 19.0313 22.3775C19.5316 22.103 19.9877 21.7589 20.3866 21.3571C20.9598 20.7798 21.8876 20.5308 22.6205 20.9914C23.3383 21.4425 23.5897 22.4245 23.0061 23.0977ZM22.855 22.9667C23.3444 22.4021 23.1467 21.5583 22.5141 21.1607C21.8814 20.7632 21.055 20.9677 20.5285 21.498C20.1161 21.9133 19.6447 22.2691 19.1275 22.5529C18.2128 23.0546 17.1853 23.3146 16.1421 23.3081C15.0989 23.3017 14.0746 23.029 13.1662 22.516C12.6526 22.2258 12.1856 21.8642 11.7783 21.4438C11.2585 20.9071 10.4347 20.6923 9.79712 21.0821C9.15959 21.4718 8.95147 22.313 9.4339 22.8836C10.1079 23.6809 10.9203 24.3551 11.8355 24.872C13.1449 25.6116 14.6215 26.0047 16.1253 26.014C17.6292 26.0233 19.1105 25.6485 20.429 24.9252C21.3505 24.4197 22.1711 23.7555 22.855 22.9667Z" fill="white"/>
<path d="M39.9492 186.684V171.36C39.9492 169.215 41.1166 167.239 42.9958 166.205L53.5723 160.384C55.3372 159.412 57.4764 159.411 59.2421 160.381L69.8472 166.206C71.729 167.24 72.8984 169.216 72.8984 171.363V186.684C72.8984 189.934 70.2642 192.568 67.0146 192.568H45.833C42.5835 192.568 39.9492 189.934 39.9492 186.684Z" fill="#345995"/>
<path d="M62.4634 180.815C63.096 181.212 63.2937 182.056 62.8043 182.621C62.1204 183.409 61.2998 184.074 60.3782 184.579C59.0597 185.302 57.5784 185.677 56.0746 185.668C54.5708 185.659 53.0942 185.266 51.7848 184.526C50.8696 184.009 50.0572 183.335 49.3832 182.538C48.9008 181.967 49.1089 181.126 49.7464 180.736C50.3839 180.346 51.2077 180.561 51.7276 181.098C52.1348 181.518 52.6018 181.88 53.1155 182.17C54.0239 182.683 55.0481 182.956 56.0913 182.962C57.1345 182.969 58.1621 182.709 59.0767 182.207C59.594 181.923 60.0654 181.567 60.4778 181.152C61.0043 180.622 61.8307 180.417 62.4634 180.815Z" fill="white"/>
<path fill-rule="evenodd" clip-rule="evenodd" d="M62.9553 182.752C62.256 183.559 61.4168 184.238 60.4744 184.755C59.126 185.495 57.6112 185.878 56.0733 185.868C54.5354 185.859 53.0254 185.457 51.6864 184.7C50.7504 184.172 49.9197 183.482 49.2304 182.667C48.6552 181.987 48.9187 181.008 49.642 180.566C50.3806 180.114 51.3052 180.375 51.8712 180.959C52.2652 181.366 52.7169 181.715 53.2138 181.996C54.0925 182.492 55.0834 182.756 56.0925 182.762C57.1017 182.769 58.0957 182.517 58.9805 182.032C59.4808 181.757 59.9369 181.413 60.3358 181.011C60.909 180.434 61.8368 180.185 62.5697 180.646C63.2875 181.097 63.5389 182.079 62.9553 182.752ZM62.8042 182.621C63.2936 182.056 63.096 181.213 62.4633 180.815C61.8306 180.417 61.0042 180.622 60.4778 181.152C60.0654 181.568 59.5939 181.923 59.0767 182.207C58.1621 182.709 57.1345 182.969 56.0913 182.962C55.0481 182.956 54.0238 182.683 53.1155 182.17C52.6018 181.88 52.1348 181.519 51.7276 181.098C51.2077 180.561 50.3839 180.347 49.7463 180.736C49.1088 181.126 48.9007 181.967 49.3831 182.538C50.0571 183.335 50.8695 184.009 51.7847 184.526C53.0941 185.266 54.5707 185.659 56.0745 185.668C57.5784 185.678 59.0597 185.303 60.3782 184.58C61.2997 184.074 62.1204 183.41 62.8042 182.621Z" fill="white"/>
<path d="M39.9492 106.857V91.5325C39.9492 89.3874 41.1166 87.4123 42.9958 86.3779L53.5723 80.5564C55.3372 79.585 57.4764 79.584 59.2421 80.5539L69.8472 86.3789C71.729 87.4125 72.8984 89.389 72.8984 91.536V106.857C72.8984 110.107 70.2642 112.741 67.0146 112.741H45.833C42.5835 112.741 39.9492 110.107 39.9492 106.857Z" fill="#345995"/>
<path d="M62.4634 100.987C63.096 101.385 63.2937 102.229 62.8043 102.793C62.1204 103.582 61.2998 104.246 60.3782 104.752C59.0597 105.475 57.5784 105.85 56.0746 105.841C54.5708 105.831 53.0942 105.438 51.7848 104.699C50.8696 104.182 50.0572 103.508 49.3832 102.71C48.9008 102.14 49.1089 101.299 49.7464 100.909C50.3839 100.519 51.2077 100.734 51.7276 101.271C52.1348 101.691 52.6018 102.053 53.1155 102.343C54.0239 102.856 55.0481 103.128 56.0913 103.135C57.1345 103.141 58.1621 102.881 59.0767 102.38C59.594 102.096 60.0654 101.74 60.4778 101.325C61.0043 100.794 61.8307 100.59 62.4634 100.987Z" fill="white"/>
<path fill-rule="evenodd" clip-rule="evenodd" d="M62.9553 102.925C62.256 103.732 61.4168 104.411 60.4744 104.928C59.126 105.667 57.6112 106.051 56.0733 106.041C54.5354 106.032 53.0254 105.63 51.6864 104.873C50.7504 104.345 49.9197 103.655 49.2304 102.84C48.6552 102.16 48.9187 101.181 49.642 100.739C50.3806 100.287 51.3052 100.548 51.8712 101.132C52.2652 101.539 52.7169 101.888 53.2138 102.169C54.0925 102.665 55.0834 102.929 56.0925 102.935C57.1017 102.942 58.0957 102.69 58.9805 102.205C59.4808 101.93 59.9369 101.586 60.3358 101.184C60.909 100.607 61.8368 100.358 62.5697 100.819C63.2875 101.27 63.5389 102.252 62.9553 102.925ZM62.8042 102.794C63.2936 102.229 63.096 101.385 62.4633 100.988C61.8306 100.59 61.0042 100.795 60.4778 101.325C60.0654 101.74 59.5939 102.096 59.0767 102.38C58.1621 102.882 57.1345 103.142 56.0913 103.135C55.0481 103.129 54.0238 102.856 53.1155 102.343C52.6018 102.053 52.1348 101.691 51.7276 101.271C51.2077 100.734 50.3839 100.519 49.7463 100.909C49.1088 101.299 48.9007 102.14 49.3831 102.711C50.0571 103.508 50.8695 104.182 51.7847 104.699C53.0941 105.439 54.5707 105.832 56.0745 105.841C57.5784 105.85 59.0597 105.476 60.3782 104.752C61.2997 104.247 62.1204 103.583 62.8042 102.794Z" fill="white"/>
<path d="M39.9492 146.771V131.446C39.9492 129.301 41.1166 127.326 42.9958 126.291L53.5723 120.47C55.3372 119.499 57.4764 119.498 59.2421 120.467L69.8472 126.292C71.729 127.326 72.8984 129.303 72.8984 131.45V146.771C72.8984 150.02 70.2642 152.654 67.0146 152.654H45.833C42.5835 152.654 39.9492 150.02 39.9492 146.771Z" fill="#345995"/>
<path d="M62.4634 140.901C63.096 141.299 63.2937 142.142 62.8043 142.707C62.1204 143.496 61.2998 144.16 60.3782 144.666C59.0597 145.389 57.5784 145.764 56.0746 145.754C54.5708 145.745 53.0942 145.352 51.7848 144.612C50.8696 144.095 50.0572 143.421 49.3832 142.624C48.9008 142.053 49.1089 141.212 49.7464 140.822C50.3839 140.433 51.2077 140.647 51.7276 141.184C52.1348 141.605 52.6018 141.966 53.1155 142.256C54.0239 142.769 55.0481 143.042 56.0913 143.048C57.1345 143.055 58.1621 142.795 59.0767 142.293C59.594 142.009 60.0654 141.654 60.4778 141.238C61.0043 140.708 61.8307 140.503 62.4634 140.901Z" fill="white"/>
<path fill-rule="evenodd" clip-rule="evenodd" d="M62.9553 142.838C62.256 143.645 61.4168 144.324 60.4744 144.841C59.126 145.581 57.6112 145.964 56.0733 145.955C54.5354 145.945 53.0254 145.543 51.6864 144.787C50.7504 144.258 49.9197 143.569 49.2304 142.753C48.6552 142.073 48.9187 141.094 49.642 140.652C50.3806 140.201 51.3052 140.461 51.8712 141.045C52.2652 141.452 52.7169 141.802 53.2138 142.083C54.0925 142.579 55.0834 142.843 56.0925 142.849C57.1017 142.855 58.0957 142.604 58.9805 142.118C59.4808 141.844 59.9369 141.5 60.3358 141.098C60.909 140.521 61.8368 140.272 62.5697 140.732C63.2875 141.183 63.5389 142.165 62.9553 142.838ZM62.8042 142.707C63.2936 142.143 63.096 141.299 62.4633 140.901C61.8306 140.504 61.0042 140.708 60.4778 141.239C60.0654 141.654 59.5939 142.01 59.0767 142.294C58.1621 142.795 57.1345 143.055 56.0913 143.049C55.0481 143.042 54.0238 142.77 53.1155 142.257C52.6018 141.967 52.1348 141.605 51.7276 141.185C51.2077 140.648 50.3839 140.433 49.7463 140.823C49.1088 141.212 48.9007 142.054 49.3831 142.624C50.0571 143.422 50.8695 144.096 51.7847 144.613C53.0941 145.352 54.5707 145.745 56.0745 145.755C57.5784 145.764 59.0597 145.389 60.3782 144.666C61.2997 144.16 62.1204 143.496 62.8042 142.707Z" fill="white"/>
<path d="M39.9492 66.9434V51.6189C39.9492 49.4738 41.1166 47.4987 42.9958 46.4643L53.5723 40.6428C55.3372 39.6714 57.4764 39.6704 59.2421 40.6403L69.8472 46.4653C71.729 47.4989 72.8984 49.4754 72.8984 51.6224V66.9434C72.8984 70.193 70.2642 72.8272 67.0146 72.8272H45.833C42.5835 72.8272 39.9492 70.1929 39.9492 66.9434Z" fill="#345995"/>
<path d="M62.4634 61.0739C63.096 61.4715 63.2937 62.3153 62.8043 62.8799C62.1204 63.6687 61.2998 64.3328 60.3782 64.8384C59.0597 65.5617 57.5784 65.9365 56.0746 65.9272C54.5708 65.9179 53.0942 65.5248 51.7848 64.7852C50.8696 64.2683 50.0572 63.594 49.3832 62.7968C48.9008 62.2262 49.1089 61.3849 49.7464 60.9952C50.3839 60.6055 51.2077 60.8203 51.7276 61.357C52.1348 61.7774 52.6018 62.139 53.1155 62.4292C54.0239 62.9422 55.0481 63.2149 56.0913 63.2213C57.1345 63.2278 58.1621 62.9678 59.0767 62.466C59.594 62.1823 60.0654 61.8265 60.4778 61.4112C61.0043 60.8809 61.8307 60.6763 62.4634 61.0739Z" fill="white"/>
<path fill-rule="evenodd" clip-rule="evenodd" d="M62.9553 63.0113C62.256 63.818 61.4168 64.4971 60.4744 65.0141C59.126 65.7538 57.6112 66.1371 56.0733 66.1276C54.5354 66.1181 53.0254 65.7161 51.6864 64.9598C50.7504 64.4311 49.9197 63.7416 49.2304 62.9263C48.6552 62.246 48.9187 61.2671 49.642 60.825C50.3806 60.3735 51.3052 60.6339 51.8712 61.2183C52.2652 61.625 52.7169 61.9747 53.2138 62.2554C54.0925 62.7517 55.0834 63.0155 56.0925 63.0217C57.1017 63.028 58.0957 62.7765 58.9805 62.2911C59.4808 62.0166 59.9369 61.6724 60.3358 61.2706C60.909 60.6934 61.8368 60.4444 62.5697 60.905C63.2875 61.3561 63.5389 62.3381 62.9553 63.0113ZM62.8042 62.8803C63.2936 62.3157 63.096 61.4719 62.4633 61.0743C61.8306 60.6767 61.0042 60.8813 60.4778 61.4116C60.0654 61.8269 59.5939 62.1827 59.0767 62.4664C58.1621 62.9682 57.1345 63.2282 56.0913 63.2217C55.0481 63.2153 54.0238 62.9426 53.1155 62.4296C52.6018 62.1394 52.1348 61.7778 51.7276 61.3574C51.2077 60.8207 50.3839 60.6059 49.7463 60.9956C49.1088 61.3853 48.9007 62.2266 49.3831 62.7972C50.0571 63.5944 50.8695 64.2687 51.7847 64.7856C53.0941 65.5252 54.5707 65.9183 56.0745 65.9276C57.5784 65.9369 59.0597 65.5621 60.3782 64.8388C61.2997 64.3332 62.1204 63.6691 62.8042 62.8803Z" fill="white"/>
<path d="M39.9492 27.0299V11.7053C39.9492 9.56022 41.1166 7.58512 42.9958 6.55075L53.5723 0.729235C55.3372 -0.242184 57.4764 -0.243133 59.2421 0.726721L69.8472 6.55176C71.729 7.58536 72.8984 9.56187 72.8984 11.7088V27.0299C72.8984 30.2794 70.2642 32.9136 67.0146 32.9136H45.833C42.5835 32.9136 39.9492 30.2794 39.9492 27.0299Z" fill="#345995"/>
<path d="M62.4634 21.1603C63.096 21.5579 63.2937 22.4017 62.8043 22.9663C62.1204 23.7551 61.2998 24.4193 60.3782 24.9248C59.0597 25.6482 57.5784 26.0229 56.0746 26.0136C54.5708 26.0043 53.0942 25.6112 51.7848 24.8716C50.8696 24.3547 50.0572 23.6805 49.3832 22.8832C48.9008 22.3126 49.1089 21.4714 49.7464 21.0817C50.3839 20.6919 51.2077 20.9067 51.7276 21.4434C52.1348 21.8638 52.6018 22.2254 53.1155 22.5156C54.0239 23.0286 55.0481 23.3013 56.0913 23.3078C57.1345 23.3142 58.1621 23.0542 59.0767 22.5525C59.594 22.2687 60.0654 21.9129 60.4778 21.4976C61.0043 20.9673 61.8307 20.7628 62.4634 21.1603Z" fill="white"/>
<path fill-rule="evenodd" clip-rule="evenodd" d="M62.9553 23.0977C62.256 23.9044 61.4168 24.5836 60.4744 25.1006C59.126 25.8403 57.6112 26.2235 56.0733 26.214C54.5354 26.2045 53.0254 25.8025 51.6864 25.0462C50.7504 24.5176 49.9197 23.828 49.2304 23.0128C48.6552 22.3324 48.9187 21.3536 49.642 20.9114C50.3806 20.4599 51.3052 20.7204 51.8712 21.3047C52.2652 21.7114 52.7169 22.0612 53.2138 22.3418C54.0925 22.8381 55.0834 23.1019 56.0925 23.1082C57.1017 23.1144 58.0957 22.8629 58.9805 22.3775C59.4808 22.103 59.9369 21.7589 60.3358 21.3571C60.909 20.7798 61.8368 20.5308 62.5697 20.9914C63.2875 21.4425 63.5389 22.4245 62.9553 23.0977ZM62.8042 22.9667C63.2936 22.4021 63.096 21.5583 62.4633 21.1607C61.8306 20.7632 61.0042 20.9677 60.4778 21.498C60.0654 21.9133 59.5939 22.2691 59.0767 22.5529C58.1621 23.0546 57.1345 23.3146 56.0913 23.3081C55.0481 23.3017 54.0238 23.029 53.1155 22.516C52.6018 22.2258 52.1348 21.8642 51.7276 21.4438C51.2077 20.9071 50.3839 20.6923 49.7463 21.0821C49.1088 21.4718 48.9007 22.313 49.3831 22.8836C50.0571 23.6809 50.8695 24.3551 51.7847 24.872C53.0941 25.6116 54.5707 26.0047 56.0745 26.014C57.5784 26.0233 59.0597 25.6485 60.3782 24.9252C61.2997 24.4197 62.1204 23.7555 62.8042 22.9667Z" fill="white"/>
<path d="M79.8984 186.684V171.36C79.8984 169.215 81.0658 167.239 82.9451 166.205L93.5216 160.384C95.2864 159.412 97.4256 159.411 99.1913 160.381L109.796 166.206C111.678 167.24 112.848 169.216 112.848 171.363V186.684C112.848 189.934 110.213 192.568 106.964 192.568H85.7822C82.5327 192.568 79.8984 189.934 79.8984 186.684Z" fill="#345995"/>
<path d="M102.413 180.815C103.045 181.212 103.243 182.056 102.753 182.621C102.07 183.409 101.249 184.074 100.327 184.579C99.009 185.302 97.5277 185.677 96.0238 185.668C94.52 185.659 93.0434 185.266 91.734 184.526C90.8188 184.009 90.0064 183.335 89.3324 182.538C88.85 181.967 89.0581 181.126 89.6956 180.736C90.3331 180.346 91.157 180.561 91.6768 181.098C92.0841 181.518 92.5511 181.88 93.0647 182.17C93.9731 182.683 94.9974 182.956 96.0406 182.962C97.0838 182.969 98.1113 182.709 99.026 182.207C99.5432 181.923 100.015 181.567 100.427 181.152C100.954 180.622 101.78 180.417 102.413 180.815Z" fill="white"/>
<path fill-rule="evenodd" clip-rule="evenodd" d="M102.905 182.752C102.205 183.559 101.366 184.238 100.424 184.755C99.0753 185.495 97.5604 185.878 96.0225 185.868C94.4846 185.859 92.9747 185.457 91.6356 184.7C90.6996 184.172 89.8689 183.482 89.1796 182.667C88.6044 181.987 88.8679 181.008 89.5912 180.566C90.3298 180.114 91.2544 180.375 91.8204 180.959C92.2144 181.366 92.6661 181.715 93.163 181.996C94.0417 182.492 95.0326 182.756 96.0417 182.762C97.0509 182.769 98.0449 182.517 98.9297 182.032C99.4301 181.757 99.8861 181.413 100.285 181.011C100.858 180.434 101.786 180.185 102.519 180.646C103.237 181.097 103.488 182.079 102.905 182.752ZM102.753 182.621C103.243 182.056 103.045 181.213 102.413 180.815C101.78 180.417 100.953 180.622 100.427 181.152C100.015 181.568 99.5431 181.923 99.0259 182.207C98.1113 182.709 97.0837 182.969 96.0405 182.962C94.9973 182.956 93.973 182.683 93.0647 182.17C92.551 181.88 92.084 181.519 91.6768 181.098C91.1569 180.561 90.3331 180.347 89.6956 180.736C89.058 181.126 88.8499 181.967 89.3323 182.538C90.0063 183.335 90.8187 184.009 91.7339 184.526C93.0434 185.266 94.5199 185.659 96.0238 185.668C97.5276 185.678 99.0089 185.303 100.327 184.58C101.249 184.074 102.07 183.41 102.753 182.621Z" fill="white"/>
<path d="M79.8984 106.857V91.5325C79.8984 89.3874 81.0658 87.4123 82.9451 86.3779L93.5216 80.5564C95.2864 79.585 97.4256 79.584 99.1913 80.5539L109.796 86.3789C111.678 87.4125 112.848 89.389 112.848 91.536V106.857C112.848 110.107 110.213 112.741 106.964 112.741H85.7822C82.5327 112.741 79.8984 110.107 79.8984 106.857Z" fill="#345995"/>
<path d="M102.413 100.987C103.045 101.385 103.243 102.229 102.753 102.793C102.07 103.582 101.249 104.246 100.327 104.752C99.009 105.475 97.5277 105.85 96.0238 105.841C94.52 105.831 93.0434 105.438 91.734 104.699C90.8188 104.182 90.0064 103.508 89.3324 102.71C88.85 102.14 89.0581 101.299 89.6956 100.909C90.3331 100.519 91.157 100.734 91.6768 101.271C92.0841 101.691 92.5511 102.053 93.0647 102.343C93.9731 102.856 94.9974 103.128 96.0406 103.135C97.0838 103.141 98.1113 102.881 99.026 102.38C99.5432 102.096 100.015 101.74 100.427 101.325C100.954 100.794 101.78 100.59 102.413 100.987Z" fill="white"/>
<path fill-rule="evenodd" clip-rule="evenodd" d="M102.905 102.925C102.205 103.732 101.366 104.411 100.424 104.928C99.0753 105.667 97.5604 106.051 96.0225 106.041C94.4846 106.032 92.9747 105.63 91.6356 104.873C90.6996 104.345 89.8689 103.655 89.1796 102.84C88.6044 102.16 88.8679 101.181 89.5912 100.739C90.3298 100.287 91.2544 100.548 91.8204 101.132C92.2144 101.539 92.6661 101.888 93.163 102.169C94.0417 102.665 95.0326 102.929 96.0417 102.935C97.0509 102.942 98.0449 102.69 98.9297 102.205C99.4301 101.93 99.8861 101.586 100.285 101.184C100.858 100.607 101.786 100.358 102.519 100.819C103.237 101.27 103.488 102.252 102.905 102.925ZM102.753 102.794C103.243 102.229 103.045 101.385 102.413 100.988C101.78 100.59 100.953 100.795 100.427 101.325C100.015 101.74 99.5431 102.096 99.0259 102.38C98.1113 102.882 97.0837 103.142 96.0405 103.135C94.9973 103.129 93.973 102.856 93.0647 102.343C92.551 102.053 92.084 101.691 91.6768 101.271C91.1569 100.734 90.3331 100.519 89.6956 100.909C89.058 101.299 88.8499 102.14 89.3323 102.711C90.0063 103.508 90.8187 104.182 91.7339 104.699C93.0434 105.439 94.5199 105.832 96.0238 105.841C97.5276 105.85 99.0089 105.476 100.327 104.752C101.249 104.247 102.07 103.583 102.753 102.794Z" fill="white"/>
<path d="M79.8984 146.771V131.446C79.8984 129.301 81.0658 127.326 82.9451 126.291L93.5216 120.47C95.2864 119.499 97.4256 119.498 99.1913 120.467L109.796 126.292C111.678 127.326 112.848 129.303 112.848 131.45V146.771C112.848 150.02 110.213 152.654 106.964 152.654H85.7822C82.5327 152.654 79.8984 150.02 79.8984 146.771Z" fill="#345995"/>
<path d="M102.413 140.901C103.045 141.299 103.243 142.142 102.753 142.707C102.07 143.496 101.249 144.16 100.327 144.666C99.009 145.389 97.5277 145.764 96.0238 145.754C94.52 145.745 93.0434 145.352 91.734 144.612C90.8188 144.095 90.0064 143.421 89.3324 142.624C88.85 142.053 89.0581 141.212 89.6956 140.822C90.3331 140.433 91.157 140.647 91.6768 141.184C92.0841 141.605 92.5511 141.966 93.0647 142.256C93.9731 142.769 94.9974 143.042 96.0406 143.048C97.0838 143.055 98.1113 142.795 99.026 142.293C99.5432 142.009 100.015 141.654 100.427 141.238C100.954 140.708 101.78 140.503 102.413 140.901Z" fill="white"/>
<path fill-rule="evenodd" clip-rule="evenodd" d="M102.905 142.838C102.205 143.645 101.366 144.324 100.424 144.841C99.0753 145.581 97.5604 145.964 96.0225 145.955C94.4846 145.945 92.9747 145.543 91.6356 144.787C90.6996 144.258 89.8689 143.569 89.1796 142.753C88.6044 142.073 88.8679 141.094 89.5912 140.652C90.3298 140.201 91.2544 140.461 91.8204 141.045C92.2144 141.452 92.6661 141.802 93.163 142.083C94.0417 142.579 95.0326 142.843 96.0417 142.849C97.0509 142.855 98.0449 142.604 98.9297 142.118C99.4301 141.844 99.8861 141.5 100.285 141.098C100.858 140.521 101.786 140.272 102.519 140.732C103.237 141.183 103.488 142.165 102.905 142.838ZM102.753 142.707C103.243 142.143 103.045 141.299 102.413 140.901C101.78 140.504 100.953 140.708 100.427 141.239C100.015 141.654 99.5431 142.01 99.0259 142.294C98.1113 142.795 97.0837 143.055 96.0405 143.049C94.9973 143.042 93.973 142.77 93.0647 142.257C92.551 141.967 92.084 141.605 91.6768 141.185C91.1569 140.648 90.3331 140.433 89.6956 140.823C89.058 141.212 88.8499 142.054 89.3323 142.624C90.0063 143.422 90.8187 144.096 91.7339 144.613C93.0434 145.352 94.5199 145.745 96.0238 145.755C97.5276 145.764 99.0089 145.389 100.327 144.666C101.249 144.16 102.07 143.496 102.753 142.707Z" fill="white"/>
<path d="M79.8984 66.9434V51.6189C79.8984 49.4738 81.0658 47.4987 82.9451 46.4643L93.5216 40.6428C95.2864 39.6714 97.4256 39.6704 99.1913 40.6403L109.796 46.4653C111.678 47.4989 112.848 49.4754 112.848 51.6224V66.9434C112.848 70.193 110.213 72.8272 106.964 72.8272H85.7822C82.5327 72.8272 79.8984 70.1929 79.8984 66.9434Z" fill="#345995"/>
<path d="M102.413 61.0739C103.045 61.4715 103.243 62.3153 102.753 62.8799C102.07 63.6687 101.249 64.3328 100.327 64.8384C99.009 65.5617 97.5277 65.9365 96.0238 65.9272C94.52 65.9179 93.0434 65.5248 91.734 64.7852C90.8188 64.2683 90.0064 63.594 89.3324 62.7968C88.85 62.2262 89.0581 61.3849 89.6956 60.9952C90.3331 60.6055 91.157 60.8203 91.6768 61.357C92.0841 61.7774 92.5511 62.139 93.0647 62.4292C93.9731 62.9422 94.9974 63.2149 96.0406 63.2213C97.0838 63.2278 98.1113 62.9678 99.026 62.466C99.5432 62.1823 100.015 61.8265 100.427 61.4112C100.954 60.8809 101.78 60.6763 102.413 61.0739Z" fill="white"/>
<path fill-rule="evenodd" clip-rule="evenodd" d="M102.905 63.0113C102.205 63.818 101.366 64.4971 100.424 65.0141C99.0753 65.7538 97.5604 66.1371 96.0225 66.1276C94.4846 66.1181 92.9747 65.7161 91.6356 64.9598C90.6996 64.4311 89.8689 63.7416 89.1796 62.9263C88.6044 62.246 88.8679 61.2671 89.5912 60.825C90.3298 60.3735 91.2544 60.6339 91.8204 61.2183C92.2144 61.625 92.6661 61.9747 93.163 62.2554C94.0417 62.7517 95.0326 63.0155 96.0417 63.0217C97.0509 63.028 98.0449 62.7765 98.9297 62.2911C99.4301 62.0166 99.8861 61.6724 100.285 61.2706C100.858 60.6934 101.786 60.4444 102.519 60.905C103.237 61.3561 103.488 62.3381 102.905 63.0113ZM102.753 62.8803C103.243 62.3157 103.045 61.4719 102.413 61.0743C101.78 60.6767 100.953 60.8813 100.427 61.4116C100.015 61.8269 99.5431 62.1827 99.0259 62.4664C98.1113 62.9682 97.0837 63.2282 96.0405 63.2217C94.9973 63.2153 93.973 62.9426 93.0647 62.4296C92.551 62.1394 92.084 61.7778 91.6768 61.3574C91.1569 60.8207 90.3331 60.6059 89.6956 60.9956C89.058 61.3853 88.8499 62.2266 89.3323 62.7972C90.0063 63.5944 90.8187 64.2687 91.7339 64.7856C93.0434 65.5252 94.5199 65.9183 96.0238 65.9276C97.5276 65.9369 99.0089 65.5621 100.327 64.8388C101.249 64.3332 102.07 63.6691 102.753 62.8803Z" fill="white"/>
<path d="M79.8984 27.0299V11.7053C79.8984 9.56022 81.0658 7.58512 82.9451 6.55075L93.5216 0.729235C95.2864 -0.242184 97.4256 -0.243133 99.1913 0.726721L109.796 6.55176C111.678 7.58536 112.848 9.56187 112.848 11.7088V27.0299C112.848 30.2794 110.213 32.9136 106.964 32.9136H85.7822C82.5327 32.9136 79.8984 30.2794 79.8984 27.0299Z" fill="#345995"/>
<path d="M102.413 21.1603C103.045 21.5579 103.243 22.4017 102.753 22.9663C102.07 23.7551 101.249 24.4193 100.327 24.9248C99.009 25.6482 97.5277 26.0229 96.0238 26.0136C94.52 26.0043 93.0434 25.6112 91.734 24.8716C90.8188 24.3547 90.0064 23.6805 89.3324 22.8832C88.85 22.3126 89.0581 21.4714 89.6956 21.0817C90.3331 20.6919 91.157 20.9067 91.6768 21.4434C92.0841 21.8638 92.5511 22.2254 93.0647 22.5156C93.9731 23.0286 94.9974 23.3013 96.0406 23.3078C97.0838 23.3142 98.1113 23.0542 99.026 22.5525C99.5432 22.2687 100.015 21.9129 100.427 21.4976C100.954 20.9673 101.78 20.7628 102.413 21.1603Z" fill="white"/>
<path fill-rule="evenodd" clip-rule="evenodd" d="M102.905 23.0977C102.205 23.9044 101.366 24.5836 100.424 25.1006C99.0753 25.8403 97.5604 26.2235 96.0225 26.214C94.4846 26.2045 92.9747 25.8025 91.6356 25.0462C90.6996 24.5176 89.8689 23.828 89.1796 23.0128C88.6044 22.3324 88.8679 21.3536 89.5912 20.9114C90.3298 20.4599 91.2544 20.7204 91.8204 21.3047C92.2144 21.7114 92.6661 22.0612 93.163 22.3418C94.0417 22.8381 95.0326 23.1019 96.0417 23.1082C97.0509 23.1144 98.0449 22.8629 98.9297 22.3775C99.4301 22.103 99.8861 21.7589 100.285 21.3571C100.858 20.7798 101.786 20.5308 102.519 20.9914C103.237 21.4425 103.488 22.4245 102.905 23.0977ZM102.753 22.9667C103.243 22.4021 103.045 21.5583 102.413 21.1607C101.78 20.7632 100.953 20.9677 100.427 21.498C100.015 21.9133 99.5431 22.2691 99.0259 22.5529C98.1113 23.0546 97.0837 23.3146 96.0405 23.3081C94.9973 23.3017 93.973 23.029 93.0647 22.516C92.551 22.2258 92.084 21.8642 91.6768 21.4438C91.1569 20.9071 90.3331 20.6923 89.6956 21.0821C89.058 21.4718 88.8499 22.313 89.3323 22.8836C90.0063 23.6809 90.8187 24.3551 91.7339 24.872C93.0434 25.6116 94.5199 26.0047 96.0238 26.014C97.5276 26.0233 99.0089 25.6485 100.327 24.9252C101.249 24.4197 102.07 23.7555 102.753 22.9667Z" fill="white"/>
<path d="M119.848 186.684V171.36C119.848 169.215 121.015 167.239 122.894 166.205L133.471 160.384C135.236 159.412 137.375 159.411 139.141 160.381L149.746 166.206C151.627 167.24 152.797 169.216 152.797 171.363V186.684C152.797 189.934 150.163 192.568 146.913 192.568H125.731C122.482 192.568 119.848 189.934 119.848 186.684Z" fill="#345995"/>
<path d="M142.362 180.815C142.994 181.212 143.192 182.056 142.703 182.621C142.019 183.409 141.198 184.074 140.277 184.579C138.958 185.302 137.477 185.677 135.973 185.668C134.469 185.659 132.993 185.266 131.683 184.526C130.768 184.009 129.956 183.335 129.282 182.538C128.799 181.967 129.007 181.126 129.645 180.736C130.282 180.346 131.106 180.561 131.626 181.098C132.033 181.518 132.5 181.88 133.014 182.17C133.922 182.683 134.947 182.956 135.99 182.962C137.033 182.969 138.061 182.709 138.975 182.207C139.492 181.923 139.964 181.567 140.376 181.152C140.903 180.622 141.729 180.417 142.362 180.815Z" fill="white"/>
<path fill-rule="evenodd" clip-rule="evenodd" d="M142.854 182.752C142.154 183.559 141.315 184.238 140.373 184.755C139.024 185.495 137.51 185.878 135.972 185.868C134.434 185.859 132.924 185.457 131.585 184.7C130.649 184.172 129.818 183.482 129.129 182.667C128.554 181.987 128.817 181.008 129.54 180.566C130.279 180.114 131.204 180.375 131.77 180.959C132.164 181.366 132.615 181.715 133.112 181.996C133.991 182.492 134.982 182.756 135.991 182.762C137 182.769 137.994 182.517 138.879 182.032C139.379 181.757 139.835 181.413 140.234 181.011C140.807 180.434 141.735 180.185 142.468 180.646C143.186 181.097 143.437 182.079 142.854 182.752ZM142.703 182.621C143.192 182.056 142.994 181.213 142.362 180.815C141.729 180.417 140.903 180.622 140.376 181.152C139.964 181.568 139.492 181.923 138.975 182.207C138.06 182.709 137.033 182.969 135.99 182.962C134.947 182.956 133.922 182.683 133.014 182.17C132.5 181.88 132.033 181.519 131.626 181.098C131.106 180.561 130.282 180.347 129.645 180.736C129.007 181.126 128.799 181.967 129.282 182.538C129.956 183.335 130.768 184.009 131.683 184.526C132.993 185.266 134.469 185.659 135.973 185.668C137.477 185.678 138.958 185.303 140.277 184.58C141.198 184.074 142.019 183.41 142.703 182.621Z" fill="white"/>
<path d="M119.848 106.857V91.5325C119.848 89.3874 121.015 87.4123 122.894 86.3779L133.471 80.5564C135.236 79.585 137.375 79.584 139.141 80.5539L149.746 86.3789C151.627 87.4125 152.797 89.389 152.797 91.536V106.857C152.797 110.107 150.163 112.741 146.913 112.741H125.731C122.482 112.741 119.848 110.107 119.848 106.857Z" fill="#345995"/>
<path d="M142.362 100.987C142.994 101.385 143.192 102.229 142.703 102.793C142.019 103.582 141.198 104.246 140.277 104.752C138.958 105.475 137.477 105.85 135.973 105.841C134.469 105.831 132.993 105.438 131.683 104.699C130.768 104.182 129.956 103.508 129.282 102.71C128.799 102.14 129.007 101.299 129.645 100.909C130.282 100.519 131.106 100.734 131.626 101.271C132.033 101.691 132.5 102.053 133.014 102.343C133.922 102.856 134.947 103.128 135.99 103.135C137.033 103.141 138.061 102.881 138.975 102.38C139.492 102.096 139.964 101.74 140.376 101.325C140.903 100.794 141.729 100.59 142.362 100.987Z" fill="white"/>
<path fill-rule="evenodd" clip-rule="evenodd" d="M142.854 102.925C142.154 103.732 141.315 104.411 140.373 104.928C139.024 105.667 137.51 106.051 135.972 106.041C134.434 106.032 132.924 105.63 131.585 104.873C130.649 104.345 129.818 103.655 129.129 102.84C128.554 102.16 128.817 101.181 129.54 100.739C130.279 100.287 131.204 100.548 131.77 101.132C132.164 101.539 132.615 101.888 133.112 102.169C133.991 102.665 134.982 102.929 135.991 102.935C137 102.942 137.994 102.69 138.879 102.205C139.379 101.93 139.835 101.586 140.234 101.184C140.807 100.607 141.735 100.358 142.468 100.819C143.186 101.27 143.437 102.252 142.854 102.925ZM142.703 102.794C143.192 102.229 142.994 101.385 142.362 100.988C141.729 100.59 140.903 100.795 140.376 101.325C139.964 101.74 139.492 102.096 138.975 102.38C138.06 102.882 137.033 103.142 135.99 103.135C134.947 103.129 133.922 102.856 133.014 102.343C132.5 102.053 132.033 101.691 131.626 101.271C131.106 100.734 130.282 100.519 129.645 100.909C129.007 101.299 128.799 102.14 129.282 102.711C129.956 103.508 130.768 104.182 131.683 104.699C132.993 105.439 134.469 105.832 135.973 105.841C137.477 105.85 138.958 105.476 140.277 104.752C141.198 104.247 142.019 103.583 142.703 102.794Z" fill="white"/>
<path d="M119.848 146.771V131.446C119.848 129.301 121.015 127.326 122.894 126.291L133.471 120.47C135.236 119.499 137.375 119.498 139.141 120.467L149.746 126.292C151.627 127.326 152.797 129.303 152.797 131.45V146.771C152.797 150.02 150.163 152.654 146.913 152.654H125.731C122.482 152.654 119.848 150.02 119.848 146.771Z" fill="#345995"/>
<path d="M142.362 140.901C142.994 141.299 143.192 142.142 142.703 142.707C142.019 143.496 141.198 144.16 140.277 144.666C138.958 145.389 137.477 145.764 135.973 145.754C134.469 145.745 132.993 145.352 131.683 144.612C130.768 144.095 129.956 143.421 129.282 142.624C128.799 142.053 129.007 141.212 129.645 140.822C130.282 140.433 131.106 140.647 131.626 141.184C132.033 141.605 132.5 141.966 133.014 142.256C133.922 142.769 134.947 143.042 135.99 143.048C137.033 143.055 138.061 142.795 138.975 142.293C139.492 142.009 139.964 141.654 140.376 141.238C140.903 140.708 141.729 140.503 142.362 140.901Z" fill="white"/>
<path fill-rule="evenodd" clip-rule="evenodd" d="M142.854 142.838C142.154 143.645 141.315 144.324 140.373 144.841C139.024 145.581 137.51 145.964 135.972 145.955C134.434 145.945 132.924 145.543 131.585 144.787C130.649 144.258 129.818 143.569 129.129 142.753C128.554 142.073 128.817 141.094 129.54 140.652C130.279 140.201 131.204 140.461 131.77 141.045C132.164 141.452 132.615 141.802 133.112 142.083C133.991 142.579 134.982 142.843 135.991 142.849C137 142.855 137.994 142.604 138.879 142.118C139.379 141.844 139.835 141.5 140.234 141.098C140.807 140.521 141.735 140.272 142.468 140.732C143.186 141.183 143.437 142.165 142.854 142.838ZM142.703 142.707C143.192 142.143 142.994 141.299 142.362 140.901C141.729 140.504 140.903 140.708 140.376 141.239C139.964 141.654 139.492 142.01 138.975 142.294C138.06 142.795 137.033 143.055 135.99 143.049C134.947 143.042 133.922 142.77 133.014 142.257C132.5 141.967 132.033 141.605 131.626 141.185C131.106 140.648 130.282 140.433 129.645 140.823C129.007 141.212 128.799 142.054 129.282 142.624C129.956 143.422 130.768 144.096 131.683 144.613C132.993 145.352 134.469 145.745 135.973 145.755C137.477 145.764 138.958 145.389 140.277 144.666C141.198 144.16 142.019 143.496 142.703 142.707Z" fill="white"/>
<path d="M119.848 66.9434V51.6189C119.848 49.4738 121.015 47.4987 122.894 46.4643L133.471 40.6428C135.236 39.6714 137.375 39.6704 139.141 40.6403L149.746 46.4653C151.627 47.4989 152.797 49.4754 152.797 51.6224V66.9434C152.797 70.193 150.163 72.8272 146.913 72.8272H125.731C122.482 72.8272 119.848 70.1929 119.848 66.9434Z" fill="#345995"/>
<path d="M142.362 61.0739C142.994 61.4715 143.192 62.3153 142.703 62.8799C142.019 63.6687 141.198 64.3328 140.277 64.8384C138.958 65.5617 137.477 65.9365 135.973 65.9272C134.469 65.9179 132.993 65.5248 131.683 64.7852C130.768 64.2683 129.956 63.594 129.282 62.7968C128.799 62.2262 129.007 61.3849 129.645 60.9952C130.282 60.6055 131.106 60.8203 131.626 61.357C132.033 61.7774 132.5 62.139 133.014 62.4292C133.922 62.9422 134.947 63.2149 135.99 63.2213C137.033 63.2278 138.061 62.9678 138.975 62.466C139.492 62.1823 139.964 61.8265 140.376 61.4112C140.903 60.8809 141.729 60.6763 142.362 61.0739Z" fill="white"/>
<path fill-rule="evenodd" clip-rule="evenodd" d="M142.854 63.0113C142.154 63.818 141.315 64.4971 140.373 65.0141C139.024 65.7538 137.51 66.1371 135.972 66.1276C134.434 66.1181 132.924 65.7161 131.585 64.9598C130.649 64.4311 129.818 63.7416 129.129 62.9263C128.554 62.246 128.817 61.2671 129.54 60.825C130.279 60.3735 131.204 60.6339 131.77 61.2183C132.164 61.625 132.615 61.9747 133.112 62.2554C133.991 62.7517 134.982 63.0155 135.991 63.0217C137 63.028 137.994 62.7765 138.879 62.2911C139.379 62.0166 139.835 61.6724 140.234 61.2706C140.807 60.6934 141.735 60.4444 142.468 60.905C143.186 61.3561 143.437 62.3381 142.854 63.0113ZM142.703 62.8803C143.192 62.3157 142.994 61.4719 142.362 61.0743C141.729 60.6767 140.903 60.8813 140.376 61.4116C139.964 61.8269 139.492 62.1827 138.975 62.4664C138.06 62.9682 137.033 63.2282 135.99 63.2217C134.947 63.2153 133.922 62.9426 133.014 62.4296C132.5 62.1394 132.033 61.7778 131.626 61.3574C131.106 60.8207 130.282 60.6059 129.645 60.9956C129.007 61.3853 128.799 62.2266 129.282 62.7972C129.956 63.5944 130.768 64.2687 131.683 64.7856C132.993 65.5252 134.469 65.9183 135.973 65.9276C137.477 65.9369 138.958 65.5621 140.277 64.8388C141.198 64.3332 142.019 63.6691 142.703 62.8803Z" fill="white"/>
<path d="M119.848 27.0299V11.7053C119.848 9.56022 121.015 7.58512 122.894 6.55075L133.471 0.729235C135.236 -0.242184 137.375 -0.243133 139.141 0.726721L149.746 6.55176C151.627 7.58536 152.797 9.56187 152.797 11.7088V27.0299C152.797 30.2794 150.163 32.9136 146.913 32.9136H125.731C122.482 32.9136 119.848 30.2794 119.848 27.0299Z" fill="#345995"/>
<path d="M142.362 21.1603C142.994 21.5579 143.192 22.4017 142.703 22.9663C142.019 23.7551 141.198 24.4193 140.277 24.9248C138.958 25.6482 137.477 26.0229 135.973 26.0136C134.469 26.0043 132.993 25.6112 131.683 24.8716C130.768 24.3547 129.956 23.6805 129.282 22.8832C128.799 22.3126 129.007 21.4714 129.645 21.0817C130.282 20.6919 131.106 20.9067 131.626 21.4434C132.033 21.8638 132.5 22.2254 133.014 22.5156C133.922 23.0286 134.947 23.3013 135.99 23.3078C137.033 23.3142 138.061 23.0542 138.975 22.5525C139.492 22.2687 139.964 21.9129 140.376 21.4976C140.903 20.9673 141.729 20.7628 142.362 21.1603Z" fill="white"/>
<path fill-rule="evenodd" clip-rule="evenodd" d="M142.854 23.0977C142.154 23.9044 141.315 24.5836 140.373 25.1006C139.024 25.8403 137.51 26.2235 135.972 26.214C134.434 26.2045 132.924 25.8025 131.585 25.0462C130.649 24.5176 129.818 23.828 129.129 23.0128C128.554 22.3324 128.817 21.3536 129.54 20.9114C130.279 20.4599 131.204 20.7204 131.77 21.3047C132.164 21.7114 132.615 22.0612 133.112 22.3418C133.991 22.8381 134.982 23.1019 135.991 23.1082C137 23.1144 137.994 22.8629 138.879 22.3775C139.379 22.103 139.835 21.7589 140.234 21.3571C140.807 20.7798 141.735 20.5308 142.468 20.9914C143.186 21.4425 143.437 22.4245 142.854 23.0977ZM142.703 22.9667C143.192 22.4021 142.994 21.5583 142.362 21.1607C141.729 20.7632 140.903 20.9677 140.376 21.498C139.964 21.9133 139.492 22.2691 138.975 22.5529C138.06 23.0546 137.033 23.3146 135.99 23.3081C134.947 23.3017 133.922 23.029 133.014 22.516C132.5 22.2258 132.033 21.8642 131.626 21.4438C131.106 20.9071 130.282 20.6923 129.645 21.0821C129.007 21.4718 128.799 22.313 129.282 22.8836C129.956 23.6809 130.768 24.3551 131.683 24.872C132.993 25.6116 134.469 26.0047 135.973 26.014C137.477 26.0233 138.958 25.6485 140.277 24.9252C141.198 24.4197 142.019 23.7555 142.703 22.9667Z" fill="white"/>
<path d="M159.797 186.684V171.36C159.797 169.215 160.964 167.239 162.843 166.205L173.42 160.384C175.185 159.412 177.324 159.411 179.09 160.381L189.695 166.206C191.577 167.24 192.746 169.216 192.746 171.363V186.684C192.746 189.934 190.112 192.568 186.862 192.568H165.681C162.431 192.568 159.797 189.934 159.797 186.684Z" fill="#345995"/>
<path d="M182.311 180.815C182.944 181.212 183.141 182.056 182.652 182.621C181.968 183.409 181.147 184.074 180.226 184.579C178.907 185.302 177.426 185.677 175.922 185.668C174.418 185.659 172.942 185.266 171.632 184.526C170.717 184.009 169.905 183.335 169.231 182.538C168.748 181.967 168.957 181.126 169.594 180.736C170.232 180.346 171.055 180.561 171.575 181.098C171.983 181.518 172.449 181.88 172.963 182.17C173.872 182.683 174.896 182.956 175.939 182.962C176.982 182.969 178.01 182.709 178.924 182.207C179.442 181.923 179.913 181.567 180.325 181.152C180.852 180.622 181.678 180.417 182.311 180.815Z" fill="white"/>
<path fill-rule="evenodd" clip-rule="evenodd" d="M182.803 182.752C182.104 183.559 181.264 184.238 180.322 184.755C178.974 185.495 177.459 185.878 175.921 185.868C174.383 185.859 172.873 185.457 171.534 184.7C170.598 184.172 169.767 183.482 169.078 182.667C168.503 181.987 168.766 181.008 169.49 180.566C170.228 180.114 171.153 180.375 171.719 180.959C172.113 181.366 172.565 181.715 173.061 181.996C173.94 182.492 174.931 182.756 175.94 182.762C176.949 182.769 177.943 182.517 178.828 182.032C179.329 181.757 179.785 181.413 180.183 181.011C180.757 180.434 181.684 180.185 182.417 180.646C183.135 181.097 183.387 182.079 182.803 182.752ZM182.652 182.621C183.141 182.056 182.944 181.213 182.311 180.815C181.678 180.417 180.852 180.622 180.325 181.152C179.913 181.568 179.442 181.923 178.924 182.207C178.01 182.709 176.982 182.969 175.939 182.962C174.896 182.956 173.871 182.683 172.963 182.17C172.449 181.88 171.982 181.519 171.575 181.098C171.055 180.561 170.232 180.347 169.594 180.736C168.956 181.126 168.748 181.967 169.231 182.538C169.905 183.335 170.717 184.009 171.632 184.526C172.942 185.266 174.418 185.659 175.922 185.668C177.426 185.678 178.907 185.303 180.226 184.58C181.147 184.074 181.968 183.41 182.652 182.621Z" fill="white"/>
<path d="M159.797 106.857V91.5325C159.797 89.3874 160.964 87.4123 162.843 86.3779L173.42 80.5564C175.185 79.585 177.324 79.584 179.09 80.5539L189.695 86.3789C191.577 87.4125 192.746 89.389 192.746 91.536V106.857C192.746 110.107 190.112 112.741 186.862 112.741H165.681C162.431 112.741 159.797 110.107 159.797 106.857Z" fill="#345995"/>
<path d="M182.311 100.987C182.944 101.385 183.141 102.229 182.652 102.793C181.968 103.582 181.147 104.246 180.226 104.752C178.907 105.475 177.426 105.85 175.922 105.841C174.418 105.831 172.942 105.438 171.632 104.699C170.717 104.182 169.905 103.508 169.231 102.71C168.748 102.14 168.957 101.299 169.594 100.909C170.232 100.519 171.055 100.734 171.575 101.271C171.983 101.691 172.449 102.053 172.963 102.343C173.872 102.856 174.896 103.128 175.939 103.135C176.982 103.141 178.01 102.881 178.924 102.38C179.442 102.096 179.913 101.74 180.325 101.325C180.852 100.794 181.678 100.59 182.311 100.987Z" fill="white"/>
<path fill-rule="evenodd" clip-rule="evenodd" d="M182.803 102.925C182.104 103.732 181.264 104.411 180.322 104.928C178.974 105.667 177.459 106.051 175.921 106.041C174.383 106.032 172.873 105.63 171.534 104.873C170.598 104.345 169.767 103.655 169.078 102.84C168.503 102.16 168.766 101.181 169.49 100.739C170.228 100.287 171.153 100.548 171.719 101.132C172.113 101.539 172.565 101.888 173.061 102.169C173.94 102.665 174.931 102.929 175.94 102.935C176.949 102.942 177.943 102.69 178.828 102.205C179.329 101.93 179.785 101.586 180.183 101.184C180.757 100.607 181.684 100.358 182.417 100.819C183.135 101.27 183.387 102.252 182.803 102.925ZM182.652 102.794C183.141 102.229 182.944 101.385 182.311 100.988C181.678 100.59 180.852 100.795 180.325 101.325C179.913 101.74 179.442 102.096 178.924 102.38C178.01 102.882 176.982 103.142 175.939 103.135C174.896 103.129 173.871 102.856 172.963 102.343C172.449 102.053 171.982 101.691 171.575 101.271C171.055 100.734 170.232 100.519 169.594 100.909C168.956 101.299 168.748 102.14 169.231 102.711C169.905 103.508 170.717 104.182 171.632 104.699C172.942 105.439 174.418 105.832 175.922 105.841C177.426 105.85 178.907 105.476 180.226 104.752C181.147 104.247 181.968 103.583 182.652 102.794Z" fill="white"/>
<path d="M159.797 146.771V131.446C159.797 129.301 160.964 127.326 162.843 126.291L173.42 120.47C175.185 119.499 177.324 119.498 179.09 120.467L189.695 126.292C191.577 127.326 192.746 129.303 192.746 131.45V146.771C192.746 150.02 190.112 152.654 186.862 152.654H165.681C162.431 152.654 159.797 150.02 159.797 146.771Z" fill="#345995"/>
<path d="M182.311 140.901C182.944 141.299 183.141 142.142 182.652 142.707C181.968 143.496 181.147 144.16 180.226 144.666C178.907 145.389 177.426 145.764 175.922 145.754C174.418 145.745 172.942 145.352 171.632 144.612C170.717 144.095 169.905 143.421 169.231 142.624C168.748 142.053 168.957 141.212 169.594 140.822C170.232 140.433 171.055 140.647 171.575 141.184C171.983 141.605 172.449 141.966 172.963 142.256C173.872 142.769 174.896 143.042 175.939 143.048C176.982 143.055 178.01 142.795 178.924 142.293C179.442 142.009 179.913 141.654 180.325 141.238C180.852 140.708 181.678 140.503 182.311 140.901Z" fill="white"/>
<path fill-rule="evenodd" clip-rule="evenodd" d="M182.803 142.838C182.104 143.645 181.264 144.324 180.322 144.841C178.974 145.581 177.459 145.964 175.921 145.955C174.383 145.945 172.873 145.543 171.534 144.787C170.598 144.258 169.767 143.569 169.078 142.753C168.503 142.073 168.766 141.094 169.49 140.652C170.228 140.201 171.153 140.461 171.719 141.045C172.113 141.452 172.565 141.802 173.061 142.083C173.94 142.579 174.931 142.843 175.94 142.849C176.949 142.855 177.943 142.604 178.828 142.118C179.329 141.844 179.785 141.5 180.183 141.098C180.757 140.521 181.684 140.272 182.417 140.732C183.135 141.183 183.387 142.165 182.803 142.838ZM182.652 142.707C183.141 142.143 182.944 141.299 182.311 140.901C181.678 140.504 180.852 140.708 180.325 141.239C179.913 141.654 179.442 142.01 178.924 142.294C178.01 142.795 176.982 143.055 175.939 143.049C174.896 143.042 173.871 142.77 172.963 142.257C172.449 141.967 171.982 141.605 171.575 141.185C171.055 140.648 170.232 140.433 169.594 140.823C168.956 141.212 168.748 142.054 169.231 142.624C169.905 143.422 170.717 144.096 171.632 144.613C172.942 145.352 174.418 145.745 175.922 145.755C177.426 145.764 178.907 145.389 180.226 144.666C181.147 144.16 181.968 143.496 182.652 142.707Z" fill="white"/>
<path d="M159.797 66.9434V51.6189C159.797 49.4738 160.964 47.4987 162.843 46.4643L173.42 40.6428C175.185 39.6714 177.324 39.6704 179.09 40.6403L189.695 46.4653C191.577 47.4989 192.746 49.4754 192.746 51.6224V66.9434C192.746 70.193 190.112 72.8272 186.862 72.8272H165.681C162.431 72.8272 159.797 70.1929 159.797 66.9434Z" fill="#345995"/>
<path d="M182.311 61.0739C182.944 61.4715 183.141 62.3153 182.652 62.8799C181.968 63.6687 181.147 64.3328 180.226 64.8384C178.907 65.5617 177.426 65.9365 175.922 65.9272C174.418 65.9179 172.942 65.5248 171.632 64.7852C170.717 64.2683 169.905 63.594 169.231 62.7968C168.748 62.2262 168.957 61.3849 169.594 60.9952C170.232 60.6055 171.055 60.8203 171.575 61.357C171.983 61.7774 172.449 62.139 172.963 62.4292C173.872 62.9422 174.896 63.2149 175.939 63.2213C176.982 63.2278 178.01 62.9678 178.924 62.466C179.442 62.1823 179.913 61.8265 180.325 61.4112C180.852 60.8809 181.678 60.6763 182.311 61.0739Z" fill="white"/>
<path fill-rule="evenodd" clip-rule="evenodd" d="M182.803 63.0113C182.104 63.818 181.264 64.4971 180.322 65.0141C178.974 65.7538 177.459 66.1371 175.921 66.1276C174.383 66.1181 172.873 65.7161 171.534 64.9598C170.598 64.4311 169.767 63.7416 169.078 62.9263C168.503 62.246 168.766 61.2671 169.49 60.825C170.228 60.3735 171.153 60.6339 171.719 61.2183C172.113 61.625 172.565 61.9747 173.061 62.2554C173.94 62.7517 174.931 63.0155 175.94 63.0217C176.949 63.028 177.943 62.7765 178.828 62.2911C179.329 62.0166 179.785 61.6724 180.183 61.2706C180.757 60.6934 181.684 60.4444 182.417 60.905C183.135 61.3561 183.387 62.3381 182.803 63.0113ZM182.652 62.8803C183.141 62.3157 182.944 61.4719 182.311 61.0743C181.678 60.6767 180.852 60.8813 180.325 61.4116C179.913 61.8269 179.442 62.1827 178.924 62.4664C178.01 62.9682 176.982 63.2282 175.939 63.2217C174.896 63.2153 173.871 62.9426 172.963 62.4296C172.449 62.1394 171.982 61.7778 171.575 61.3574C171.055 60.8207 170.232 60.6059 169.594 60.9956C168.956 61.3853 168.748 62.2266 169.231 62.7972C169.905 63.5944 170.717 64.2687 171.632 64.7856C172.942 65.5252 174.418 65.9183 175.922 65.9276C177.426 65.9369 178.907 65.5621 180.226 64.8388C181.147 64.3332 181.968 63.6691 182.652 62.8803Z" fill="white"/>
<path d="M159.797 27.0299V11.7053C159.797 9.56022 160.964 7.58512 162.843 6.55075L173.42 0.729235C175.185 -0.242184 177.324 -0.243133 179.09 0.726721L189.695 6.55176C191.577 7.58536 192.746 9.56187 192.746 11.7088V27.0299C192.746 30.2794 190.112 32.9136 186.862 32.9136H165.681C162.431 32.9136 159.797 30.2794 159.797 27.0299Z" fill="#345995"/>
<path d="M182.311 21.1603C182.944 21.5579 183.141 22.4017 182.652 22.9663C181.968 23.7551 181.147 24.4193 180.226 24.9248C178.907 25.6482 177.426 26.0229 175.922 26.0136C174.418 26.0043 172.942 25.6112 171.632 24.8716C170.717 24.3547 169.905 23.6805 169.231 22.8832C168.748 22.3126 168.957 21.4714 169.594 21.0817C170.232 20.6919 171.055 20.9067 171.575 21.4434C171.983 21.8638 172.449 22.2254 172.963 22.5156C173.872 23.0286 174.896 23.3013 175.939 23.3078C176.982 23.3142 178.01 23.0542 178.924 22.5525C179.442 22.2687 179.913 21.9129 180.325 21.4976C180.852 20.9673 181.678 20.7628 182.311 21.1603Z" fill="white"/>
<path fill-rule="evenodd" clip-rule="evenodd" d="M182.803 23.0977C182.104 23.9044 181.264 24.5836 180.322 25.1006C178.974 25.8403 177.459 26.2235 175.921 26.214C174.383 26.2045 172.873 25.8025 171.534 25.0462C170.598 24.5176 169.767 23.828 169.078 23.0128C168.503 22.3324 168.766 21.3536 169.49 20.9114C170.228 20.4599 171.153 20.7204 171.719 21.3047C172.113 21.7114 172.565 22.0612 173.061 22.3418C173.94 22.8381 174.931 23.1019 175.94 23.1082C176.949 23.1144 177.943 22.8629 178.828 22.3775C179.329 22.103 179.785 21.7589 180.183 21.3571C180.757 20.7798 181.684 20.5308 182.417 20.9914C183.135 21.4425 183.387 22.4245 182.803 23.0977ZM182.652 22.9667C183.141 22.4021 182.944 21.5583 182.311 21.1607C181.678 20.7632 180.852 20.9677 180.325 21.498C179.913 21.9133 179.442 22.2691 178.924 22.5529C178.01 23.0546 176.982 23.3146 175.939 23.3081C174.896 23.3017 173.871 23.029 172.963 22.516C172.449 22.2258 171.982 21.8642 171.575 21.4438C171.055 20.9071 170.232 20.6923 169.594 21.0821C168.956 21.4718 168.748 22.313 169.231 22.8836C169.905 23.6809 170.717 24.3551 171.632 24.872C172.942 25.6116 174.418 26.0047 175.922 26.014C177.426 26.0233 178.907 25.6485 180.226 24.9252C181.147 24.4197 181.968 23.7555 182.652 22.9667Z" fill="white"/>
</svg>
