<svg width="73" height="73" viewBox="0 0 73 73" fill="none" xmlns="http://www.w3.org/2000/svg">
<path d="M0 67.0299V51.7053C0 49.5602 1.16739 47.5851 3.04662 46.5508L13.6231 40.7292C15.388 39.7578 17.5272 39.7569 19.2929 40.7267L29.898 46.5518C31.7798 47.5854 32.9492 49.5619 32.9492 51.7088V67.0299C32.9492 70.2794 30.3149 72.9136 27.0654 72.9136H5.88379C2.63426 72.9136 0 70.2794 0 67.0299Z" fill="#34954F"/>
<path d="M21.8435 60C22.4823 60 23.0092 60.5208 22.9114 61.1519C22.8304 61.6746 22.6944 62.1869 22.5052 62.6788C22.1786 63.5281 21.6998 64.2997 21.0962 64.9497C20.4926 65.5998 19.7761 66.1154 18.9875 66.4672C18.1988 66.8189 17.3536 67 16.5 67C15.6464 67 14.8012 66.8189 14.0126 66.4672C13.224 66.1154 12.5074 65.5998 11.9038 64.9497C11.3002 64.2997 10.8215 63.5281 10.4948 62.6788C10.3056 62.1869 10.1696 61.6746 10.0886 61.1519C9.99086 60.5208 10.5178 60 11.1565 60C11.7952 60 12.299 60.525 12.4503 61.1455C12.4984 61.3426 12.559 61.5365 12.6317 61.7256C12.8421 62.2726 13.1505 62.7697 13.5393 63.1884C13.9281 63.6071 14.3897 63.9393 14.8977 64.1659C15.4057 64.3925 15.9502 64.5091 16.5 64.5091C17.0499 64.5091 17.5943 64.3925 18.1023 64.1659C18.6103 63.9393 19.0719 63.6071 19.4607 63.1884C19.8495 62.7697 20.1579 62.2726 20.3683 61.7256C20.4411 61.5365 20.5016 61.3426 20.5497 61.1455C20.701 60.525 21.2048 60 21.8435 60Z" fill="white"/>
<path fill-rule="evenodd" clip-rule="evenodd" d="M11.1564 60.25C10.6433 60.25 10.2653 60.6602 10.3356 61.1137C10.4139 61.6189 10.5453 62.114 10.728 62.589C11.0435 63.4094 11.5056 64.1536 12.0869 64.7796C12.6682 65.4057 13.3573 65.9012 14.1143 66.2388C14.8713 66.5765 15.6818 66.75 16.4999 66.75C17.318 66.75 18.1286 66.5765 18.8855 66.2388C19.6425 65.9012 20.3316 65.4057 20.9129 64.7796C21.4942 64.1536 21.9563 63.4094 22.2718 62.589C22.4545 62.114 22.586 61.6189 22.6642 61.1137C22.7345 60.6602 22.3566 60.25 21.8434 60.25C21.3533 60.25 20.9253 60.6603 20.7925 61.2048C20.7419 61.4122 20.6782 61.6162 20.6016 61.8153C20.38 62.3913 20.0548 62.9159 19.6438 63.3585C19.2327 63.8013 18.7437 64.1535 18.2041 64.3942C17.6644 64.6349 17.0853 64.7591 16.4999 64.7591C15.9145 64.7591 15.3354 64.6349 14.7958 64.3942C14.2561 64.1535 13.7671 63.8013 13.356 63.3585C12.945 62.9159 12.6198 62.3913 12.3983 61.8153C12.3217 61.6162 12.2579 61.4122 12.2074 61.2048C12.0746 60.6603 11.6466 60.25 11.1564 60.25ZM9.84148 61.1902C9.71616 60.3813 10.3921 59.75 11.1564 59.75C11.9436 59.75 12.5232 60.3897 12.6931 61.0863C12.7387 61.2731 12.796 61.4567 12.8649 61.6358C13.0642 62.1539 13.3559 62.6236 13.7224 63.0183C14.0889 63.413 14.5231 63.7251 14.9994 63.9376C15.4758 64.1501 15.9856 64.2591 16.4999 64.2591C17.0142 64.2591 17.524 64.1501 18.0004 63.9376C18.4768 63.7251 18.9109 63.413 19.2774 63.0183C19.644 62.6236 19.9356 62.1539 20.1349 61.6358C20.2038 61.4567 20.2611 61.2731 20.3067 61.0863C20.4766 60.3897 21.0562 59.75 21.8434 59.75C22.6077 59.75 23.2837 60.3813 23.1583 61.1902C23.0747 61.7303 22.9341 62.2599 22.7385 62.7685C22.4007 63.6468 21.9051 64.4459 21.2793 65.1199C20.6534 65.7939 19.9094 66.3296 19.0892 66.6955C18.2689 67.0614 17.389 67.25 16.4999 67.25C15.6108 67.25 14.7309 67.0614 13.9106 66.6955C13.0904 66.3296 12.3464 65.7939 11.7205 65.1199C11.0947 64.4459 10.5992 63.6468 10.2614 62.7685C10.0657 62.2599 9.92514 61.7303 9.84148 61.1902Z" fill="white"/>
<path d="M40 67.0299V51.7053C40 49.5602 41.1674 47.5851 43.0466 46.5508L53.6231 40.7292C55.388 39.7578 57.5272 39.7569 59.2929 40.7267L69.898 46.5518C71.7798 47.5854 72.9492 49.5619 72.9492 51.7088V67.0299C72.9492 70.2794 70.3149 72.9136 67.0654 72.9136H45.8838C42.6343 72.9136 40 70.2794 40 67.0299Z" fill="#34954F"/>
<path d="M61.8435 60C62.4823 60 63.0092 60.5208 62.9114 61.1519C62.8304 61.6746 62.6944 62.1869 62.5052 62.6788C62.1786 63.5281 61.6998 64.2997 61.0962 64.9497C60.4926 65.5998 59.7761 66.1154 58.9875 66.4672C58.1988 66.8189 57.3536 67 56.5 67C55.6464 67 54.8012 66.8189 54.0126 66.4672C53.224 66.1154 52.5074 65.5998 51.9038 64.9497C51.3002 64.2997 50.8215 63.5281 50.4948 62.6788C50.3056 62.1869 50.1696 61.6746 50.0886 61.1519C49.9909 60.5208 50.5178 60 51.1565 60C51.7952 60 52.299 60.525 52.4503 61.1455C52.4984 61.3426 52.559 61.5365 52.6317 61.7256C52.8421 62.2726 53.1505 62.7697 53.5393 63.1884C53.9281 63.6071 54.3897 63.9393 54.8977 64.1659C55.4057 64.3925 55.9502 64.5091 56.5 64.5091C57.0499 64.5091 57.5943 64.3925 58.1023 64.1659C58.6103 63.9393 59.0719 63.6071 59.4607 63.1884C59.8495 62.7697 60.1579 62.2726 60.3683 61.7256C60.4411 61.5365 60.5016 61.3426 60.5497 61.1455C60.701 60.525 61.2048 60 61.8435 60Z" fill="white"/>
<path fill-rule="evenodd" clip-rule="evenodd" d="M51.1564 60.25C50.6433 60.25 50.2653 60.6602 50.3356 61.1137C50.4139 61.6189 50.5453 62.114 50.728 62.589C51.0435 63.4094 51.5056 64.1536 52.0869 64.7796C52.6682 65.4057 53.3573 65.9012 54.1143 66.2388C54.8713 66.5765 55.6818 66.75 56.4999 66.75C57.318 66.75 58.1286 66.5765 58.8855 66.2388C59.6425 65.9012 60.3316 65.4057 60.9129 64.7796C61.4942 64.1536 61.9563 63.4094 62.2718 62.589C62.4545 62.114 62.586 61.6189 62.6642 61.1137C62.7345 60.6602 62.3566 60.25 61.8434 60.25C61.3533 60.25 60.9253 60.6603 60.7925 61.2048C60.7419 61.4122 60.6782 61.6162 60.6016 61.8153C60.38 62.3913 60.0548 62.9159 59.6438 63.3585C59.2327 63.8013 58.7437 64.1535 58.2041 64.3942C57.6644 64.6349 57.0853 64.7591 56.4999 64.7591C55.9145 64.7591 55.3354 64.6349 54.7958 64.3942C54.2561 64.1535 53.7671 63.8013 53.356 63.3585C52.945 62.9159 52.6198 62.3913 52.3983 61.8153C52.3217 61.6162 52.2579 61.4122 52.2074 61.2048C52.0746 60.6603 51.6466 60.25 51.1564 60.25ZM49.8415 61.1902C49.7162 60.3813 50.3921 59.75 51.1564 59.75C51.9436 59.75 52.5232 60.3897 52.6931 61.0863C52.7387 61.2731 52.796 61.4567 52.8649 61.6358C53.0642 62.1539 53.3559 62.6236 53.7224 63.0183C54.0889 63.413 54.5231 63.7251 54.9994 63.9376C55.4758 64.1501 55.9856 64.2591 56.4999 64.2591C57.0142 64.2591 57.524 64.1501 58.0004 63.9376C58.4768 63.7251 58.9109 63.413 59.2774 63.0183C59.644 62.6236 59.9356 62.1539 60.1349 61.6358C60.2038 61.4567 60.2611 61.2731 60.3067 61.0863C60.4766 60.3897 61.0562 59.75 61.8434 59.75C62.6077 59.75 63.2837 60.3813 63.1583 61.1902C63.0747 61.7303 62.9341 62.2599 62.7385 62.7685C62.4007 63.6468 61.9051 64.4459 61.2793 65.1199C60.6534 65.7939 59.9094 66.3296 59.0892 66.6955C58.2689 67.0614 57.389 67.25 56.4999 67.25C55.6108 67.25 54.7309 67.0614 53.9106 66.6955C53.0904 66.3296 52.3464 65.7939 51.7205 65.1199C51.0947 64.4459 50.5992 63.6468 50.2614 62.7685C50.0657 62.2599 49.9251 61.7303 49.8415 61.1902Z" fill="white"/>
<path d="M0 27.0299V11.7053C0 9.56022 1.16739 7.58512 3.04662 6.55075L13.6231 0.729235C15.388 -0.242184 17.5272 -0.243133 19.2929 0.726721L29.898 6.55176C31.7798 7.58536 32.9492 9.56187 32.9492 11.7088V27.0299C32.9492 30.2794 30.3149 32.9136 27.0654 32.9136H5.88379C2.63426 32.9136 0 30.2794 0 27.0299Z" fill="#34954F"/>
<path d="M21.8435 20C22.4823 20 23.0092 20.5208 22.9114 21.1519C22.8304 21.6746 22.6944 22.1869 22.5052 22.6788C22.1786 23.5281 21.6998 24.2997 21.0962 24.9497C20.4926 25.5998 19.7761 26.1154 18.9875 26.4672C18.1988 26.8189 17.3536 27 16.5 27C15.6464 27 14.8012 26.8189 14.0126 26.4672C13.224 26.1154 12.5074 25.5998 11.9038 24.9497C11.3002 24.2997 10.8215 23.5281 10.4948 22.6788C10.3056 22.1869 10.1696 21.6746 10.0886 21.1519C9.99086 20.5208 10.5178 20 11.1565 20C11.7952 20 12.299 20.525 12.4503 21.1455C12.4984 21.3426 12.559 21.5365 12.6317 21.7256C12.8421 22.2726 13.1505 22.7697 13.5393 23.1884C13.9281 23.6071 14.3897 23.9393 14.8977 24.1659C15.4057 24.3925 15.9502 24.5091 16.5 24.5091C17.0499 24.5091 17.5943 24.3925 18.1023 24.1659C18.6103 23.9393 19.0719 23.6071 19.4607 23.1884C19.8495 22.7697 20.1579 22.2726 20.3683 21.7256C20.4411 21.5365 20.5016 21.3426 20.5497 21.1455C20.701 20.525 21.2048 20 21.8435 20Z" fill="white"/>
<path fill-rule="evenodd" clip-rule="evenodd" d="M11.1564 20.25C10.6433 20.25 10.2653 20.6602 10.3356 21.1137C10.4139 21.6189 10.5453 22.114 10.728 22.589C11.0435 23.4094 11.5056 24.1536 12.0869 24.7796C12.6682 25.4057 13.3573 25.9012 14.1143 26.2388C14.8713 26.5765 15.6818 26.75 16.4999 26.75C17.318 26.75 18.1286 26.5765 18.8855 26.2388C19.6425 25.9012 20.3316 25.4057 20.9129 24.7796C21.4942 24.1536 21.9563 23.4094 22.2718 22.589C22.4545 22.114 22.586 21.6189 22.6642 21.1137C22.7345 20.6602 22.3566 20.25 21.8434 20.25C21.3533 20.25 20.9253 20.6603 20.7925 21.2048C20.7419 21.4122 20.6782 21.6162 20.6016 21.8153C20.38 22.3913 20.0548 22.9159 19.6438 23.3585C19.2327 23.8013 18.7437 24.1535 18.2041 24.3942C17.6644 24.6349 17.0853 24.7591 16.4999 24.7591C15.9145 24.7591 15.3354 24.6349 14.7958 24.3942C14.2561 24.1535 13.7671 23.8013 13.356 23.3585C12.945 22.9159 12.6198 22.3913 12.3983 21.8153C12.3217 21.6162 12.2579 21.4122 12.2074 21.2048C12.0746 20.6603 11.6466 20.25 11.1564 20.25ZM9.84148 21.1902C9.71616 20.3813 10.3921 19.75 11.1564 19.75C11.9436 19.75 12.5232 20.3897 12.6931 21.0863C12.7387 21.2731 12.796 21.4567 12.8649 21.6358C13.0642 22.1539 13.3559 22.6236 13.7224 23.0183C14.0889 23.413 14.5231 23.7251 14.9994 23.9376C15.4758 24.1501 15.9856 24.2591 16.4999 24.2591C17.0142 24.2591 17.524 24.1501 18.0004 23.9376C18.4768 23.7251 18.9109 23.413 19.2774 23.0183C19.644 22.6236 19.9356 22.1539 20.1349 21.6358C20.2038 21.4567 20.2611 21.2731 20.3067 21.0863C20.4766 20.3897 21.0562 19.75 21.8434 19.75C22.6077 19.75 23.2837 20.3813 23.1583 21.1902C23.0747 21.7303 22.9341 22.2599 22.7385 22.7685C22.4007 23.6468 21.9051 24.4459 21.2793 25.1199C20.6534 25.7939 19.9094 26.3296 19.0892 26.6955C18.2689 27.0614 17.389 27.25 16.4999 27.25C15.6108 27.25 14.7309 27.0614 13.9106 26.6955C13.0904 26.3296 12.3464 25.7939 11.7205 25.1199C11.0947 24.4459 10.5992 23.6468 10.2614 22.7685C10.0657 22.2599 9.92514 21.7303 9.84148 21.1902Z" fill="white"/>
<path d="M40 27.0299V11.7053C40 9.56022 41.1674 7.58512 43.0466 6.55075L53.6231 0.729235C55.388 -0.242184 57.5272 -0.243133 59.2929 0.726721L69.898 6.55176C71.7798 7.58536 72.9492 9.56187 72.9492 11.7088V27.0299C72.9492 30.2794 70.3149 32.9136 67.0654 32.9136H45.8838C42.6343 32.9136 40 30.2794 40 27.0299Z" fill="#34954F"/>
<path d="M61.8435 20C62.4823 20 63.0092 20.5208 62.9114 21.1519C62.8304 21.6746 62.6944 22.1869 62.5052 22.6788C62.1786 23.5281 61.6998 24.2997 61.0962 24.9497C60.4926 25.5998 59.7761 26.1154 58.9875 26.4672C58.1988 26.8189 57.3536 27 56.5 27C55.6464 27 54.8012 26.8189 54.0126 26.4672C53.224 26.1154 52.5074 25.5998 51.9038 24.9497C51.3002 24.2997 50.8215 23.5281 50.4948 22.6788C50.3056 22.1869 50.1696 21.6746 50.0886 21.1519C49.9909 20.5208 50.5178 20 51.1565 20C51.7952 20 52.299 20.525 52.4503 21.1455C52.4984 21.3426 52.559 21.5365 52.6317 21.7256C52.8421 22.2726 53.1505 22.7697 53.5393 23.1884C53.9281 23.6071 54.3897 23.9393 54.8977 24.1659C55.4057 24.3925 55.9502 24.5091 56.5 24.5091C57.0499 24.5091 57.5943 24.3925 58.1023 24.1659C58.6103 23.9393 59.0719 23.6071 59.4607 23.1884C59.8495 22.7697 60.1579 22.2726 60.3683 21.7256C60.4411 21.5365 60.5016 21.3426 60.5497 21.1455C60.701 20.525 61.2048 20 61.8435 20Z" fill="white"/>
<path fill-rule="evenodd" clip-rule="evenodd" d="M51.1564 20.25C50.6433 20.25 50.2653 20.6602 50.3356 21.1137C50.4139 21.6189 50.5453 22.114 50.728 22.589C51.0435 23.4094 51.5056 24.1536 52.0869 24.7796C52.6682 25.4057 53.3573 25.9012 54.1143 26.2388C54.8713 26.5765 55.6818 26.75 56.4999 26.75C57.318 26.75 58.1286 26.5765 58.8855 26.2388C59.6425 25.9012 60.3316 25.4057 60.9129 24.7796C61.4942 24.1536 61.9563 23.4094 62.2718 22.589C62.4545 22.114 62.586 21.6189 62.6642 21.1137C62.7345 20.6602 62.3566 20.25 61.8434 20.25C61.3533 20.25 60.9253 20.6603 60.7925 21.2048C60.7419 21.4122 60.6782 21.6162 60.6016 21.8153C60.38 22.3913 60.0548 22.9159 59.6438 23.3585C59.2327 23.8013 58.7437 24.1535 58.2041 24.3942C57.6644 24.6349 57.0853 24.7591 56.4999 24.7591C55.9145 24.7591 55.3354 24.6349 54.7958 24.3942C54.2561 24.1535 53.7671 23.8013 53.356 23.3585C52.945 22.9159 52.6198 22.3913 52.3983 21.8153C52.3217 21.6162 52.2579 21.4122 52.2074 21.2048C52.0746 20.6603 51.6466 20.25 51.1564 20.25ZM49.8415 21.1902C49.7162 20.3813 50.3921 19.75 51.1564 19.75C51.9436 19.75 52.5232 20.3897 52.6931 21.0863C52.7387 21.2731 52.796 21.4567 52.8649 21.6358C53.0642 22.1539 53.3559 22.6236 53.7224 23.0183C54.0889 23.413 54.5231 23.7251 54.9994 23.9376C55.4758 24.1501 55.9856 24.2591 56.4999 24.2591C57.0142 24.2591 57.524 24.1501 58.0004 23.9376C58.4768 23.7251 58.9109 23.413 59.2774 23.0183C59.644 22.6236 59.9356 22.1539 60.1349 21.6358C60.2038 21.4567 60.2611 21.2731 60.3067 21.0863C60.4766 20.3897 61.0562 19.75 61.8434 19.75C62.6077 19.75 63.2837 20.3813 63.1583 21.1902C63.0747 21.7303 62.9341 22.2599 62.7385 22.7685C62.4007 23.6468 61.9051 24.4459 61.2793 25.1199C60.6534 25.7939 59.9094 26.3296 59.0892 26.6955C58.2689 27.0614 57.389 27.25 56.4999 27.25C55.6108 27.25 54.7309 27.0614 53.9106 26.6955C53.0904 26.3296 52.3464 25.7939 51.7205 25.1199C51.0947 24.4459 50.5992 23.6468 50.2614 22.7685C50.0657 22.2599 49.9251 21.7303 49.8415 21.1902Z" fill="white"/>
</svg>
