<svg width="33" height="33" viewBox="0 0 33 33" fill="none" xmlns="http://www.w3.org/2000/svg">
<path d="M0 27.0299V11.7053C0 9.56022 1.16739 7.58512 3.04662 6.55075L13.6231 0.729235C15.388 -0.242184 17.5272 -0.243133 19.2929 0.726721L29.898 6.55176C31.7798 7.58536 32.9492 9.56187 32.9492 11.7088V27.0299C32.9492 30.2794 30.3149 32.9136 27.0654 32.9136H5.88379C2.63426 32.9136 0 30.2794 0 27.0299Z" fill="#DE0111"/>
<path d="M9.34548 25.428C8.71282 25.0304 8.51513 24.1867 9.00458 23.6221C9.68841 22.8333 10.5091 22.1691 11.4306 21.6636C12.7491 20.9402 14.2304 20.5655 15.7342 20.5748C17.2381 20.5841 18.7146 20.9771 20.0241 21.7167C20.9393 22.2337 21.7516 22.9079 22.4257 23.7051C22.9081 24.2758 22.7 25.117 22.0624 25.5067C21.4249 25.8964 20.6011 25.6817 20.0812 25.1449C19.674 24.7245 19.207 24.3629 18.6933 24.0728C17.785 23.5597 16.7607 23.2871 15.7175 23.2806C14.6743 23.2742 13.6467 23.5341 12.7321 24.0359C12.2149 24.3197 11.7434 24.6755 11.331 25.0908C10.8045 25.621 9.97814 25.8256 9.34548 25.428Z" fill="white"/>
<path fill-rule="evenodd" clip-rule="evenodd" d="M8.85352 23.4907C9.55283 22.684 10.3921 22.0048 11.3345 21.4878C12.6828 20.7481 14.1977 20.3649 15.7355 20.3744C17.2734 20.3839 18.7834 20.7859 20.1225 21.5422C21.0584 22.0708 21.8892 22.7603 22.5785 23.5756C23.1537 24.256 22.8901 25.2348 22.1668 25.677C21.4283 26.1284 20.5036 25.868 19.9376 25.2837C19.5437 24.877 19.0919 24.5272 18.595 24.2465C17.7163 23.7502 16.7255 23.4865 15.7163 23.4802C14.7072 23.474 13.7131 23.7255 12.8284 24.2109C12.328 24.4854 11.8719 24.8295 11.473 25.2313C10.8998 25.8086 9.97204 26.0576 9.23912 25.597C8.52135 25.1459 8.26992 24.1639 8.85352 23.4907ZM9.00464 23.6217C8.51519 24.1863 8.71288 25.0301 9.34554 25.4276C9.9782 25.8252 10.8046 25.6206 11.3311 25.0904C11.7435 24.6751 12.2149 24.3193 12.7322 24.0355C13.6468 23.5337 14.6744 23.2738 15.7176 23.2802C16.7607 23.2867 17.785 23.5594 18.6934 24.0724C19.2071 24.3625 19.6741 24.7241 20.0813 25.1446C20.6012 25.6813 21.425 25.896 22.0625 25.5063C22.7 25.1166 22.9081 24.2754 22.4257 23.7047C21.7517 22.9075 20.9393 22.2333 20.0241 21.7163C18.7147 20.9767 17.2381 20.5837 15.7343 20.5744C14.2305 20.5651 12.7491 20.9398 11.4307 21.6632C10.5091 22.1687 9.68847 22.8329 9.00464 23.6217Z" fill="white"/>
</svg>
