<svg width="60" height="60" viewBox="0 0 60 60" fill="none" xmlns="http://www.w3.org/2000/svg">
<path d="M59.0483 3.40501L55.1569 0.190342C54.8185 -0.0634473 54.3955 -0.0634473 54.0571 0.190342L50.1657 3.40501C49.9965 3.5742 49.8273 3.82799 49.8273 4.08178V12.4568H46.8664V4.08178C46.8664 3.82799 46.7818 3.5742 46.528 3.40501L42.6366 0.190342C42.2982 -0.0634473 41.8752 -0.0634473 41.5368 0.190342L37.6454 3.40501C37.4762 3.5742 37.307 3.82799 37.307 4.08178V12.4568H34.3461V4.08178C34.3461 3.82799 34.2615 3.5742 34.0078 3.40501L30.1163 0.190342C29.7779 -0.0634473 29.355 -0.0634473 29.0166 0.190342L25.2943 3.40501C25.1251 3.5742 25.0405 3.82799 25.0405 4.08178V12.4568H22.0797V4.08178C22.0797 3.82799 21.9951 3.5742 21.7413 3.40501L17.8498 0.190342C17.5115 -0.0634473 17.0885 -0.0634473 16.7501 0.190342L12.8587 3.40501C12.6895 3.5742 12.5203 3.82799 12.5203 4.08178V12.4568H9.55939V4.08178C9.55939 3.82799 9.4748 3.5742 9.22101 3.40501L5.32957 0.190342C4.99119 -0.0634473 4.56821 -0.0634473 4.22982 0.190342L0.338386 3.40501C0.169193 3.5742 0 3.82799 0 4.08178V59.154C0 59.6616 0.338386 60 0.845964 60H8.62883C9.13641 60 9.4748 59.6616 9.4748 59.154V50.6944H12.6049V59.154C12.6049 59.6616 12.9432 60 13.4508 60H21.2337C21.7413 60 22.0797 59.6616 22.0797 59.154V50.6944H25.0405V59.154C25.0405 59.6616 25.3789 60 25.8865 60H33.6694C34.1769 60 34.5153 59.6616 34.5153 59.154V50.6944H37.4762V59.154C37.4762 59.6616 37.8146 60 38.3222 60H46.105C46.6126 60 46.951 59.6616 46.951 59.154V50.6944H49.9119V59.154C49.9119 59.6616 50.2503 60 50.7578 60H58.5407C59.0483 60 59.3867 59.6616 59.3867 59.154V4.08178C59.3867 3.82799 59.3021 3.5742 59.0483 3.40501ZM7.95206 58.3081H1.86112V4.50476L4.90659 1.96687L7.95206 4.50476V58.3081ZM12.6049 49.0025H9.64399V14.1487H12.6049V49.0025ZM20.3877 58.3081H14.2968V4.50476L17.3423 1.96687L20.3877 4.50476V58.3081ZM25.0405 49.0025H22.0797V14.1487H25.0405V49.0025ZM32.8234 58.3927H26.7325V4.50476L29.7779 1.96687L32.8234 4.50476V58.3927ZM37.4762 49.0025H34.5153V14.1487H37.4762V49.0025ZM45.2591 58.3927H39.1681V4.50476L42.2136 1.96687L45.2591 4.50476V58.3927ZM49.9119 49.0025H46.951V14.1487H49.9119V49.0025ZM57.6948 58.3927H51.6038V4.50476L54.6493 1.96687L57.6948 4.50476V58.3927Z" fill="#345995"/>
</svg>
