<svg width="60" height="60" viewBox="0 0 60 60" fill="none" xmlns="http://www.w3.org/2000/svg">
<path d="M59.9998 38.6348V28.0009H58.7258C54.8213 28.0009 51.2723 29.5209 48.6367 32.0008H30.9998V16.0008H56.4152C58.1059 16.0008 58.6296 13.7133 57.1079 12.9768L30.4351 0.10038C30.1604 -0.0321581 29.8403 -0.0321581 29.5656 0.10038L2.89276 12.9763C1.37015 13.7134 1.89386 16.0009 3.58452 16.0009H28.9999V32.0008H11.363C8.7275 29.5209 5.17861 28.0009 1.27394 28.0009H0V38.6348C0 41.383 2.06589 43.6466 4.72897 43.9618L1.02984 58.7581C0.895895 59.2939 1.22167 59.8368 1.75745 59.9708C2.29323 60.1047 2.83616 59.7789 2.97011 59.2432L6.55146 44.918L11.0455 59.2989C11.2102 59.826 11.7711 60.1198 12.2982 59.9552C12.8253 59.7904 13.1191 59.2296 12.9544 58.7024L8.36012 44.0008H15.9999V42.7268C15.9999 41.0737 15.7276 39.4842 15.2252 38.0008H23.9998V42.0007H26.9998V50.0007C26.9998 54.4194 23.4185 58.0007 18.9998 58.0007H16.9997C16.4474 58.0007 15.9998 58.4485 15.9998 59.0007C15.9998 59.5529 16.4474 60.0006 16.9997 60.0006H18.9998H40.9996H42.9997C43.552 60.0006 43.9996 59.5529 43.9996 59.0007C43.9996 58.4485 43.552 58.0007 42.9997 58.0007H40.9996C36.581 58.0007 32.9996 54.4195 32.9996 50.0007V42.0007H35.9996V38.0008H44.7742C44.272 39.4841 43.9995 41.0737 43.9995 42.7268V44.0008H50.7187L47.0293 58.7581C46.8953 59.2939 47.2211 59.8368 47.7569 59.9708C48.2927 60.1047 48.8356 59.7789 48.9695 59.2432L52.5509 44.918L57.0449 59.2989C57.2097 59.826 57.7705 60.1198 58.2976 59.9552C58.8247 59.7904 59.1185 59.2296 58.9539 58.7024L54.3595 44.0008H54.6333C57.5974 44.0008 59.9998 41.5987 59.9998 38.6348ZM30.0003 2.11131L54.629 14.0009H5.37092L30.0003 2.11131ZM7.0045 42.0007C7.00099 42.0007 6.99735 42.0007 6.99384 42.0007H5.36599C3.50694 42.0007 2.00003 40.494 2.00003 38.6348V30.0212C5.16432 30.199 8.01911 31.5335 10.1499 33.6078L10.252 33.7094C11.3144 34.7671 12.1866 36.0241 12.828 37.4186L13.0767 37.9593C13.586 39.2189 13.8997 40.5785 13.9797 42.0007H7.0045ZM33.9998 40.0007H30.9998V50.0006C30.9998 53.272 32.5703 56.1763 34.9985 58.0006H25.0011C27.4294 56.1763 28.9998 53.272 28.9998 50.0006V40.0007H25.9998V38.0007H33.9998V40.0007ZM35.9999 36.0007H23.9999H14.3774C14.0167 35.2994 13.6008 34.6311 13.1364 34.0007H46.8633C46.3989 34.6311 45.983 35.2993 45.6223 36.0007H35.9999ZM46.9232 37.9592L47.1718 37.4186C47.8131 36.0241 48.6855 34.7671 49.7478 33.7094L49.8495 33.6081C51.9803 31.5336 54.8352 30.199 57.9997 30.021V38.6346C57.9997 40.4939 56.4928 42.0006 54.6338 42.0006H53.0043C53.0008 42.0006 52.9971 42.0006 52.9936 42.0006H46.0202C46.1002 40.5784 46.4139 39.2188 46.9232 37.9592Z" fill="#345995"/>
</svg>
