<svg width="55" height="60" viewBox="0 0 55 60" fill="none" xmlns="http://www.w3.org/2000/svg">
<path d="M51.9355 17.5781C50.7879 17.5781 49.8095 18.3129 49.4461 19.3359H47.3C47.4114 18.7141 47.4849 18.0793 47.5163 17.4337C48.5503 17.076 49.2947 16.0939 49.2947 14.9413C49.2947 13.784 48.5438 12.7993 47.5031 12.4453C47.1237 7.45837 42.9414 3.51561 37.8513 3.51561H33.45V1.75781H34.3302C34.8164 1.75781 35.2105 1.36429 35.2105 0.878903C35.2105 0.393514 34.8164 0 34.3302 0H20.246C19.7599 0 19.3658 0.393514 19.3658 0.878903C19.3658 1.36429 19.7599 1.75781 20.246 1.75781H21.1263V3.51561H16.725C11.6348 3.51561 7.45254 7.45837 7.0732 12.4453C6.0325 12.7992 5.28157 13.784 5.28157 14.9413C5.28157 16.0939 6.02592 17.076 7.05994 17.4337C7.09139 18.0793 7.16487 18.7141 7.27625 19.3359H5.13017C4.7668 18.3129 3.78841 17.5781 2.64079 17.5781C1.1846 17.5781 0 18.7608 0 20.2148C0 21.6687 1.1846 22.8515 2.64079 22.8515C3.78841 22.8515 4.7668 22.1166 5.13017 21.0937H7.70347C8.93455 25.0799 11.7946 28.3591 15.504 30.1537L11.305 47.7216C11.1206 47.705 10.9344 47.6951 10.7458 47.6951C7.34808 47.6951 4.58394 50.455 4.58394 53.8474C4.58394 57.2399 7.34808 59.9998 10.7458 59.9998C14.1435 59.9998 16.9076 57.2399 16.9076 53.8474C16.9076 51.2559 15.2937 49.035 13.0173 48.1302L14.0175 43.9451H40.5587L44.2347 59.3249C44.3312 59.7285 44.692 60 45.0902 60C45.1578 60 45.2266 59.9921 45.2952 59.9757C45.7681 59.8631 46.06 59.389 45.9471 58.9168L39.0723 30.1537C42.7818 28.3591 45.6417 25.0799 46.8728 21.0937H49.4461C49.8095 22.1166 50.7879 22.8515 51.9355 22.8515C53.3917 22.8515 54.5763 21.6687 54.5763 20.2148C54.5763 18.7608 53.3916 17.5781 51.9355 17.5781ZM2.64079 21.0937C2.15535 21.0937 1.76052 20.6994 1.76052 20.2148C1.76052 19.7301 2.15535 19.3359 2.64079 19.3359C3.12622 19.3359 3.52105 19.7301 3.52105 20.2148C3.52105 20.6994 3.12611 21.0937 2.64079 21.0937ZM15.1471 53.8474C15.1471 56.2706 13.1727 58.242 10.7458 58.242C8.31883 58.242 6.34446 56.2706 6.34446 53.8474C6.34446 51.4243 8.31883 49.4529 10.7458 49.4529C13.1727 49.4529 15.1471 51.4243 15.1471 53.8474ZM22.8868 1.75781H31.6894V3.51561H22.8868V1.75781ZM16.725 5.27342H37.8513C41.9221 5.27342 45.2841 8.3552 45.7235 12.3046H8.85262C9.29217 8.3552 12.6542 5.27342 16.725 5.27342ZM40.1386 42.1873H14.4377L17.1517 30.8324C17.8671 31.078 18.6065 31.2712 19.3658 31.4068V36.035C19.3658 36.5204 19.7599 36.9139 20.246 36.9139H34.3302C34.8164 36.9139 35.2105 36.5204 35.2105 36.035V31.4068C35.9699 31.2712 36.7093 31.078 37.4246 30.8324L40.1386 42.1873ZM21.1263 35.1561V31.6139C21.4177 31.6309 21.711 31.6405 22.0066 31.6405H32.5697C32.8652 31.6405 33.1585 31.6309 33.45 31.6139V35.1561H21.1263ZM46.6539 15.8203H11.4434C10.9573 15.8203 10.5631 16.2138 10.5631 16.6992C10.5631 17.1845 10.9573 17.5781 11.4434 17.5781H45.7447C45.2899 24.439 39.5544 29.8827 32.5697 29.8827H22.0066C14.7259 29.8827 8.80262 23.9686 8.80262 16.6992C8.80262 16.2138 8.4085 15.8203 7.92236 15.8203C7.43693 15.8203 7.0421 15.426 7.0421 14.9413C7.0421 14.4567 7.43693 14.0624 7.92236 14.0624H46.6539C47.1393 14.0624 47.5342 14.4567 47.5342 14.9413C47.5342 15.426 47.1392 15.8203 46.6539 15.8203ZM51.9355 21.0937C51.4501 21.0937 51.0552 20.6994 51.0552 20.2148C51.0552 19.7301 51.4501 19.3359 51.9355 19.3359C52.4209 19.3359 52.8157 19.7301 52.8157 20.2148C52.8157 20.6994 52.4208 21.0937 51.9355 21.0937Z" fill="#345995"/>
</svg>
