<svg width="60" height="60" viewBox="0 0 60 60" fill="none" xmlns="http://www.w3.org/2000/svg">
<path d="M59.1211 58.2422H52.0312V46.2165C56.4988 45.7216 60 41.4971 60 36.375C60 31.3372 56.6125 27.17 52.2505 26.5632C53.1213 25.4709 53.7164 24.158 53.9445 22.7314C54.021 22.2521 53.6945 21.8014 53.2152 21.7248C52.7343 21.6491 52.2851 21.9748 52.2086 22.4541C51.8353 24.7905 50.2028 26.733 48.0055 27.5291C47.4807 27.7192 47.0897 28.1763 46.9845 28.7218C46.8211 29.5682 46.226 31.6393 44.2338 32.5928C42.5149 33.4154 40.8286 32.9112 40.1844 32.6565C39.0998 32.226 38.3736 31.5229 37.9237 30.9421V27.1439L41.7634 23.3045C42.1066 22.9611 42.1066 22.4047 41.7634 22.0615C41.42 21.7185 40.8635 21.7182 40.5205 22.0615L37.9239 24.658V18.8388C37.9239 18.3533 37.5305 17.9599 37.045 17.9599C36.5595 17.9599 36.1661 18.3533 36.1661 18.8388V22.9712L33.5695 20.3747C33.2262 20.0316 32.6698 20.0316 32.3265 20.3747C31.9833 20.718 31.9833 21.2745 32.3265 21.6177L36.1662 25.4573V30.9427C35.7145 31.5241 34.9871 32.2273 33.9064 32.6563C33.2611 32.9113 31.5749 33.4157 29.8562 32.5931C29.0238 32.1942 28.3525 31.5594 27.8534 30.7099C28.0063 26.8252 26.883 21.1478 25.2131 15.7072C25.4408 15.5841 25.6757 15.473 25.9167 15.3776C26.6995 15.0698 27.1755 14.2767 27.0749 13.4513C27.0562 13.2942 27.0471 13.1423 27.0471 12.987C27.0471 11.2034 28.2548 9.65906 29.9841 9.23109C30.8161 9.0252 31.3971 8.27812 31.3971 7.40531C31.3971 4.29141 33.9309 1.75805 37.0455 1.75805C40.1593 1.75805 42.6927 4.29141 42.6927 7.41469C42.6927 8.27824 43.2737 9.0252 44.1059 9.23121C46.0018 9.70055 47.2505 11.5152 47.0152 13.4491C46.9146 14.2761 47.3904 15.0689 48.1729 15.3775C49.8179 16.0249 51.1445 17.3351 51.8123 18.9717C51.998 19.4265 52.5179 19.6331 52.9581 19.4535C53.4076 19.2701 53.6232 18.7571 53.4398 18.3077C52.5915 16.2286 50.9064 14.5644 48.8171 13.742C48.782 13.7282 48.7563 13.6921 48.7604 13.6598C49.1128 10.8205 47.2576 8.20195 44.5282 7.52484C44.4839 7.51383 44.4506 7.46648 44.4506 7.40531C44.4504 3.32191 41.1285 0 37.0453 0C32.9614 0 29.6391 3.32191 29.6391 7.41445C29.6391 7.46625 29.6058 7.51371 29.5617 7.52461C27.0461 8.14699 25.2891 10.3931 25.2891 12.9867C25.2891 13.2091 25.3025 13.4353 25.3296 13.6615C25.3478 13.8136 24.7882 13.94 24.6659 14.0134C24.4471 13.3659 24.221 12.7293 23.9878 12.11C20.2189 2.10105 16.4402 0 13.9339 0C9.56016 0 6.21527 6.16277 4.17938 11.3327C4.00148 11.7844 4.22344 12.2947 4.67508 12.4726C5.12648 12.6506 5.63707 12.4286 5.81496 11.9769C8.37234 5.4825 11.3316 1.75781 13.9339 1.75781C16.6523 1.75781 19.7173 5.75684 22.3427 12.7295C24.816 19.298 26.1101 26.3924 26.1101 30.0056C26.1101 37.235 21.118 43.1753 14.8129 43.6843V36.5517C14.8129 36.5514 14.8129 36.5509 14.8129 36.5505V33.19L18.4809 29.5219C18.8242 29.1785 18.8242 28.6221 18.4809 28.2789C18.1376 27.9357 17.5812 27.9357 17.2379 28.2789L14.813 30.7038V27.0287C14.813 26.5432 14.4196 26.1498 13.9341 26.1498C13.4486 26.1498 13.0552 26.5432 13.0552 27.0287V32.8253V32.8264V34.4292L10.6301 32.0041C10.2867 31.661 9.73031 31.661 9.38707 32.0041C9.04383 32.3475 9.04383 32.9039 9.38707 33.2472L13.0552 36.9152V43.6843C6.74988 43.1753 1.75781 37.235 1.75781 30.0056C1.75781 26.6093 2.85012 20.8856 4.47598 15.763C4.62281 15.3005 4.36676 14.8063 3.9041 14.6595C3.44215 14.513 2.9475 14.7688 2.80055 15.2313C1.09934 20.5915 0 26.3907 0 30.0056C0 38.2093 5.7798 44.9411 13.055 45.4465V58.2422H0.878906C0.393398 58.2422 0 58.6356 0 59.1211C0 59.6066 0.393398 60 0.878906 60H59.1211C59.6066 60 60 59.6066 60 59.1211C60 58.6356 59.6066 58.2422 59.1211 58.2422ZM36.1659 58.2422H14.8129V45.4465C21.132 45.0075 26.3221 39.8707 27.5773 33.1525C28.0286 33.5661 28.5355 33.9093 29.0967 34.1782C31.4396 35.2998 33.6926 34.6304 34.5536 34.2902C35.1785 34.0421 35.7113 33.7256 36.1659 33.385V58.2422ZM50.2734 58.2422H37.9237V33.3855C38.3782 33.7259 38.9111 34.0423 39.5371 34.2907C40.0399 34.4895 41.019 34.8009 42.2142 34.8009C42.2815 34.8009 42.3047 35.8441 42.3047 36.3751C42.3047 41.4973 45.8059 45.7218 50.2734 46.2166V58.2422ZM51.1523 35.7683C50.6668 35.7683 50.2734 36.1617 50.2734 36.6472V41.4785V41.4797V44.443C46.7776 43.9446 44.0625 40.5178 44.0625 36.375C44.0625 35.7307 44.1292 35.0938 44.2589 34.4748C46.95 33.5735 48.4953 30.4191 48.6914 29.1497C49.2875 28.9262 49.8479 28.6373 50.3657 28.2932C54.6336 27.7431 58.2422 31.6188 58.2422 36.375C58.2422 40.5178 55.5271 43.9446 52.0312 44.443V41.8432L54.8102 39.0642C55.1535 38.7209 55.1535 38.1645 54.8102 37.8212C54.4669 37.4781 53.9105 37.4781 53.5672 37.8212L52.0312 39.3572V36.6472C52.0312 36.1617 51.6379 35.7683 51.1523 35.7683Z" fill="#345995"/>
</svg>
