<svg width="20" height="18" viewBox="0 0 20 18" fill="none" xmlns="http://www.w3.org/2000/svg">
<path d="M10.1282 6.42188C9.00155 6.42188 8.08813 7.33525 8.08813 8.46199C8.08813 9.58869 9.00151 10.5021 10.1282 10.5021C11.2549 10.5021 12.1684 9.58873 12.1684 8.46199C12.1684 7.33525 11.255 6.42188 10.1282 6.42188ZM10.1282 9.53058C9.53805 9.53058 9.05961 9.05214 9.05961 8.46194C9.05961 7.87175 9.53805 7.39331 10.1282 7.39331C10.7184 7.39331 11.1969 7.87175 11.1969 8.46194C11.1969 9.05214 10.7184 9.53058 10.1282 9.53058Z" fill="white"/>
<path d="M18.2644 1.75924L5.00379 0.253494C4.48913 0.180324 3.96769 0.330569 3.57088 0.666389C3.17412 0.974038 2.91979 1.43007 2.86656 1.92929L2.62371 3.92083H1.87077C0.802133 3.92083 0.000656342 4.86799 0.000656342 5.93663V15.87C-0.0262595 16.889 0.778007 17.737 1.79709 17.7639C1.82163 17.7645 1.84622 17.7647 1.87077 17.7643H15.2043C16.2729 17.7643 17.2444 16.9386 17.2444 15.87V15.4814C17.5757 15.4174 17.89 15.285 18.1673 15.0928C18.5608 14.7615 18.8127 14.2923 18.8716 13.7813L19.9888 3.92083C20.1027 2.84973 19.3341 1.8862 18.2644 1.75924ZM16.2729 15.87C16.2729 16.4043 15.7386 16.7929 15.2043 16.7929H1.87077C1.3881 16.807 0.985337 16.4272 0.971159 15.9446C0.970415 15.9197 0.97074 15.8948 0.972135 15.87V14.0727L4.73663 11.304C5.18885 10.9568 5.82581 10.9877 6.24242 11.3769L8.8897 13.7084C9.29172 14.046 9.79777 14.2346 10.3227 14.2427C10.733 14.2478 11.1367 14.1385 11.4884 13.927L16.2729 11.1583V15.87H16.2729ZM16.2729 10.0168L10.9783 13.1013C10.5237 13.3706 9.94825 13.3218 9.5454 12.9798L6.87385 10.624C6.10817 9.96605 4.98905 9.9257 4.178 10.5268L0.972135 12.8584V5.93663C0.972135 5.40231 1.33645 4.89231 1.87077 4.89231H15.2043C15.7751 4.91597 16.2361 5.36652 16.2729 5.93663V10.0168ZM19.0183 3.78969C19.0179 3.7929 19.0177 3.79615 19.0173 3.79936L17.8758 13.6598C17.8778 13.9155 17.7612 14.1577 17.5601 14.3156C17.4629 14.4127 17.2443 14.4613 17.2443 14.5099V5.93663C17.206 4.8302 16.311 3.94589 15.2042 3.92083H3.59515L3.81373 2.02645C3.86114 1.78114 3.9894 1.55884 4.17804 1.39497C4.39105 1.2477 4.64858 1.17904 4.90668 1.20066L18.1431 2.73072C18.6771 2.78144 19.069 3.25556 19.0183 3.78969Z" fill="white"/>
</svg>
