<svg width="60" height="61" viewBox="0 0 60 61" fill="none" xmlns="http://www.w3.org/2000/svg">
<g clip-path="url(#clip0)">
<path d="M55.295 0.226562H11.8197C9.22525 0.226562 7.11462 2.33719 7.11462 4.93153V23.2946L3.31929 28.4384C3.03156 28.8284 3.1144 29.3778 3.5044 29.6656C3.66131 29.7813 3.84373 29.837 4.02474 29.837C4.29387 29.837 4.55948 29.7135 4.7316 29.4803L7.11451 26.2507V36.6764C7.11451 38.1636 7.82171 39.546 8.97695 40.4245L8.14899 41.5895C7.86828 41.9845 7.96096 42.5323 8.35598 42.8131C8.75112 43.094 9.29885 43.0013 9.57967 42.6062L17.622 31.2906C17.8744 30.9355 18.2505 30.7031 18.6811 30.6362C19.1124 30.5693 19.5406 30.6768 19.8889 30.9385C20.4952 31.3944 20.6982 32.2221 20.3718 32.9067L16.7518 40.5019C16.6792 40.6541 16.652 40.8241 16.6736 40.9914L16.89 42.6734C17.1741 44.8833 16.7878 47.0998 15.773 49.0832C15.7044 49.2172 15.6716 49.3666 15.6774 49.5171L16.0582 59.3115C16.0765 59.7843 16.4655 60.1551 16.9344 60.1549C16.9459 60.1549 16.9575 60.1547 16.9691 60.1543C17.4535 60.1354 17.8307 59.7276 17.8119 59.2432L17.4399 49.6739C18.5385 47.4277 18.9502 44.935 18.6307 42.4496L18.4934 41.3813H55.2949C57.8893 41.3813 60 39.2707 60 36.6763V4.93153C60.0001 2.33719 57.8894 0.226562 55.295 0.226562ZM58.2449 36.6766C58.2449 38.3031 56.9215 39.6264 55.295 39.6264H19.1136L19.9503 37.8712H50.5979C51.2566 37.8712 51.7926 37.3352 51.7926 36.6766V4.93153C51.7926 4.27277 51.2566 3.73674 50.5979 3.73674H22.8955C22.4107 3.73674 22.0179 4.12966 22.0179 4.61432C22.0179 5.09897 22.4107 5.49189 22.8955 5.49189H50.0375V36.1161H20.7868L21.9564 33.6622C22.6406 32.2268 22.2148 30.4914 20.9438 29.5358C20.2136 28.9868 19.3143 28.7614 18.4117 28.902C17.5091 29.0421 16.7207 29.5294 16.1914 30.274L12.3801 35.6366V5.49201H19.1554C19.6402 5.49201 20.033 5.09909 20.033 4.61443C20.033 4.12978 19.6402 3.73686 19.1554 3.73686H11.8197C11.1609 3.73686 10.6249 4.27288 10.6249 4.93153V36.6764C10.6249 37.0251 10.7761 37.3385 11.015 37.5571L9.99494 38.9923C9.29627 38.44 8.86966 37.5902 8.86966 36.6766V4.93153C8.86966 3.30498 10.193 1.98171 11.8196 1.98171H55.2949C56.9214 1.98171 58.2448 3.30509 58.2448 4.93153V36.6766H58.2449Z" fill="#345995"/>
<path d="M54.9909 19.9268C54.5061 19.9268 54.1133 20.3197 54.1133 20.8043V23.3949C54.1133 23.8796 54.5061 24.2725 54.9909 24.2725C55.4756 24.2725 55.8684 23.8796 55.8684 23.3949V20.8043C55.8684 20.3197 55.4756 19.9268 54.9909 19.9268Z" fill="#345995"/>
<path d="M3.44 45.4746C1.38659 41.4768 1.20195 36.8047 2.93335 32.6563C3.11998 32.2089 2.90866 31.695 2.46145 31.5084C2.01424 31.3216 1.50033 31.533 1.31346 31.9803C-0.617434 36.6071 -0.41138 41.8178 1.87862 46.2766L3.03608 48.5299L2.71934 59.2523C2.70506 59.7367 3.08628 60.1411 3.57058 60.1554C3.57948 60.1556 3.58814 60.1557 3.59703 60.1557C4.06975 60.1557 4.45974 59.7796 4.47378 59.3041L4.7972 48.356C4.80153 48.2077 4.7683 48.061 4.70067 47.9291L3.44 45.4746Z" fill="#345995"/>
<path d="M31.4915 32.5525C34.4489 32.5525 37.2488 31.4203 39.3751 29.3644C39.7237 29.0275 39.7331 28.4719 39.3961 28.1235C39.0593 27.7751 38.5036 27.7656 38.1553 28.1025C36.358 29.8404 33.9914 30.7974 31.4916 30.7974C26.2045 30.7974 21.9032 26.496 21.9032 21.2089C21.9032 15.9217 26.2046 11.6204 31.4916 11.6204C36.7788 11.6204 41.0801 15.9218 41.0801 21.2089C41.0801 22.6413 40.7717 24.0193 40.1633 25.3047C39.9561 25.7428 40.1431 26.2661 40.5812 26.4734C41.0191 26.6805 41.5425 26.4936 41.7497 26.0555C42.4699 24.5337 42.8351 22.9031 42.8351 21.2089C42.8351 14.9539 37.7464 9.86523 31.4915 9.86523C25.2366 9.86523 20.1479 14.954 20.1479 21.2089C20.1479 27.4638 25.2366 32.5525 31.4915 32.5525Z" fill="#345995"/>
<path d="M30.8546 14.9515C30.121 14.4453 29.1751 14.388 28.386 14.8022C27.5968 15.2164 27.1066 16.0273 27.1066 16.9185V25.4986C27.1066 26.3899 27.5967 27.2008 28.3861 27.615C28.7364 27.7989 29.1176 27.8899 29.4974 27.8899C29.9732 27.8899 30.4467 27.7471 30.8546 27.4657L37.0694 23.1757C37.7157 22.7295 38.1016 21.9941 38.1016 21.2086C38.1016 20.4231 37.7157 19.6878 37.0694 19.2415L30.8546 14.9515ZM36.0723 21.731L29.8576 26.0211C29.5724 26.2179 29.3039 26.1145 29.2019 26.0608C29.0996 26.0072 28.8619 25.845 28.8619 25.4985V16.9184C28.8619 16.572 29.0996 16.4098 29.2017 16.3562C29.2588 16.3262 29.368 16.2806 29.5028 16.2806C29.6093 16.2806 29.7318 16.309 29.8576 16.3959L36.0723 20.6859C36.3198 20.8567 36.3466 21.1082 36.3466 21.2085C36.3466 21.3088 36.3198 21.5602 36.0723 21.731Z" fill="#345995"/>
</g>
<defs>
<clipPath id="clip0">
<rect width="60" height="60" fill="white" transform="translate(0 0.19043)"/>
</clipPath>
</defs>
</svg>
