<svg width="61" height="61" viewBox="0 0 61 61" fill="none" xmlns="http://www.w3.org/2000/svg">
<path d="M59.8998 14.4112C59.6933 13.6431 59.1894 12.9883 58.4999 12.5914C57.81 12.1924 56.9897 12.0845 56.2201 12.2911C55.4516 12.4981 54.7968 13.0015 54.3998 13.691L53.8998 14.5611C53.4247 14.2881 52.8178 14.4488 52.54 14.9214L49.9999 19.251L49.1298 18.751C48.8993 18.6177 48.6249 18.5816 48.3681 18.6509C48.1108 18.7208 47.892 18.8897 47.7597 19.1211C47.4887 19.5992 47.6537 20.2066 48.1298 20.481L48.9999 20.981L40.4999 35.711L38.3998 41.3213L37.3998 43.191C36.8144 44.2095 36.8769 45.4756 37.56 46.4312L35.31 49.191L34.6801 47.6114C34.3959 46.9073 33.7382 46.4249 32.9819 46.3658C32.225 46.3062 31.4999 46.6802 31.1098 47.3311L30.7499 47.941L30.4101 43.941C30.332 42.9947 29.599 42.2339 28.6567 42.1197C27.7138 42.0059 26.8212 42.5709 26.5199 43.4712L24.06 50.8511C23.8881 51.3731 24.1694 51.9356 24.6899 52.1114C24.7875 52.1568 24.8925 52.1841 24.9999 52.191C25.4296 52.1924 25.8124 51.9185 25.9501 51.5113L28.3998 44.1314L28.7499 48.191C28.8222 49.0572 29.4447 49.7774 30.2914 49.9737C31.1381 50.17 32.0141 49.7969 32.4599 49.0513L32.83 48.441L33.4501 50.0113C33.7133 50.6729 34.3085 51.1451 35.0131 51.2501C35.7177 51.355 36.4247 51.0772 36.87 50.521L39.2001 47.5713C39.4579 47.6387 39.7236 47.6724 39.9902 47.6714C41.0619 47.6797 42.0571 47.1153 42.6 46.191L43.6 44.521L47.4101 39.8912L55.9999 24.981L56.87 25.481C57.102 25.6138 57.2709 25.8331 57.3398 26.0914C57.4091 26.3477 57.373 26.6211 57.2402 26.8511L53.2402 33.7813C53.0893 34.0088 53.038 34.2881 53.0986 34.5547C53.1591 34.8209 53.3256 35.0508 53.56 35.191C53.7904 35.3248 54.0649 35.3609 54.3217 35.2916C54.579 35.2217 54.7978 35.0528 54.9301 34.8213L58.9301 27.8912C59.329 27.2012 59.4369 26.3809 59.2299 25.6114C59.0229 24.8428 58.5195 24.188 57.83 23.7911L56.9599 23.2911L59.4599 18.961C59.7328 18.4859 59.5722 17.8794 59.1 17.6011L59.6 16.731C60.0097 16.0303 60.1181 15.1934 59.8998 14.4112ZM56.1298 14.691C56.2621 14.4595 56.4819 14.2901 56.7402 14.2212C56.997 14.1578 57.2685 14.1934 57.4999 14.3213C57.7319 14.4537 57.9008 14.6734 57.9701 14.9312C58.0336 15.188 57.998 15.4595 57.87 15.691L57.37 16.5611L55.6298 15.5611L56.1298 14.691ZM42.4999 42.6114L41.9999 42.3213L40.5199 41.461L41.9399 37.6612L45.0898 39.481L42.4999 42.6114ZM39.4999 45.501C39.0776 45.2066 38.9477 44.6402 39.2001 44.191L39.7001 43.3213L41.4399 44.3213L40.9399 45.1812C40.7997 45.4244 40.5644 45.5972 40.2905 45.6583C40.0165 45.7188 39.7299 45.6622 39.4999 45.501ZM46.2299 37.8414L42.7699 35.8414L50.7699 21.981L54.2299 23.981L46.2299 37.8414ZM55.2299 22.251L51.7699 20.251L53.7699 16.7911L57.2299 18.7911L55.2299 22.251Z" fill="#345995"/>
<path d="M15.7798 45.0002L12.2402 48.5305L10.1201 46.4104C9.72998 46.0227 9.1001 46.0227 8.70996 46.4104C8.52051 46.5984 8.41406 46.8537 8.41406 47.1203C8.41406 47.3869 8.52051 47.6428 8.70996 47.8303L10.8301 49.9504C11.2051 50.3225 11.7119 50.531 12.2402 50.5305C12.7715 50.5334 13.2827 50.3249 13.6602 49.9504L17.1899 46.4104C17.5298 46.0134 17.5068 45.4221 17.1377 45.0529C16.7681 44.6833 16.1768 44.6604 15.7798 45.0002Z" fill="#345995"/>
<path d="M4 47.6902C4 52.385 7.80566 56.1902 12.5 56.1902C17.1943 56.1902 21 52.385 21 47.6902C21 47.1379 20.5522 46.6902 20 46.6902C19.4478 46.6902 19 47.1379 19 47.6902C19 51.28 16.0898 54.1902 12.5 54.1902C8.91016 54.1902 6 51.28 6 47.6902C6 44.1003 8.91016 41.1902 12.5 41.1902C13.9072 41.1863 15.2769 41.6428 16.3999 42.4904C16.8418 42.822 17.4688 42.7321 17.7998 42.2903C18.1313 41.8484 18.042 41.2219 17.6001 40.8904C15.0244 38.9587 11.5781 38.6482 8.69873 40.0876C5.81885 41.5276 4 44.4709 4 47.6902Z" fill="#345995"/>
<path d="M36 8.19043C36.5522 8.19043 37 7.74316 37 7.19043C37 6.63818 36.5522 6.19043 36 6.19043H10C9.44775 6.19043 9 6.63818 9 7.19043V11.1904C9 11.7432 9.44775 12.1904 10 12.1904H36C36.5522 12.1904 37 11.7432 37 11.1904C37 10.6382 36.5522 10.1904 36 10.1904H11V8.19043H36Z" fill="#345995"/>
<path d="M13 14.1904C12.4478 14.1904 12 14.6382 12 15.1904C12 15.7432 12.4478 16.1904 13 16.1904H33C33.5522 16.1904 34 15.7432 34 15.1904C34 14.6382 33.5522 14.1904 33 14.1904H13Z" fill="#345995"/>
<path d="M39 21.1904H17C16.4478 21.1904 16 21.6382 16 22.1904C16 22.7432 16.4478 23.1904 17 23.1904H39C39.5522 23.1904 40 22.7432 40 22.1904C40 21.6382 39.5522 21.1904 39 21.1904Z" fill="#345995"/>
<path d="M29 28.1904C29 27.6382 28.5522 27.1904 28 27.1904H8C7.44775 27.1904 7 27.6382 7 28.1904C7 28.7432 7.44775 29.1904 8 29.1904H28C28.5522 29.1904 29 28.7432 29 28.1904Z" fill="#345995"/>
<path d="M39 27.1904H32C31.4478 27.1904 31 27.6382 31 28.1904C31 28.7432 31.4478 29.1904 32 29.1904H39C39.5522 29.1904 40 28.7432 40 28.1904C40 27.6382 39.5522 27.1904 39 27.1904Z" fill="#345995"/>
<path d="M18 34.1904C18.5522 34.1904 19 33.7432 19 33.1904C19 32.6382 18.5522 32.1904 18 32.1904H8C7.44775 32.1904 7 32.6382 7 33.1904C7 33.7432 7.44775 34.1904 8 34.1904H18Z" fill="#345995"/>
<path d="M22 34.1904H29C29.5522 34.1904 30 33.7432 30 33.1904C30 32.6382 29.5522 32.1904 29 32.1904H22C21.4478 32.1904 21 32.6382 21 33.1904C21 33.7432 21.4478 34.1904 22 34.1904Z" fill="#345995"/>
<path d="M45 46.1904C44.4478 46.1904 44 46.6382 44 47.1904V57.1904C44 57.7432 43.5522 58.1904 43 58.1904H3C2.44775 58.1904 2 57.7432 2 57.1904V3.19043C2 2.63818 2.44775 2.19043 3 2.19043H43C43.5522 2.19043 44 2.63818 44 3.19043V21.9707C44 22.5229 44.4478 22.9707 45 22.9707C45.5522 22.9707 46 22.5229 46 21.9707V3.19043C46 1.53369 44.6567 0.19043 43 0.19043H3C1.34326 0.19043 0 1.53369 0 3.19043V57.1904C0 58.8477 1.34326 60.1904 3 60.1904H43C44.6567 60.1904 46 58.8477 46 57.1904V47.1904C46 46.6382 45.5522 46.1904 45 46.1904Z" fill="#345995"/>
</svg>
