<svg width="60" height="61" viewBox="0 0 60 61" fill="none" xmlns="http://www.w3.org/2000/svg">
<path d="M22.5253 18.5916L23.2324 19.2987L23.9395 18.5916C25.5864 16.9447 28.2565 16.9447 29.9034 18.5916C31.5504 20.2385 31.5503 22.9087 29.9035 24.5555L29.9034 24.5555L23.2324 31.2265L16.5614 24.5555C14.9145 22.9086 14.9145 20.2385 16.5614 18.5916C18.2083 16.9447 20.8784 16.9447 22.5253 18.5916Z" stroke="#345995" stroke-width="2"/>
<path d="M52.4414 29.0037H45.7887C46.237 27.1856 46.4648 25.3151 46.4648 23.4229C46.4648 10.6125 36.0428 0.19043 23.2324 0.19043C10.4221 0.19043 0 10.6125 0 23.4229C0 28.0175 1.33523 32.4465 3.86473 36.2557V45.4834C3.86473 45.9169 4.10402 46.315 4.48687 46.5183C4.65937 46.6099 4.84816 46.6553 5.03648 46.6553C5.26629 46.6553 5.49516 46.5878 5.69262 46.4545L10.7648 43.0283C14.4907 45.4038 18.7839 46.6553 23.2324 46.6553C25.1351 46.6553 27.0158 46.4251 28.843 45.9718V47.9443C28.843 52.1121 32.2338 55.5029 36.4016 55.5029H46.3598L51.7574 59.925C51.971 60.1001 52.2343 60.1904 52.5003 60.1904C52.6705 60.1904 52.8418 60.1534 53.0016 60.0777C53.4109 59.8839 53.672 59.4715 53.672 59.0186V55.401C57.2521 54.8089 60.0001 51.679 60.0001 47.9443V36.5623C60 32.3945 56.6092 29.0037 52.4414 29.0037ZM23.2324 44.3115C18.9905 44.3115 14.9064 43.0464 11.4217 40.6528C11.0248 40.3801 10.5013 40.3781 10.1021 40.6477L6.20836 43.2777V35.8971C6.20836 35.6603 6.13664 35.4288 6.00246 35.2336C3.60891 31.749 2.34375 27.6649 2.34375 23.4229C2.34375 11.9047 11.7144 2.53418 23.2324 2.53418C34.7504 2.53418 44.1211 11.9047 44.1211 23.4229C44.1211 25.3209 43.8675 27.1942 43.3672 29.0037H36.4016C32.2338 29.0037 28.843 32.3945 28.843 36.5623V43.5497C27.0246 44.0555 25.1411 44.3115 23.2324 44.3115ZM57.6562 47.9443C57.6562 50.7933 55.3385 53.132 52.4894 53.1578C51.8464 53.1635 51.3281 53.6865 51.3281 54.3297V56.5436L47.5213 53.4246C47.3118 53.253 47.0494 53.1592 46.7786 53.1592H36.4016C33.5262 53.1592 31.1868 50.8199 31.1868 47.9443V36.5623C31.1868 33.6867 33.5262 31.3474 36.4016 31.3474H52.4414C55.3168 31.3474 57.6562 33.6867 57.6562 36.5623V47.9443Z" fill="#345995"/>
<path d="M38.2007 41.0957C37.8925 41.0957 37.5901 41.2211 37.3723 41.4391C37.1543 41.657 37.0288 41.9594 37.0288 42.2676C37.0288 42.577 37.1542 42.8781 37.3723 43.0973C37.5901 43.3152 37.8925 43.4395 38.2007 43.4395C38.5089 43.4395 38.8112 43.3152 39.0292 43.0973C39.2472 42.8781 39.3726 42.577 39.3726 42.2676C39.3726 41.9594 39.2473 41.657 39.0292 41.4391C38.8112 41.2211 38.5089 41.0957 38.2007 41.0957Z" fill="#345995"/>
<path d="M44.4211 41.0957C44.1129 41.0957 43.8105 41.2211 43.5927 41.4391C43.3747 41.657 43.2492 41.9594 43.2492 42.2676C43.2492 42.577 43.3746 42.8781 43.5927 43.0961C43.8105 43.3152 44.1129 43.4395 44.4211 43.4395C44.7306 43.4395 45.0316 43.3152 45.2508 43.0961C45.4687 42.8781 45.593 42.5758 45.593 42.2676C45.593 41.9594 45.4687 41.657 45.2508 41.4391C45.0316 41.2211 44.7305 41.0957 44.4211 41.0957Z" fill="#345995"/>
<path d="M50.6425 41.0957C50.3343 41.0957 50.0319 41.2211 49.8141 41.4391C49.5961 41.657 49.4706 41.9594 49.4706 42.2676C49.4706 42.577 49.596 42.8781 49.8141 43.0961C50.0319 43.3152 50.3343 43.4395 50.6425 43.4395C50.9507 43.4395 51.253 43.3152 51.471 43.0961C51.6889 42.8781 51.8143 42.5758 51.8143 42.2676C51.8143 41.9594 51.6891 41.657 51.471 41.4391C51.253 41.2211 50.9507 41.0957 50.6425 41.0957Z" fill="#345995"/>
</svg>
